<?xml version="1.0" encoding="UTF-8"?>
<svg id="Layer_1" xmlns="http://www.w3.org/2000/svg" version="1.1" xmlns:xlink="http://www.w3.org/1999/xlink" viewBox="0 0 200 200">
  <!-- Generator: Adobe Illustrator 30.1.0, SVG Export Plug-In . SVG Version: 2.1.1 Build 136)  -->
  <defs>
    <style>
      .st0 {
        fill: #e7e5dc;
      }

      .st1 {
        fill: url(#linear-gradient2);
      }

      .st2 {
        fill: url(#linear-gradient1);
      }

      .st3 {
        fill: url(#radial-gradient);
      }

      .st4 {
        fill: #183a2a;
      }

      .st5 {
        fill: url(#linear-gradient3);
      }

      .st6 {
        fill: #993c23;
      }

      .st7 {
        fill: url(#linear-gradient);
      }

      .st8 {
        fill: #243e7e;
      }
    </style>
    <linearGradient id="linear-gradient" x1="107.55" y1="68.39" x2="142.95" y2="68.39" gradientUnits="userSpaceOnUse">
      <stop offset="0" stop-color="#006743"/>
      <stop offset="1" stop-color="#005535"/>
    </linearGradient>
    <linearGradient id="linear-gradient1" x1="57.26" y1="107.2" x2="95.51" y2="107.2" xlink:href="#linear-gradient"/>
    <linearGradient id="linear-gradient2" x1="97.13" y1="111.2" x2="121.03" y2="111.2" xlink:href="#linear-gradient"/>
    <linearGradient id="linear-gradient3" x1="108.56" y1="67.55" x2="133.21" y2="67.55" xlink:href="#linear-gradient"/>
    <radialGradient id="radial-gradient" cx="100" cy="100" fx="100" fy="100" r="95.87" gradientUnits="userSpaceOnUse">
      <stop offset="0" stop-color="#91918e"/>
      <stop offset="1" stop-color="#e7e5dc"/>
    </radialGradient>
  </defs>
  <g>
    <path class="st8" d="M90.89,43.02s-11.16-16.19-32.45-5.26c0,0-16.42,9.01-8.25,29.13,0,0,2.72,11.53,15.72,14.67,0,0-6.92-5.68-6.37-14.96.55-9.27,7.39-13.2,7.39-13.2,0,0-11.55,1.89-11.79,11.63,0,0-4.71-12.81,5.66-21.53,0,0,11.94-12.1,30.1-.47Z"/>
    <path class="st6" d="M63.81,46.09s10.15-3.62,17.48,3.92c0,0,3.62,4.32,5.12,8.84,0,0,2.27,5.66,4.68,7.59,0,0,6.59-4.9.49-11.61l-4.86-3.92s-.19-5.2-7.72-7.46c0,0-9.07-3.32-15.2,2.64Z"/>
    <path class="st8" d="M46.26,58.65s-.47,16.45,16.4,24.15c0,0,12.31,5.5,14.83-10.69,2.51-16.19-7.61-22.03-12.44-20.3,0,0-6.6,1.22-9.47,6.21,0,0-.59-2.2,2.83-6.33,0,0,6.84-7.35,17.44-1.96,0,0,9.86,5.07,7.9,21.02,0,0-1.73,17.52-17.29,16.89,0,0-23.29-1.75-20.2-29Z"/>
    <circle class="st8" cx="96.55" cy="38.49" r="3.04"/>
    <circle class="st8" cx="96.55" cy="48.23" r="5.19"/>
    <path class="st6" d="M110.92,48.67s-10.64,1.63-13.46,11.5l-1.68,3.34-3.18,3.06s-6.93,4.55-5.65,11.75c0,0,.75,4.47,3.82,6.92,0,0,1.72-.5,1.39-3.67,0,0-1.93-4.25-1.05-6.76l4.05-4.78,6.4-5.22s3.83-3.27,9.36-16.13Z"/>
    <path class="st8" d="M94.51,75.78v9.19s1.49.63,3.69-3.54l.39-9.51-4.09,3.85Z"/>
    <path class="st6" d="M100.06,69.18s-.89,3.98.37,5.76c0,0,2.15,5.34-3.93,10.22,0,0-8.8,5.55-5.66,12.94,0,0,.84,2.67,3.46,3.88,0,0-.46-2.46-1.09-4.15,0,0-.75-3.77,2.51-6.72,0,0,7.43-4.75,9.04-10.41,0,0,1.18-4.16-.67-7.66,0,0-2.48-3.97-3.69-4.09l-.34.24Z"/>
    <path class="st8" d="M95.24,95.01l.52,15.45.37,2.15.79-2.1.79-18.39s-1.26.31-2.46,2.88Z"/>
    <path class="st0" d="M68.31,89.3s3.51.1,6.02-.89c0,0,12.1,10.22,13.46,11.94,0,0,7.49,6.23,8.12,18.18l-.42.05s-1.47-5.19-4.98-9.53c0,0-7.7-9.01-22.21-19.75Z"/>
    <path class="st6" d="M99.14,41.33s4.05.98,4.24,5.34c0,0,6.56-8.37,15.05-8.37,0,0,12.27-2.02,19.92,7.88,0,0-2.25-11.32-22.32-12.47,0,0-9.64-.18-16.89,7.61Z"/>
    <g>
      <path class="st7" d="M140.79,52.13s-3.3-8.57-14.62-11.55c0,0-13.28-2.31-18.62,5.13,0,0,13.1-7.6,23.21,3.82,0,0,13.25,10.84-3.33,35.36,0,0-6.68,8.07-11.24,11.63h7.02s8.91-6.18,15.61-17.92c0,0,7.78-13.75,1.96-26.48Z"/>
      <path class="st2" d="M76.07,99.25c-4.77-3.3-10.74-9.69-10.74-9.69-4.56-.1-8.07-2.88-8.07-2.88,2.1,4.51,12.42,13.67,12.42,13.67l10.53,8.87c10.8,8.02,15.28,18.51,15.28,18.51.28-4.01-1.69-7.23-1.69-7.23-2.44-10.37-17.73-21.24-17.73-21.24Z"/>
      <path class="st1" d="M101.53,111.3s-4.24,5.34-4.4,12.21c0,0,4.66-10.11,13.25-15.87l10.65-8.75h-7.43s-5.53,3.88-12.08,12.42Z"/>
    </g>
    <path class="st6" d="M99.74,89.98s-1.57.73-.52,5.61c0,0,.84,2.25-.63,4.92l-.37,2.2s1.99-.37,3.72-4.09c0,0,1.41-2.88-.26-6.23,0,0-.89-1.89-1.94-2.41Z"/>
    <path class="st5" d="M108.81,55.2l4.01-6.21s11.08-2.51,17.6,7.47c0,0,5.89,8.41.55,18l-2.2,4.64-2.51,3.61s-2.51,3.69-7.62,3.69h-9.98s-.37-.5.39-.79c0,0,1.49.18,1.65-2.04l.52-25.8s1.78-2.51,5.08-2.72v26.82s-.58,1.41,2.67.42c0,0,4.56-1.15,7.02-6.02,0,0,2.1-5.29.94-13.36,0,0-.73-6.97-8.28-9.27,0,0-4.77-1.26-9.85,1.57Z"/>
  </g>
  <g>
    <path class="st4" d="M57.45,142.86c.83-.02,1.65-.02,1.65-.64v-9.69c0-.62-.83-.62-1.65-.64v-.84h6.33c2.53,0,4.86.83,4.86,3.62,0,2.07-1.85,3.58-4.64,3.58-.64,0-1.16-.02-1.63-.09v4.07c0,.62.46.62,1.89.64v.84h-6.81v-.84ZM62.37,137.29c.2.05.42.09.7.09,1.32,0,2.2-.96,2.2-2.74,0-1.54-.51-2.77-2.13-2.77h-.17c-.39,0-.61.07-.61.46v4.96Z"/>
    <path class="st4" d="M69.69,142.93c.64-.02,1.12-.06,1.12-.51v-6.02c0-.24-.13-.35-.39-.35-.22,0-.57.05-.73.11v-.95c.83,0,2.53-.2,2.86-.46h.51v1.91c0,.09.02.15.09.15s.15-.13.35-.44c.4-.62,1.49-1.62,2.39-1.62.81,0,1.25.83,1.25,1.65,0,.77-.31,1.43-1.1,1.43-.92,0-.73-1.36-1.45-1.36-.42,0-1.28.73-1.28,2.44v3.38c0,.42.35.64,1.98.64h.15v.77h-5.75v-.77Z"/>
    <path class="st4" d="M82.43,134.74c2.81,0,4.44,2.11,4.44,4.59s-1.63,4.59-4.44,4.59-4.44-2.11-4.44-4.59,1.63-4.59,4.44-4.59ZM82.43,143.08c1.25,0,1.69-1.85,1.69-3.75s-.44-3.74-1.69-3.74-1.69,1.85-1.69,3.74.44,3.75,1.69,3.75Z"/>
    <path class="st4" d="M88.06,142.93c.62-.02,1.1-.06,1.1-.53v-6.35h-1.1v-.84h1.1v-1.17c0-2.11,1.6-3.43,3.62-3.43.94,0,1.74.33,1.74,1.4,0,.57-.42,1.21-.99,1.21-1.01,0-1.01-1.54-1.85-1.54-.33,0-.59.29-.59.79,0,.53.57,1.3.57,2.75h2.61v.84h-2.61v6.35c0,.29.15.53,1.84.53h.15v.77h-5.58v-.77Z"/>
    <path class="st4" d="M97.22,140.84c.83,0,1.49.66,1.49,1.49s-.66,1.49-1.49,1.49-1.49-.66-1.49-1.49.66-1.49,1.49-1.49Z"/>
    <path class="st4" d="M110.82,130.74c3.58,0,5.97,2.9,5.97,6.48,0,4.04-2.53,6.77-5.97,6.77s-5.97-2.74-5.97-6.77c0-3.58,2.39-6.48,5.97-6.48ZM110.82,143.15c2.11,0,2.48-2.15,2.48-5.82s-.37-5.82-2.48-5.82-2.48,2.15-2.48,5.82.37,5.82,2.48,5.82Z"/>
    <path class="st4" d="M118.64,133.35c-.5-1.32-.97-1.47-1.65-1.47v-.84h6.72v.84c-.94,0-1.62.09-1.62.62,0,.42.2.97.39,1.52l2.33,6.7h.04l2.44-6.74c.17-.46.37-.94.37-1.45,0-.59-.57-.66-1.63-.66v-.84h4.15v.84c-.61,0-1.17.31-1.56,1.34l-4.13,10.78h-1.76l-4.08-10.65Z"/>
    <path class="st4" d="M131.22,142.86c.83-.02,1.65-.02,1.65-.64v-9.69c0-.62-.83-.62-1.65-.64v-.84h6.87c4.15,0,6.19,2.64,6.19,6.39,0,4.06-2.13,6.28-6.66,6.28h-6.39v-.84ZM136.14,142.21c0,.64.64.64,1.27.64,1.34,0,3.27-.28,3.27-5.71,0-3.4-.88-5.27-3.08-5.27-.81,0-1.45,0-1.45.64v9.69Z"/>
  </g>
  <g>
    <path class="st4" d="M61.72,151.89v1.13c0,.25.03.4.08.46.07.08.18.13.33.13h.15v.11h-1.67v-.11h.15c.16,0,.28-.05.35-.16.04-.06.06-.2.06-.42v-2.51c0-.25-.03-.4-.08-.46-.07-.08-.19-.13-.33-.13h-.15v-.11h1.43c.35,0,.62.04.82.11.2.07.37.19.51.36.14.17.21.37.21.61,0,.32-.1.58-.31.78-.21.2-.51.3-.89.3-.09,0-.2,0-.3-.02-.11-.01-.23-.03-.35-.06ZM61.72,151.73c.1.02.19.03.27.04.08,0,.15.01.2.01.2,0,.37-.08.52-.23.14-.15.22-.35.22-.6,0-.17-.03-.32-.1-.47s-.17-.25-.29-.33c-.13-.07-.27-.11-.43-.11-.1,0-.22.02-.38.05v1.62Z"/>
    <path class="st4" d="M64.74,151.01v.59c.22-.39.45-.59.68-.59.11,0,.19.03.26.1.07.06.1.14.1.22,0,.07-.02.14-.07.19s-.11.08-.18.08-.14-.03-.23-.1c-.08-.07-.15-.1-.19-.1-.03,0-.07.02-.11.06-.09.08-.17.21-.27.39v1.26c0,.15.02.25.05.33.02.05.07.09.13.13.06.04.15.05.27.05v.1h-1.35v-.1c.13,0,.23-.02.3-.06.05-.03.08-.08.1-.15,0-.03.01-.12.01-.28v-1.02c0-.31,0-.49-.02-.55-.01-.06-.04-.1-.07-.13-.03-.03-.08-.04-.12-.04-.06,0-.13.01-.2.04l-.03-.1.8-.32h.12Z"/>
    <path class="st4" d="M67.22,151.01c.4,0,.72.15.96.45.21.26.31.55.31.89,0,.24-.06.47-.17.71-.11.24-.27.42-.47.55-.2.12-.42.18-.66.18-.4,0-.71-.16-.94-.47-.2-.27-.3-.56-.3-.9,0-.24.06-.48.18-.72s.28-.41.47-.53c.2-.11.4-.17.62-.17ZM67.13,151.2c-.1,0-.2.03-.31.09-.1.06-.19.17-.25.32-.06.15-.09.35-.09.58,0,.38.08.71.23.99s.35.42.6.42c.19,0,.34-.08.46-.23.12-.15.18-.42.18-.79,0-.47-.1-.83-.3-1.1-.14-.18-.31-.28-.52-.28Z"/>
    <path class="st4" d="M69.9,151.29v1.73c0,.25.03.4.08.47.07.08.17.13.28.13h.24v.1h-1.57v-.1h.12c.08,0,.15-.02.21-.06.06-.04.11-.09.13-.15.02-.07.04-.19.04-.38v-1.73h-.51v-.21h.51v-.17c0-.26.04-.48.13-.67.08-.18.21-.33.39-.44.17-.11.37-.17.58-.17.2,0,.39.06.55.2.11.09.17.18.17.29,0,.06-.02.11-.07.16s-.1.08-.16.08c-.04,0-.09-.02-.14-.05s-.11-.1-.18-.2c-.07-.1-.14-.17-.2-.21-.06-.04-.13-.05-.2-.05-.09,0-.16.02-.22.07-.06.05-.11.12-.13.22s-.04.35-.04.76v.19h.68v.21h-.68Z"/>
    <path class="st4" d="M71.38,153.16c.09,0,.17.03.23.09s.09.14.09.23-.03.16-.09.23c-.06.06-.14.09-.23.09s-.16-.03-.23-.09c-.06-.06-.09-.14-.09-.23s.03-.17.09-.23c.06-.06.14-.09.23-.09Z"/>
    <path class="st4" d="M73.68,153.72v-.11h.15c.16,0,.28-.05.35-.16.04-.06.06-.2.06-.42v-2.51c0-.24-.03-.4-.08-.46-.07-.08-.19-.13-.33-.13h-.15v-.11h1.58c.58,0,1.02.07,1.33.2.3.13.55.35.73.66.19.31.28.66.28,1.07,0,.54-.16.99-.49,1.36-.37.41-.93.61-1.69.61h-1.74ZM74.8,153.44c.24.05.45.08.61.08.44,0,.81-.16,1.11-.47.29-.31.44-.74.44-1.27s-.15-.96-.44-1.27c-.29-.31-.67-.47-1.13-.47-.17,0-.37.03-.59.08v3.31Z"/>
    <path class="st4" d="M78.78,151.01v.59c.22-.39.45-.59.68-.59.11,0,.19.03.26.1.07.06.1.14.1.22,0,.07-.02.14-.07.19s-.11.08-.18.08-.14-.03-.23-.1c-.08-.07-.15-.1-.19-.1-.03,0-.07.02-.11.06-.09.08-.17.21-.27.39v1.26c0,.15.02.25.05.33.02.05.07.09.13.13.06.04.15.05.27.05v.1h-1.35v-.1c.13,0,.23-.02.3-.06.05-.03.08-.08.1-.15,0-.03.01-.12.01-.28v-1.02c0-.31,0-.49-.02-.55-.01-.06-.04-.1-.07-.13-.03-.03-.08-.04-.12-.04-.06,0-.13.01-.2.04l-.03-.1.8-.32h.12Z"/>
    <path class="st4" d="M80.2,153.16c.09,0,.17.03.23.09s.09.14.09.23-.03.16-.09.23c-.06.06-.14.09-.23.09s-.16-.03-.23-.09c-.06-.06-.09-.14-.09-.23s.03-.17.09-.23c.06-.06.14-.09.23-.09Z"/>
    <path class="st4" d="M84.56,149.74c.51,0,.94.19,1.31.58.37.38.56.86.56,1.44s-.19,1.08-.56,1.47c-.37.39-.82.59-1.35.59s-.99-.19-1.35-.57-.55-.87-.55-1.48.21-1.12.63-1.51c.37-.34.8-.51,1.31-.51ZM84.5,149.94c-.35,0-.63.13-.84.39-.26.32-.39.79-.39,1.41s.14,1.12.41,1.47c.21.26.48.39.83.39.37,0,.67-.14.91-.43s.36-.73.36-1.35c0-.67-.13-1.16-.39-1.49-.21-.26-.5-.39-.87-.39Z"/>
    <path class="st4" d="M90.63,153.72h-1.04l-1.32-1.82c-.1,0-.18,0-.24,0-.02,0-.05,0-.08,0s-.06,0-.09,0v1.13c0,.25.03.4.08.46.07.08.18.13.33.13h.15v.11h-1.67v-.11h.15c.16,0,.28-.05.35-.16.04-.06.06-.2.06-.42v-2.51c0-.25-.03-.4-.08-.46-.07-.08-.19-.13-.33-.13h-.15v-.11h1.42c.41,0,.72.03.91.09.2.06.36.17.5.33.14.16.21.35.21.58,0,.24-.08.45-.23.62-.16.18-.4.3-.72.37l.8,1.12c.18.26.34.43.47.51.13.08.3.14.52.16v.11ZM87.86,151.72s.07,0,.09,0,.05,0,.07,0c.37,0,.65-.08.84-.24.19-.16.28-.37.28-.61s-.08-.44-.23-.59-.35-.23-.6-.23c-.11,0-.26.02-.45.05v1.62Z"/>
    <path class="st4" d="M91.78,151.63h1.81v-1.11c0-.2-.01-.33-.04-.39-.02-.05-.06-.09-.12-.12-.08-.05-.17-.07-.26-.07h-.14v-.11h1.67v.11h-.14c-.09,0-.18.02-.26.07-.06.03-.1.08-.12.14s-.03.19-.03.38v2.51c0,.2.01.33.04.39.02.05.06.09.12.12.08.05.17.07.26.07h.14v.11h-1.67v-.11h.14c.16,0,.27-.05.35-.14.05-.06.07-.21.07-.44v-1.19h-1.81v1.19c0,.2.01.33.04.39.02.05.06.09.12.12.08.05.17.07.26.07h.14v.11h-1.67v-.11h.14c.16,0,.28-.05.35-.14.05-.06.07-.21.07-.44v-2.51c0-.2-.01-.33-.04-.39-.02-.05-.06-.09-.12-.12-.08-.05-.17-.07-.26-.07h-.14v-.11h1.67v.11h-.14c-.09,0-.18.02-.26.07-.06.03-.1.08-.12.14s-.03.19-.03.38v1.11Z"/>
    <path class="st4" d="M97.51,152.41h-1.51l-.26.61c-.06.15-.1.26-.1.34,0,.06.03.11.08.16.06.04.18.07.37.09v.11h-1.23v-.11c.16-.03.27-.07.32-.11.1-.09.21-.28.32-.56l1.37-3.2h.1l1.36,3.24c.11.26.21.43.3.51.09.08.21.12.37.13v.11h-1.54v-.11c.16,0,.26-.03.31-.08s.08-.1.08-.16c0-.08-.04-.22-.12-.4l-.23-.56ZM97.43,152.2l-.66-1.57-.68,1.57h1.34Z"/>
    <path class="st4" d="M98.99,149.82h1.06l2.38,2.92v-2.25c0-.24-.03-.39-.08-.45-.07-.08-.18-.12-.34-.12h-.13v-.11h1.36v.11h-.14c-.16,0-.28.05-.35.15-.04.06-.06.2-.06.42v3.28h-.1l-2.57-3.14v2.4c0,.24.03.39.08.45.07.08.18.12.34.12h.14v.11h-1.36v-.11h.13c.17,0,.28-.05.35-.15.04-.06.06-.2.06-.42v-2.71c-.11-.13-.2-.22-.26-.26-.06-.04-.14-.08-.26-.12-.06-.02-.14-.03-.25-.03v-.11Z"/>
    <path class="st4" d="M108.96,149.82v.11c-.14.02-.24.07-.31.13-.1.09-.19.24-.27.43l-1.36,3.31h-.11l-1.46-3.36c-.07-.17-.13-.28-.16-.32-.05-.06-.11-.11-.18-.14-.07-.03-.17-.06-.28-.06v-.11h1.59v.11c-.18.02-.3.05-.35.09s-.08.1-.08.17c0,.1.04.25.13.45l.99,2.28.92-2.25c.09-.22.14-.38.14-.46,0-.06-.03-.11-.08-.16-.05-.05-.15-.09-.28-.11,0,0-.03,0-.05,0v-.11h1.2Z"/>
    <path class="st4" d="M110.26,150.04v1.54h.86c.22,0,.37-.03.44-.1.1-.09.16-.24.17-.47h.11v1.36h-.11c-.03-.19-.05-.31-.08-.36-.04-.07-.09-.12-.17-.16-.08-.04-.2-.06-.36-.06h-.86v1.28c0,.17,0,.28.02.31.02.04.04.07.08.09.04.02.11.03.22.03h.66c.22,0,.38-.01.48-.05.1-.03.2-.09.29-.18.12-.12.24-.3.37-.54h.11l-.34.98h-3v-.11h.14c.09,0,.18-.02.26-.07.06-.03.1-.08.12-.14.02-.06.03-.19.03-.38v-2.53c0-.25-.03-.4-.08-.46-.07-.08-.18-.11-.34-.11h-.14v-.11h3l.04.85h-.11c-.04-.21-.08-.35-.13-.42s-.12-.13-.22-.17c-.08-.03-.21-.04-.41-.04h-1.07Z"/>
    <path class="st4" d="M116,152.64l.09.02-.33,1.06h-3.01v-.11h.15c.16,0,.28-.05.35-.16.04-.06.06-.2.06-.43v-2.51c0-.24-.03-.4-.08-.46-.08-.08-.19-.13-.33-.13h-.15v-.11h1.76v.11c-.21,0-.35.02-.44.06-.08.04-.14.09-.17.15-.03.06-.05.21-.05.44v2.45c0,.16.02.27.05.33.02.04.06.07.11.09.05.02.2.03.45.03h.28c.3,0,.51-.02.63-.07.12-.04.23-.12.33-.23s.2-.29.3-.53Z"/>
    <path class="st4" d="M118.03,153.61v.11h-1.67v-.11h.14c.16,0,.28-.05.35-.14.05-.06.07-.21.07-.44v-2.51c0-.2-.01-.33-.04-.39-.02-.05-.06-.09-.12-.12-.08-.05-.17-.07-.26-.07h-.14v-.11h1.67v.11h-.14c-.16,0-.27.05-.35.14-.05.06-.07.21-.07.44v2.51c0,.2.01.33.04.39.02.05.06.09.12.12.08.05.17.07.26.07h.14ZM117.2,148.81c.09,0,.16.03.22.09s.09.13.09.22-.03.16-.09.22-.13.09-.22.09-.16-.03-.22-.09c-.06-.06-.09-.13-.09-.22s.03-.16.09-.22.13-.09.22-.09Z"/>
    <path class="st4" d="M119.75,153.72v-.11h.15c.16,0,.28-.05.35-.16.04-.06.06-.2.06-.42v-2.51c0-.24-.03-.4-.08-.46-.07-.08-.19-.13-.33-.13h-.15v-.11h1.58c.58,0,1.02.07,1.33.2.3.13.55.35.73.66s.28.66.28,1.07c0,.54-.16.99-.49,1.36-.37.41-.93.61-1.69.61h-1.74ZM120.86,153.44c.24.05.45.08.61.08.44,0,.81-.16,1.11-.47.29-.31.44-.74.44-1.27s-.15-.96-.44-1.27c-.29-.31-.67-.47-1.13-.47-.17,0-.37.03-.59.08v3.31Z"/>
    <path class="st4" d="M126.04,149.74c.51,0,.94.19,1.31.58.37.38.56.86.56,1.44s-.19,1.08-.56,1.47-.83.59-1.36.59-.99-.19-1.35-.57c-.37-.38-.55-.87-.55-1.48s.21-1.12.63-1.51c.37-.34.8-.51,1.31-.51ZM125.99,149.94c-.35,0-.63.13-.84.39-.26.32-.39.79-.39,1.41s.14,1.12.41,1.47c.21.26.48.39.83.39.37,0,.67-.14.91-.43s.36-.73.36-1.35c0-.67-.13-1.16-.39-1.49-.21-.26-.5-.39-.87-.39Z"/>
    <path class="st4" d="M131.75,149.74l.1,1.23h-.1c-.1-.31-.23-.54-.39-.69-.23-.22-.53-.34-.89-.34-.5,0-.87.2-1.13.59-.22.33-.32.73-.32,1.18,0,.37.07.71.22,1.02.14.31.33.53.56.67s.47.21.72.21c.14,0,.28-.02.42-.05.13-.04.26-.09.39-.16v-1.13c0-.2-.01-.32-.04-.38-.03-.06-.08-.11-.14-.14-.06-.03-.17-.05-.33-.05v-.11h1.51v.11h-.07c-.15,0-.25.05-.31.15-.04.07-.06.21-.06.42v1.19c-.22.12-.44.21-.65.26-.21.06-.45.08-.71.08-.75,0-1.32-.24-1.71-.72-.29-.36-.44-.78-.44-1.25,0-.34.08-.67.25-.98.2-.37.46-.66.8-.86.29-.17.62-.25,1.01-.25.14,0,.27.01.39.03.12.02.28.07.49.15.11.04.18.06.21.06s.07-.02.09-.05c.03-.03.04-.1.05-.2h.11ZM129.64,148.68h.09c.06.12.14.2.22.25.14.08.31.12.52.12s.38-.04.52-.12c.1-.05.17-.14.2-.25h.09c-.02.24-.11.43-.26.58-.16.15-.34.22-.56.22s-.4-.07-.55-.22c-.16-.15-.25-.34-.27-.58Z"/>
    <path class="st4" d="M135.08,152.41h-1.51l-.26.61c-.07.15-.1.26-.1.34,0,.06.03.11.08.16.06.04.18.07.37.09v.11h-1.23v-.11c.16-.03.27-.07.32-.11.1-.09.21-.28.33-.56l1.37-3.2h.1l1.36,3.24c.11.26.21.43.3.51.09.08.21.12.37.13v.11h-1.54v-.11c.16,0,.26-.03.31-.08s.08-.1.08-.16c0-.08-.04-.22-.12-.4l-.24-.56ZM135,152.2l-.66-1.57-.68,1.57h1.34Z"/>
    <path class="st4" d="M136.56,149.82h1.06l2.38,2.92v-2.25c0-.24-.03-.39-.08-.45-.07-.08-.18-.12-.34-.12h-.13v-.11h1.36v.11h-.14c-.16,0-.28.05-.35.15-.04.06-.06.2-.06.42v3.28h-.1l-2.57-3.14v2.4c0,.24.03.39.08.45.07.08.18.12.34.12h.14v.11h-1.36v-.11h.13c.17,0,.28-.05.35-.15.04-.06.06-.2.06-.42v-2.71c-.11-.13-.2-.22-.26-.26-.06-.04-.14-.08-.26-.12-.06-.02-.14-.03-.25-.03v-.11Z"/>
    <path class="st4" d="M58.96,157.15l.1,1.48h-.1c-.13-.44-.32-.76-.57-.96-.25-.19-.54-.29-.88-.29-.29,0-.55.07-.78.22s-.42.38-.55.7c-.13.32-.2.72-.2,1.2,0,.39.06.73.19,1.02.13.29.32.51.57.66.25.15.54.23.87.23.28,0,.53-.06.75-.18.22-.12.45-.36.71-.72l.1.06c-.22.39-.47.67-.76.85s-.64.27-1.04.27c-.72,0-1.28-.27-1.67-.8-.29-.4-.44-.87-.44-1.4,0-.43.1-.83.29-1.2.19-.36.46-.65.8-.84.34-.2.71-.3,1.12-.3.31,0,.62.08.93.23.09.05.15.07.19.07.06,0,.11-.02.15-.06.06-.06.1-.14.12-.24h.11Z"/>
    <path class="st4" d="M62.39,160.14h-1.68l-.29.69c-.07.17-.11.29-.11.38,0,.07.03.12.09.17.06.05.2.08.41.1v.12h-1.37v-.12c.18-.03.3-.07.35-.12.11-.1.23-.31.36-.63l1.53-3.58h.11l1.51,3.62c.12.29.23.48.33.57.1.09.24.14.42.15v.12h-1.72v-.12c.17,0,.29-.04.35-.09s.09-.11.09-.18c0-.09-.04-.24-.13-.45l-.26-.62ZM62.3,159.9l-.74-1.76-.76,1.76h1.49Z"/>
    <path class="st4" d="M68.56,161.6h-1.16l-1.47-2.03c-.11,0-.2,0-.27,0-.03,0-.06,0-.09,0-.03,0-.07,0-.1,0v1.26c0,.27.03.44.09.51.08.09.2.14.37.14h.17v.12h-1.86v-.12h.16c.18,0,.31-.06.39-.18.04-.07.07-.22.07-.47v-2.81c0-.27-.03-.44-.09-.51-.08-.09-.21-.14-.37-.14h-.16v-.12h1.58c.46,0,.8.03,1.02.1.22.07.41.19.56.37s.23.4.23.65c0,.27-.09.5-.26.7-.17.2-.44.33-.81.42l.9,1.25c.21.29.38.48.53.57.15.09.34.15.58.18v.12ZM65.47,159.36s.08,0,.11,0c.03,0,.05,0,.07,0,.41,0,.73-.09.94-.27.21-.18.32-.41.32-.69s-.08-.49-.25-.66-.4-.25-.67-.25c-.12,0-.29.02-.5.06v1.81Z"/>
    <path class="st4" d="M68.61,161.6v-.12h.16c.18,0,.31-.06.39-.18.05-.07.07-.23.07-.47v-2.81c0-.27-.03-.44-.09-.51-.08-.09-.21-.14-.37-.14h-.16v-.12h1.77c.65,0,1.14.07,1.48.22.34.15.61.39.82.74s.31.74.31,1.19c0,.61-.18,1.11-.55,1.52-.41.45-1.04.68-1.88.68h-1.94ZM69.86,161.28c.27.06.5.09.68.09.5,0,.91-.17,1.23-.52s.49-.82.49-1.42-.16-1.07-.49-1.42c-.33-.35-.75-.52-1.26-.52-.19,0-.41.03-.66.09v3.7Z"/>
    <path class="st4" d="M75.27,161.48v.12h-1.86v-.12h.15c.18,0,.31-.05.39-.16.05-.07.08-.23.08-.49v-2.81c0-.22-.01-.37-.04-.44-.02-.05-.06-.1-.13-.14-.09-.05-.19-.08-.29-.08h-.15v-.12h1.86v.12h-.16c-.18,0-.31.05-.39.16-.05.07-.08.23-.08.49v2.81c0,.22.01.37.04.44.02.05.07.1.13.14.09.05.19.08.29.08h.16Z"/>
    <path class="st4" d="M77.83,157.15c.56,0,1.05.21,1.47.64s.62.96.62,1.6-.21,1.21-.62,1.64c-.42.44-.92.65-1.51.65s-1.1-.21-1.51-.64c-.41-.42-.61-.98-.61-1.65s.23-1.25.71-1.69c.41-.38.9-.57,1.47-.57ZM77.77,157.38c-.39,0-.7.14-.94.43-.29.36-.44.89-.44,1.58s.15,1.25.46,1.64c.23.29.54.44.92.44.41,0,.75-.16,1.01-.48.27-.32.4-.82.4-1.51,0-.74-.15-1.3-.44-1.66-.24-.29-.56-.44-.97-.44Z"/>
    <path class="st4" d="M84.83,157.25v.12c-.15.03-.27.08-.35.15-.11.1-.21.26-.3.48l-1.52,3.7h-.12l-1.63-3.75c-.08-.19-.14-.31-.18-.35-.05-.07-.12-.12-.2-.16-.08-.04-.18-.06-.32-.07v-.12h1.78v.12c-.2.02-.33.05-.39.1-.06.05-.09.11-.09.19,0,.11.05.27.15.5l1.11,2.55,1.03-2.52c.1-.25.15-.42.15-.52,0-.06-.03-.12-.09-.18s-.17-.1-.31-.12c-.01,0-.03,0-.05,0v-.12h1.34Z"/>
    <path class="st4" d="M87.07,160.14h-1.68l-.29.69c-.07.17-.11.29-.11.38,0,.07.03.12.09.17.06.05.2.08.41.1v.12h-1.37v-.12c.18-.03.3-.07.35-.12.11-.1.23-.31.36-.63l1.53-3.58h.11l1.51,3.62c.12.29.23.48.33.57.1.09.24.14.42.15v.12h-1.72v-.12c.17,0,.29-.04.35-.09s.09-.11.09-.18c0-.09-.04-.24-.13-.45l-.26-.62ZM86.98,159.9l-.74-1.76-.76,1.76h1.49Z"/>
    <path class="st4" d="M91.82,157.15v1.5h-.12c-.04-.29-.11-.52-.21-.69-.1-.17-.24-.31-.42-.41-.18-.1-.37-.15-.57-.15-.22,0-.41.07-.55.2-.15.14-.22.29-.22.46,0,.13.05.25.14.36.13.16.45.37.95.64.41.22.68.38.83.5.15.12.26.25.34.41s.12.32.12.5c0,.33-.13.61-.38.85-.26.24-.58.36-.99.36-.13,0-.25,0-.36-.03-.07-.01-.2-.05-.41-.12s-.34-.1-.4-.1-.1.02-.13.05c-.03.03-.05.1-.07.2h-.12v-1.49h.12c.06.31.13.55.22.7.09.15.24.28.43.39.19.1.41.15.64.15.27,0,.48-.07.63-.21.16-.14.23-.31.23-.5,0-.11-.03-.21-.09-.32-.06-.11-.15-.21-.27-.3-.08-.06-.31-.2-.68-.41-.37-.21-.64-.38-.79-.5s-.28-.26-.36-.41-.12-.31-.12-.49c0-.31.12-.58.36-.81s.54-.34.91-.34c.23,0,.48.06.73.17.12.05.2.08.25.08.06,0,.1-.02.14-.05.04-.03.06-.1.08-.2h.12Z"/>
    <path class="st4" d="M96.41,157.15l.1,1.48h-.1c-.13-.44-.32-.76-.57-.96-.25-.19-.54-.29-.88-.29-.29,0-.55.07-.78.22s-.42.38-.55.7c-.13.32-.2.72-.2,1.2,0,.39.06.73.19,1.02.13.29.32.51.57.66.25.15.54.23.87.23.28,0,.53-.06.75-.18.22-.12.45-.36.71-.72l.1.06c-.22.39-.47.67-.76.85s-.64.27-1.04.27c-.72,0-1.28-.27-1.67-.8-.29-.4-.44-.87-.44-1.4,0-.43.1-.83.29-1.2.19-.36.46-.65.8-.84.34-.2.71-.3,1.12-.3.31,0,.62.08.93.23.09.05.15.07.19.07.06,0,.11-.02.15-.06.06-.06.1-.14.12-.24h.11Z"/>
    <path class="st4" d="M99.97,157.37v-.12h1.54v.12h-.16c-.17,0-.3.07-.39.21-.04.07-.07.22-.07.46v1.76c0,.44-.04.77-.13,1.01s-.26.45-.51.62-.6.26-1.03.26c-.47,0-.83-.08-1.08-.25-.25-.16-.42-.39-.52-.66-.07-.19-.1-.55-.1-1.07v-1.7c0-.27-.04-.44-.11-.53-.07-.08-.19-.12-.36-.12h-.16v-.12h1.88v.12h-.17c-.18,0-.31.06-.38.17-.05.08-.08.24-.08.48v1.89c0,.17.02.36.05.58.03.22.09.39.17.51.08.12.2.22.35.3.15.08.34.12.56.12.28,0,.54-.06.76-.19s.38-.28.46-.48.12-.52.12-.98v-1.76c0-.27-.03-.44-.09-.51-.08-.09-.21-.14-.37-.14h-.16Z"/>
    <path class="st4" d="M105.35,160.39l.11.02-.37,1.18h-3.37v-.12h.16c.18,0,.32-.06.39-.18.04-.07.07-.23.07-.47v-2.81c0-.27-.03-.44-.09-.51-.08-.09-.21-.14-.37-.14h-.16v-.12h1.97v.12c-.23,0-.39.02-.49.06-.09.04-.16.1-.19.17s-.05.23-.05.49v2.73c0,.18.02.3.05.37.03.04.06.08.12.1s.22.03.5.03h.32c.33,0,.57-.02.7-.07.13-.05.26-.14.37-.26.11-.12.22-.32.33-.59Z"/>
    <path class="st4" d="M108.6,160.14h-1.68l-.29.69c-.07.17-.11.29-.11.38,0,.07.03.12.09.17.06.05.2.08.41.1v.12h-1.37v-.12c.18-.03.3-.07.35-.12.11-.1.23-.31.36-.63l1.53-3.58h.11l1.51,3.62c.12.29.23.48.33.57.1.09.24.14.42.15v.12h-1.71v-.12c.17,0,.29-.04.35-.09s.09-.11.09-.18c0-.09-.04-.24-.13-.45l-.26-.62ZM108.51,159.9l-.74-1.76-.76,1.76h1.49Z"/>
    <path class="st4" d="M114.77,161.6h-1.16l-1.47-2.03c-.11,0-.2,0-.27,0-.03,0-.06,0-.09,0-.03,0-.07,0-.1,0v1.26c0,.27.03.44.09.51.08.09.2.14.37.14h.17v.12h-1.86v-.12h.16c.18,0,.32-.06.39-.18.04-.07.07-.22.07-.47v-2.81c0-.27-.03-.44-.09-.51-.08-.09-.21-.14-.37-.14h-.16v-.12h1.58c.46,0,.8.03,1.02.1.22.07.41.19.56.37.15.18.23.4.23.65,0,.27-.09.5-.26.7-.17.2-.44.33-.81.42l.9,1.25c.21.29.38.48.53.57.15.09.34.15.58.18v.12ZM111.68,159.36s.08,0,.11,0c.03,0,.05,0,.07,0,.42,0,.73-.09.94-.27.21-.18.32-.41.32-.69s-.08-.49-.25-.66-.4-.25-.67-.25c-.12,0-.29.02-.5.06v1.81Z"/>
    <path class="st4" d="M119.37,157.15v1.5h-.12c-.04-.29-.11-.52-.21-.69-.1-.17-.24-.31-.42-.41-.18-.1-.37-.15-.57-.15-.22,0-.41.07-.55.2-.14.14-.22.29-.22.46,0,.13.05.25.14.36.13.16.45.37.95.64.41.22.68.38.83.5.15.12.26.25.34.41s.12.32.12.5c0,.33-.13.61-.38.85-.26.24-.58.36-.99.36-.13,0-.24,0-.36-.03-.07-.01-.2-.05-.41-.12s-.34-.1-.4-.1-.1.02-.13.05-.05.1-.07.2h-.12v-1.49h.12c.06.31.13.55.22.7.09.15.24.28.43.39s.41.15.64.15c.27,0,.48-.07.63-.21.15-.14.23-.31.23-.5,0-.11-.03-.21-.09-.32-.06-.11-.15-.21-.27-.3-.08-.06-.31-.2-.68-.41-.37-.21-.64-.38-.79-.5s-.28-.26-.36-.41-.12-.31-.12-.49c0-.31.12-.58.36-.81s.54-.34.91-.34c.23,0,.47.06.73.17.12.05.2.08.25.08.06,0,.1-.02.14-.05s.06-.1.08-.2h.12Z"/>
    <path class="st4" d="M123.14,157.37v-.12h1.54v.12h-.16c-.17,0-.3.07-.39.21-.04.07-.07.22-.07.46v1.76c0,.44-.04.77-.13,1.01s-.26.45-.51.62-.6.26-1.03.26c-.47,0-.83-.08-1.08-.25-.25-.16-.42-.39-.52-.66-.07-.19-.1-.55-.1-1.07v-1.7c0-.27-.04-.44-.11-.53-.07-.08-.19-.12-.36-.12h-.16v-.12h1.88v.12h-.17c-.18,0-.31.06-.38.17-.05.08-.08.24-.08.48v1.89c0,.17.02.36.05.58.03.22.09.39.17.51.08.12.2.22.35.3.15.08.34.12.56.12.28,0,.54-.06.76-.19s.38-.28.46-.48.12-.52.12-.98v-1.76c0-.27-.03-.44-.09-.51-.08-.09-.21-.14-.37-.14h-.16Z"/>
    <path class="st4" d="M129.19,161.6h-1.16l-1.47-2.03c-.11,0-.2,0-.27,0-.03,0-.06,0-.09,0-.03,0-.07,0-.1,0v1.26c0,.27.03.44.09.51.08.09.2.14.37.14h.17v.12h-1.86v-.12h.16c.18,0,.32-.06.39-.18.04-.07.07-.22.07-.47v-2.81c0-.27-.03-.44-.09-.51-.08-.09-.21-.14-.37-.14h-.16v-.12h1.58c.46,0,.8.03,1.02.1.22.07.41.19.56.37.15.18.23.4.23.65,0,.27-.09.5-.26.7-.17.2-.44.33-.81.42l.9,1.25c.21.29.38.48.53.57.15.09.34.15.58.18v.12ZM126.1,159.36s.08,0,.11,0c.03,0,.05,0,.07,0,.42,0,.73-.09.94-.27.21-.18.32-.41.32-.69s-.08-.49-.25-.66-.4-.25-.67-.25c-.12,0-.29.02-.5.06v1.81Z"/>
    <path class="st4" d="M133.16,157.15l.11,1.37h-.11c-.11-.34-.26-.6-.44-.77-.26-.25-.59-.38-1-.38-.55,0-.97.22-1.26.66-.24.37-.36.81-.36,1.32,0,.42.08.79.24,1.13s.37.59.63.75.53.24.8.24c.16,0,.32-.02.46-.06.15-.04.29-.1.43-.18v-1.26c0-.22-.02-.36-.05-.43s-.08-.12-.15-.15c-.07-.04-.19-.05-.37-.05v-.12h1.68v.12h-.08c-.17,0-.28.06-.34.17-.04.08-.06.24-.06.47v1.33c-.25.13-.49.23-.73.29-.24.06-.51.09-.8.09-.84,0-1.48-.27-1.91-.81-.33-.4-.49-.87-.49-1.4,0-.38.09-.75.28-1.1.22-.42.52-.74.9-.96.32-.19.69-.28,1.13-.28.16,0,.3.01.43.04s.31.08.55.17c.12.04.2.07.24.07s.08-.02.1-.06c.03-.04.05-.11.05-.22h.12Z"/>
    <path class="st4" d="M135.24,157.49v1.72h.96c.25,0,.41-.04.5-.11.11-.1.17-.27.19-.52h.12v1.51h-.12c-.03-.21-.06-.35-.09-.41-.04-.08-.1-.13-.19-.18-.09-.04-.22-.06-.4-.06h-.96v1.43c0,.19,0,.31.03.35.02.04.05.07.09.1s.12.04.24.04h.74c.25,0,.42-.02.54-.05s.22-.1.32-.2c.13-.13.27-.33.41-.6h.13l-.38,1.09h-3.35v-.12h.15c.1,0,.2-.03.29-.07.07-.03.12-.08.14-.15.02-.07.04-.21.04-.42v-2.82c0-.28-.03-.45-.08-.51-.08-.08-.21-.13-.38-.13h-.15v-.12h3.35l.05.95h-.12c-.04-.23-.09-.39-.15-.47-.05-.09-.13-.15-.24-.2-.08-.03-.24-.05-.45-.05h-1.19Z"/>
    <path class="st4" d="M142.32,161.6h-1.16l-1.47-2.03c-.11,0-.2,0-.27,0-.03,0-.06,0-.09,0-.03,0-.07,0-.1,0v1.26c0,.27.03.44.09.51.08.09.2.14.37.14h.17v.12h-1.86v-.12h.16c.18,0,.32-.06.39-.18.04-.07.07-.22.07-.47v-2.81c0-.27-.03-.44-.09-.51-.08-.09-.21-.14-.37-.14h-.16v-.12h1.58c.46,0,.8.03,1.02.1.22.07.41.19.56.37.15.18.23.4.23.65,0,.27-.09.5-.26.7-.17.2-.44.33-.81.42l.9,1.25c.21.29.38.48.53.57.15.09.34.15.58.18v.12ZM139.23,159.36s.08,0,.11,0c.03,0,.05,0,.07,0,.42,0,.73-.09.94-.27.21-.18.32-.41.32-.69s-.08-.49-.25-.66-.4-.25-.67-.25c-.12,0-.29.02-.5.06v1.81Z"/>
    <path class="st4" d="M145.03,157.25h1.52v.12h-.08c-.06,0-.14.02-.24.07-.11.05-.2.12-.29.21-.09.09-.2.24-.32.45l-1.05,1.65v1.09c0,.27.03.43.09.5.08.09.21.13.38.13h.14v.12h-1.85v-.12h.15c.18,0,.31-.06.39-.17.05-.07.07-.22.07-.47v-1.03l-1.19-1.82c-.14-.21-.24-.35-.29-.4-.05-.05-.15-.12-.31-.19-.04-.02-.1-.03-.19-.03v-.12h1.86v.12h-.1c-.1,0-.19.02-.28.07s-.13.12-.13.21c0,.08.07.22.2.42l.91,1.4.85-1.34c.13-.2.19-.35.19-.45,0-.06-.02-.11-.05-.16s-.08-.08-.13-.11-.14-.04-.26-.04v-.12Z"/>
  </g>
  <path class="st3" d="M100.94,197.38c-12.62.05-23.63-2.32-34.33-6.36-8.63-3.26-16.57-7.77-23.81-13.47-6.53-5.14-12.19-11.13-17.15-17.79-5.57-7.47-10.11-15.52-13.51-24.2-2.15-5.5-3.71-11.17-4.77-16.98-2.91-15.82-2.06-31.45,2.43-46.89,1.7-5.83,3.94-11.44,6.65-16.87,3.85-7.73,8.81-14.66,14.57-21.07,4.05-4.5,8.48-8.58,13.28-12.23,8.74-6.64,18.35-11.67,28.86-14.9,11.17-3.43,22.6-4.68,34.25-3.68,9.64.83,18.9,3.19,27.81,6.98,6.75,2.87,13.09,6.47,19.03,10.79,5.26,3.82,9.99,8.2,14.43,12.94,5.06,5.41,9.33,11.38,13,17.8,4.46,7.8,7.66,16.09,9.78,24.83,2.26,9.32,3.19,18.75,2.8,28.31-.26,6.4-1.14,12.72-2.64,18.96-1.35,5.58-3.1,11.02-5.39,16.27-2.13,4.89-4.63,9.6-7.54,14.08-5.03,7.75-11,14.69-18.05,20.67-3.9,3.31-8.07,6.25-12.43,8.92-8.57,5.24-17.72,9.04-27.5,11.35-6.87,1.62-13.81,2.66-19.75,2.53ZM130.46,172.08c.33-.05.53-.05.71-.1,6.2-1.81,12.21-4.12,18.06-6.84.39-.18.76-.49,1.03-.82,5.04-6.01,9.34-12.5,12.86-19.53,3.64-7.27,6.48-14.82,8.23-22.76,1.64-7.47,2.47-15.03,2.39-22.69,0-.68-.26-.85-.9-.85-3.8.04-7.59.02-11.39.09-.89.02-1.49-.27-1.98-.97-.5-.72-1.03-1.43-1.66-2.29-.46.71-.87,1.27-1.21,1.86-.48.84-1.15,1.38-2.13,1.39-.76,0-.97.41-1.09,1.07-.64,3.54-1.3,7.08-1.97,10.62-.11.57-.06,1.42-.89,1.39-.84-.03-.81-.87-.89-1.49-.87-6.92-1.72-13.85-2.58-20.78-.19-1.51-.4-3.03-.6-4.54-.22.23-.28.46-.32.7-.55,3.47-1.11,6.95-1.65,10.42-.29,1.88-.55,3.76-.87,5.63-.06.32-.34.74-.62.85-.19.07-.6-.28-.83-.51-.21-.21-.34-.51-.48-.78-.89-1.64-1.77-3.29-2.67-4.93-.16-.3-.39-.56-.66-.94-.44.83-.83,1.51-1.17,2.21-.36.74-.9,1.05-1.73,1.06-7.55.04-15.09.11-22.64.15-3.13.01-6.25-.04-9.38-.06-.44,0-.88,0-1.31,0-.19-1.39.04-1.68,1.24-1.64.11,0,.22,0,.34,0,4.93-.02,9.86-.04,14.79-.05,1.8,0,3.61,0,5.41.01,3.63,0,7.26,0,10.89,0,.58,0,.94-.24,1.19-.74.57-1.15,1.14-2.3,1.74-3.44.14-.27.43-.46.65-.69.22.24.5.44.65.71.99,1.78,1.94,3.58,2.92,5.37.08.15.23.27.43.5.1-.54.19-.95.26-1.36,1.03-6.62,2.05-13.24,3.11-19.85.06-.37.39-.92.67-.98.59-.12.73.46.8.95.24,1.8.48,3.6.7,5.4.71,5.71,1.42,11.41,2.13,17.12.17,1.34.34,2.67.51,4.01.25-.21.33-.41.37-.61.36-1.72.72-3.44,1.07-5.16.23-1.14.32-1.24,1.49-1.18.89.05,1.54-.2,2-1.04.46-.83,1.04-1.58,1.58-2.36.59-.86.82-.86,1.44.02.63.89,1.26,1.78,1.86,2.69.3.46.67.67,1.24.67,3.69-.02,7.37-.04,11.06,0,.86.01,1.08-.38,1.05-1.08-.04-1.03-.09-2.05-.17-3.07-.1-1.35-.11-2.72-.37-4.05-.67-3.49-1.41-6.97-2.18-10.44-1.87-8.42-5.06-16.34-9.31-23.84-.4-.71-.73-.87-1.49-.46-3.37,1.82-6.87,3.34-10.57,4.35-.42.11-.9-.04-1.36-.07.38-.27.72-.63,1.14-.81,3.32-1.46,6.65-2.87,9.97-4.32.42-.18.78-.49,1.21-.76-2.17-3.76-4.44-7.3-7.03-10.63-2.06-2.64-4.1-5.3-6.35-7.77-2.48-2.72-5.17-5.24-7.81-7.81-.46-.44-1.1-.84-1.71-.95-4.53-.78-9.08-1.48-13.63-2.21-.09-.01-.19.04-.37.08.67,1.07,1.34,2.06,1.94,3.09.84,1.44,1.66,2.91,2.44,4.39.14.26.02.65.02.97-.31-.16-.68-.26-.93-.49-.24-.22-.35-.56-.52-.85-1.33-2.16-2.66-4.32-3.99-6.48-.38-.62-.93-.91-1.65-.97-2.22-.2-4.44-.43-6.67-.64-.15-.01-.3.04-.42.06.69,1.95,1.39,3.83,2.01,5.73.11.35-.08.8-.14,1.2-.32-.29-.64-.57-.95-.87-.04-.03-.04-.1-.06-.16-.62-1.7-1.28-3.39-1.85-5.11-.24-.7-.64-.94-1.34-.97-3.45-.13-6.9-.32-10.35-.45-1.1-.04-2.21,0-3.37,0-.02.41-.04.71-.04,1.01,0,1.76,0,3.52-.01,5.28,0,.91-.25,1.06-1.34.69,0-1.99-.02-4.05.01-6.1.01-.68-.19-.94-.9-.91-2.09.09-4.18.1-6.26.2-2.28.11-4.56.3-6.85.42-.66.03-1,.33-1.21.93-.66,1.89-1.35,3.76-2.03,5.64-.16.45-.29,1.04-.9.8-.18-.07-.25-.79-.15-1.16.31-1.13.71-2.23,1.1-3.34.29-.83.6-1.66.92-2.55-.26-.04-.42-.1-.57-.08-2.28.24-4.55.46-6.82.76-.32.04-.71.35-.89.65-1.33,2.22-2.62,4.47-3.93,6.7-.26.44-.49,1.17-1.11.88-.68-.31-.2-.97.01-1.38.72-1.42,1.5-2.8,2.29-4.19.45-.78.95-1.53,1.48-2.38-.34,0-.54-.03-.72,0-2.53.42-5.07.8-7.59,1.3-.67.13-1.37.5-1.88.96-7.09,6.38-13.26,13.56-18.34,21.65-1.17,1.86-2.29,3.75-3.47,5.69.37.21.63.37.9.5,1.57.72,3.16,1.41,4.72,2.15.29.14.49.49.73.75-.34.07-.69.15-1.04.2-.07.01-.16-.03-.24-.07-1.56-.68-3.14-1.3-4.67-2.06-.71-.35-1.08-.33-1.42.42-1.65,3.6-3.44,7.14-4.96,10.79-2.12,5.08-3.63,10.37-4.67,15.79-.92,4.78-1.56,9.59-1.79,14.45-.06,1.16-.09,1.16,1.06,1.16,5.58.02,11.17.05,16.75.07.36,0,.75-.07,1.08.05.29.1.51.42.76.64-.27.2-.52.42-.8.58-.13.07-.33.01-.5.01-5.84-.02-11.67-.02-17.51-.06-.77,0-1.02.22-1.01.99.01,4.64.18,9.26.77,13.87,1.26,9.85,3.88,19.29,8.01,28.32,3.47,7.58,7.88,14.57,13.07,21.08.89,1.12,1.87,2.03,3.23,2.56,4.81,1.87,9.6,3.78,14.4,5.66.53.21,1.1.31,1.78.49-.13-.37-.25-.57-.26-.78-.02-.27.03-.55.06-.82.26.14.57.25.78.44.17.16.26.43.33.67.21.73.72,1.06,1.43,1.23,3.4.79,6.79,1.6,10.18,2.4.36.08.74.09,1.22.14-.17-.59-.34-1.03-.41-1.49-.03-.17.12-.53.22-.54.2-.02.53.08.61.23.21.38.37.81.47,1.25.13.62.47.86,1.09.93,1.28.14,2.54.44,3.81.54,3.67.3,7.34.53,11.02.8.62.05.88-.17.82-.8-.04-.44-.06-.9.02-1.33.04-.21.32-.38.49-.56.18.18.48.34.52.54.09.43.06.89.03,1.33-.04.59.14.87.8.83,4.43-.29,8.85-.58,13.28-.81,1.49-.08,2.55-.51,2.79-2.17.03-.23.47-.39.73-.59.05.3.17.6.13.89-.05.44-.21.87-.36,1.42.6-.09,1.02-.13,1.42-.22,2.81-.59,5.61-1.25,8.44-1.78,1.42-.27,2.55-.78,3.01-2.25.03-.1.09-.23.18-.27.18-.1.38-.16.57-.23.06.22.2.45.16.64-.07.32-.26.61-.46,1.04ZM152.24,163.83c3.37-1.67,6.66-2.92,9.1-5.94,4.55-5.62,8.68-11.48,11.96-17.92,4.28-8.39,7.13-17.25,8.5-26.58.67-4.6.93-9.21.95-13.85,0-.84-.26-1.1-1.11-1.07-1.87.06-3.74.02-5.61,0-1.08,0-1.08,0-1.07,1.05.09,9.41-1.09,18.65-3.65,27.71-1.43,5.08-3.28,10.01-5.53,14.79-2.37,5.04-4.98,9.93-8.18,14.48-1.7,2.41-3.48,4.76-5.36,7.32ZM46.6,163c-2.5-3.65-5.13-7.26-7.51-11.02-4.51-7.11-7.84-14.77-10.22-22.84-2.84-9.62-4.12-19.47-3.99-29.5.01-1.15.02-1.15-1.16-1.15-1.87,0-3.74.02-5.61-.02-.68-.01-.96.19-.92.9.24,4.26.3,8.54.73,12.78.75,7.34,2.7,14.41,5.46,21.25,3.2,7.92,7.62,15.12,12.97,21.78,2.31,2.87,4.77,5.44,8.25,6.85.74.3,1.43.69,2.01.98ZM162.37,158.44s.07.07.1.11c.16-.09.34-.16.49-.26,2.84-2.02,5.76-3.93,8.48-6.1,3.4-2.71,6.51-5.67,8.57-9.69,3.97-7.76,6.9-15.84,8.46-24.41,1.12-6.15,1.47-12.35,1.52-18.58,0-.75-.21-1.05-1-1.02-1.42.05-2.85.05-4.27,0-.68-.02-.86.22-.84.87.21,5.01-.28,9.99-1.02,14.93-1.02,6.81-2.9,13.4-5.54,19.77-3.21,7.76-7.41,14.93-12.63,21.5-.77.97-1.55,1.93-2.32,2.89ZM167.68,49.72c.09.14.27.44.47.74,4.51,6.8,8.17,14.02,10.8,21.75,2.63,7.73,4.15,15.69,4.72,23.82.06.79.33.98,1.05.96,1.45-.05,2.9-.04,4.35,0,.66.01.83-.17.8-.86-.35-7.14-1.41-14.17-3.53-20.99-1.35-4.33-2.99-8.58-4.72-12.78-2.37-5.74-5.54-11.07-9.01-16.21-.27-.4-.6-.75-.81-1.01-1.37,1.53-2.69,2.99-4.12,4.59ZM36.45,157.49c.06-.07.13-.15.19-.22-.24-.3-.47-.61-.72-.91-5.14-6.1-9.35-12.77-12.57-20.07-3.01-6.83-5.17-13.91-6.31-21.29-.79-5.14-1.12-10.32-1.05-15.52,0-.71-.16-1.01-.93-.97-1.34.06-2.68.03-4.02.02-1.11,0-1.12-.01-1.11,1.08.07,5.14.4,10.26,1.2,15.35,1.51,9.57,4.38,18.68,9.04,27.19,1.06,1.93,2,3.96,3.68,5.46,2.14,1.91,4.28,3.83,6.53,5.61,1.94,1.53,4.04,2.86,6.06,4.28ZM21.12,97.12s0,.02,0,.03c1,0,2.01-.02,3.01,0,.62.02.85-.16.91-.84.42-4.19.73-8.4,1.4-12.55,1.68-10.42,5.28-20.2,10.27-29.49.3-.56.22-.82-.31-1.12-1.05-.59-2.1-1.17-3.07-1.87-.67-.48-1.03-.43-1.42.29-1.74,3.15-3.58,6.24-5.25,9.42-2.76,5.28-4.81,10.86-6.35,16.61-1.64,6.14-2.49,12.41-2.95,18.74-.04.54.08.78.66.76,1.03-.02,2.06,0,3.1,0ZM182.63,96.9c-.12-1.3-.25-2.54-.36-3.79-.72-7.97-2.57-15.69-5.36-23.17-2.51-6.74-5.88-13.06-9.85-19.05-.26-.4-.49-.56-.93-.28-1.16.72-2.35,1.4-3.5,2.14-.15.1-.23.45-.19.66.04.26.23.5.37.74,2.99,5.22,5.47,10.68,7.3,16.41,2.66,8.33,4.29,16.86,4.68,25.61.03.61.22.83.83.82,2.07-.03,4.13-.01,6.2-.02.24,0,.49-.05.82-.08ZM27.05,46.12c-.1.12-.2.22-.28.33-4.16,6.15-7.59,12.68-10.3,19.59-2.34,5.97-4.09,12.11-5.1,18.43-.62,3.9-.88,7.87-1.3,11.8-.07.62.11.93.81.91,1.53-.04,3.07-.03,4.6-.02.52,0,.72-.19.78-.72.38-3.66.64-7.34,1.22-10.97,1.58-9.96,4.93-19.32,9.77-28.15,1.23-2.25,2.59-4.43,3.86-6.65.13-.23.16-.72.02-.85-1.31-1.24-2.68-2.43-4.09-3.69ZM30.6,38.61c.05.05.1.1.16.15,2.52-2.53,5.03-5.07,7.55-7.6,3.73-3.76,7.8-7.1,12.27-9.94,5.93-3.77,12.16-6.93,18.74-9.41,4.53-1.7,9.2-2.89,13.94-3.86,3.81-.78,7.64-1.29,11.53-1.48,7.77-.39,15.45.28,23.06,1.81,6.08,1.23,11.99,3.04,17.71,5.49,4.14,1.78,8.13,3.83,11.95,6.19,6.23,3.84,11.74,8.61,16.98,13.69.19.18.39.35.58.52-.05-.22-.17-.37-.29-.51-4.48-4.94-9.45-9.33-14.95-13.1-3.26-2.24-6.64-4.29-10.17-6.11-3.93-2.02-7.94-3.82-12.1-5.3-8.25-2.92-16.79-4.39-25.52-4.61-9.19-.23-18.24.81-27,3.68-3.99,1.3-7.91,2.91-11.72,4.68-3.45,1.6-6.81,3.47-10.04,5.48-4.87,3.02-9.33,6.61-13.64,10.38-3.37,2.95-6.44,6.18-9.03,9.84ZM174.38,151c-.08,0-.12-.01-.13,0-3.87,3.99-8.39,7.06-13.27,9.67-.75.4-1.42.98-2.05,1.55-3.22,2.92-6.22,6.13-9.68,8.73-5.63,4.24-11.54,8.12-17.37,12.08-2.5,1.7-5.12,3.23-7.72,4.86,12.06-4.1,23.19-9.8,32.94-18.03,6.56-5.54,12.53-11.63,17.29-18.86ZM73.63,186.92c-.13-.14-.16-.19-.21-.22-7.77-4.95-15.43-10.04-22.74-15.64-3.66-2.8-7.07-5.89-10.15-9.33-.6-.68-1.31-1.29-2.06-1.79-2.8-1.89-5.65-3.68-8.43-5.59-1.24-.85-2.36-1.89-3.6-2.9,13.33,18.63,32.37,30.28,47.19,35.48ZM82.75,176.18c-.03.23-.06.3-.04.34,1.3,3.7,3.01,7.2,5.25,10.43.19.28.62.51.97.55,2.91.32,5.83.58,8.74.89.75.08,1.03-.15,1.02-.95-.04-2.9,0-5.81,0-8.71,0-1.08,0-1.03-1.12-1.12-4.36-.37-8.72-.77-13.08-1.17-.57-.05-1.14-.16-1.75-.26ZM115.55,176.66c-.45,0-.61,0-.77,0-4.78.33-9.56.67-14.34.98-.6.04-.66.33-.66.81,0,3.04.01,6.08-.02,9.12,0,.67.2.89.85.84,2.8-.24,5.61-.42,8.41-.71.45-.05.99-.42,1.24-.81.83-1.25,1.63-2.54,2.31-3.88,1.02-2.03,1.94-4.12,2.98-6.35ZM58.66,25.62c-2.57.63-5.03.95-7.13,2.88-6.39,5.85-12.08,12.28-17.05,19.37-.43.61-.81,1.24-1.27,1.96,1.25.79,2.44,1.51,3.59,2.29.64.43,1,.31,1.38-.36,2.68-4.74,5.6-9.33,9.08-13.53,2.45-2.96,5.05-5.8,7.62-8.67,1.19-1.32,2.46-2.56,3.79-3.93ZM32.28,49.09c5.3-8.02,11.42-15.16,18.63-21.5-.23,0-.31-.02-.39,0-3.2,1.15-6.4,2.29-9.58,3.49-.69.26-1.42.59-1.95,1.09-1.77,1.68-3.53,3.39-5.17,5.21-1.92,2.13-3.72,4.38-5.56,6.58-.29.35-.55.69-.19,1.18,1.13,1.54,2.53,2.8,4.21,3.95ZM166.82,48.37c.18-.09.32-.14.42-.22,1.47-1.1,2.64-2.49,3.52-4.09.16-.29.02-.92-.2-1.24-2.3-3.31-5.06-6.23-7.98-8.99-.81-.77-1.72-1.54-2.73-1.97-2.84-1.21-5.76-2.25-8.66-3.33-.81-.3-1.65-.5-2.48-.75,6.89,6.15,12.93,12.97,18.11,20.58ZM121.28,184.85s.05.09.08.13c.39-.12.78-.23,1.17-.37,1.54-.57,3.14-1.03,4.62-1.74,3.14-1.5,6.39-2.85,9.28-4.76,3.74-2.47,6.84-5.78,9.82-9.15.54-.61,1.08-1.21,1.63-1.81-.21-.09-.31-.08-.41-.04-5.55,2.43-11.16,4.66-17.03,6.2-.38.1-.78.45-.98.79-1.94,3.2-4.12,6.23-6.6,9.03-.51.58-1.04,1.14-1.55,1.7ZM141.06,26.05c8.14,7.63,15.03,16.2,20.67,25.95,1.36-.9,2.64-1.73,3.88-2.62.13-.09.12-.62-.02-.81-1.65-2.24-3.29-4.5-5.03-6.67-3.91-4.85-8.3-9.24-12.9-13.44-1.95-1.78-4.3-1.88-6.6-2.41ZM82.18,21.01c.38.03.51.05.65.05,4.29-.19,8.59-.38,12.88-.55.68-.03.83-.32.83-.93-.01-3.55-.02-7.09.02-10.64,0-.76-.35-.85-.93-.73-1.99.39-3.82,1.15-5.47,2.34-1.97,1.41-3.62,3.16-4.95,5.16-1.1,1.66-1.99,3.46-3.04,5.3ZM111.88,20.95c-.03-.24-.02-.3-.04-.34-.27-.52-.55-1.03-.82-1.55-1.7-3.24-3.75-6.2-6.64-8.51-1.65-1.32-3.46-2.27-5.59-2.54-.68-.09-.95.13-.95.85.03,3.6.03,7.2.01,10.8,0,.65.19.86.85.87,2.93.03,5.86.11,8.78.2,1.44.04,2.89.15,4.39.23ZM51.29,166.5c6.52,8.63,14.61,14.77,25.12,17.68-.2-.25-.33-.42-.48-.58-2.94-3.11-5.74-6.31-7.73-10.16-.18-.34-.62-.62-1.01-.77-3.91-1.49-7.83-2.93-11.74-4.42-1.37-.52-2.7-1.13-4.17-1.75ZM174.02,154.21c-.07-.04-.14-.08-.21-.12-.19.24-.38.47-.55.72-1.05,1.44-2.02,2.96-3.17,4.31-3.15,3.7-6.59,7.13-10.28,10.29-3.8,3.25-7.75,6.28-12.01,8.92-4.4,2.73-8.97,5.1-13.69,7.22-6.87,3.09-14.18,4.9-21.28,7.32-.74.25-1.51.43-2.26.64.02.09.04.17.06.26,1.84-.33,3.7-.6,5.52-1.01,3.24-.72,6.5-1.37,9.68-2.3,8.17-2.39,15.75-6.08,22.93-10.62,4.68-2.96,9.07-6.31,13.08-10.12,4.16-3.96,7.76-8.39,10.81-13.26.47-.74.9-1.5,1.35-2.26ZM136.51,23.86c-8.26-6.9-17.42-11.99-27.96-14.41.96.66,1.98,1.2,2.95,1.82,4.03,2.59,7.55,5.73,10.37,9.62.5.68,1.08,1,1.94,1.1,2.77.32,5.53.71,8.29,1.11,1.47.21,2.94.5,4.41.76ZM69.5,173.28c0,.15-.03.21-.01.25.12.22.24.44.37.65,1.92,3.16,4.26,5.98,6.77,8.69,1.28,1.38,2.6,2.67,4.59,2.99.85.14,1.68.41,2.52.61.88.2,1.76.37,2.88.61-.32-.56-.5-.9-.7-1.21-1.89-2.89-3.21-6.04-4.44-9.25-.12-.33-.57-.66-.93-.74-3.22-.77-6.46-1.49-9.69-2.23-.45-.1-.9-.24-1.36-.36ZM118.76,10.16c.44.16.88.33,1.33.49,4.69,1.66,9.18,3.76,13.47,6.29,4.26,2.51,8.31,5.32,12.12,8.48.39.32.9.54,1.39.71,2.62.86,5.26,1.67,7.88,2.54,1.1.36,2.16.82,3.25,1.23-5.57-5.02-11.73-9.14-18.4-12.49-6.68-3.35-13.68-5.8-21.03-7.25ZM111.41,187.27c.23.01.37.05.49.02,2.12-.46,4.25-.92,6.36-1.41.28-.07.56-.26.78-.46,3.48-3.15,6.24-6.89,8.77-10.8.08-.12.08-.28.14-.5-.22.03-.36.05-.49.07-3.38.69-6.77,1.37-10.14,2.11-.32.07-.7.45-.82.77-1.25,3.29-2.72,6.47-4.66,9.42-.15.22-.26.47-.43.79ZM26.35,153.56c1.21,3.34,9.79,13.28,15.49,18.28,6.08,5.33,12.77,9.7,20.02,13.26,6.44,3.16,20.64,7.81,22.74,7.25-2.35-.93-4.72-1.84-7.11-2.65-11.44-3.88-22.15-9.2-31.78-16.53-6.64-5.05-12.66-10.76-17.68-17.47-.54-.72-1.12-1.42-1.68-2.12ZM78.95,10.5c-13.48,3.2-25.26,9.74-36.08,18.22.23,0,.44-.05.64-.11,2.82-.87,5.65-1.72,8.47-2.62.67-.22,1.35-.52,1.92-.94,2.68-1.95,5.27-4.02,8-5.91,4.07-2.81,8.37-5.21,13-6.99,1.36-.52,2.7-1.1,4.05-1.65ZM104.56,9.22c.77.67,1.46,1.22,2.09,1.82,2.76,2.61,4.66,5.82,6.27,9.22.26.55.58.78,1.2.82,2.06.15,4.11.36,6.17.55.2.02.41-.02.66-.03-2.89-4.67-11.21-11.3-16.38-12.39ZM88.96,9.97c-6.48,2.22-11.28,6.59-15.56,11.97,2.54-.27,4.87-.49,7.19-.79.26-.03.54-.42.69-.7.71-1.33,1.31-2.71,2.06-4.02,1.44-2.52,3.39-4.61,5.62-6.47ZM83,11.53c-.04-.06-.08-.13-.12-.19-7.14,2.93-13.76,6.74-19.61,11.99.19.05.28.09.35.08,2.53-.4,5.07-.79,7.6-1.24.37-.06.77-.34,1.01-.63,2.35-2.96,4.88-5.74,7.95-7.98.94-.68,1.89-1.35,2.83-2.02ZM56.01,24.77c.03.08.06.16.08.24,1.55-.37,3.11-.74,4.66-1.12.15-.04.27-.19.4-.3,1.16-.96,2.32-1.92,3.48-2.88,4.28-3.53,8.98-6.4,14.03-8.72.23-.1.45-.22.67-.34.19-.1.37-.22.56-.33-8.81,2.99-16.63,7.71-23.88,13.43ZM143.37,25.27c.04-.08.08-.16.12-.25-7.37-5.72-15.29-10.44-24.2-13.37.16.16.36.26.56.34,6.76,2.89,12.78,6.92,18.35,11.68.31.27.65.58,1.03.68,1.37.35,2.76.61,4.15.91ZM89.09,188.56c2.66,2.94,5.51,5.07,9.58,5.29,0-1.21-.04-2.32.01-3.43.03-.71-.26-.88-.91-.95-2.66-.26-5.32-.58-7.98-.88-.16-.02-.32-.02-.71-.03ZM108.56,189.19c-.05-.06-.11-.12-.16-.18-2.69.18-5.39.35-8.08.57-.2.02-.51.4-.52.63-.07.92-.04,1.84-.04,2.76,0,.99.05,1.06,1.04.93,2.01-.26,3.68-1.28,5.24-2.47.89-.68,1.69-1.49,2.53-2.24ZM42.94,162.45c1.39,2.19,12.43,11.42,14.26,12.04-1.91-1.99-3.87-4.05-5.83-6.1-1.34-1.39-2.32-3.12-4.27-3.89-1.38-.54-2.67-1.31-4.15-2.06ZM156,163.35c-1.45.63-2.91,1.23-4.33,1.91-.61.29-1.21.69-1.68,1.18-1.47,1.52-2.84,3.14-4.3,4.67-1.14,1.2-2.36,2.33-3.54,3.49,5.15-3.09,9.67-6.95,13.86-11.25ZM113.84,190.96c3.39-.6,13.81-5.85,16.18-8.01-3.09,1.08-6.65,2.32-10.22,3.57-.23.08-.47.2-.66.35-1.79,1.37-3.57,2.75-5.3,4.09ZM84.98,190.86c-1.91-1.35-3.63-2.57-5.36-3.77-.64-.44-1.27-.93-1.97-1.23-2.74-1.16-5.51-2.25-8.27-3.36-.22-.09-.45-.17-.67-.25,5.03,3.54,10.28,6.58,16.27,8.62ZM106.34,192.93c3.77-1.04,7.07-2.94,10.1-5.34-1.88.28-3.74.62-5.59.98-.2.04-.41.18-.55.33-1.31,1.32-2.6,2.65-3.95,4.03ZM91.3,192.52c-1.22-1.33-2.43-2.65-3.66-3.97-.11-.11-.28-.19-.44-.23-1.94-.44-3.89-.88-6.06-1.36,3.22,2.46,6.44,4.42,10.15,5.56Z"/>
</svg>