<?xml version="1.0" encoding="UTF-8"?>
<svg id="Layer_1" xmlns="http://www.w3.org/2000/svg" version="1.1" xmlns:xlink="http://www.w3.org/1999/xlink" viewBox="0 0 664.44 93.5">
  <!-- Generator: Adobe Illustrator 30.2.1, SVG Export Plug-In . SVG Version: 2.1.1 Build 1)  -->
  <defs>
    <style>
      .st0 {
        fill: #e7e5dc;
      }

      .st1 {
        fill: url(#Adsız_degrade_3);
      }

      .st2 {
        fill: #fff;
      }

      .st3 {
        fill: url(#Adsız_degrade_4);
      }

      .st4 {
        fill: #183a2a;
      }

      .st5 {
        fill: url(#Adsız_degrade);
      }

      .st6 {
        fill: #993c23;
      }

      .st7 {
        fill: url(#Adsız_degrade_5);
      }

      .st8 {
        fill: url(#Adsız_degrade_2);
      }

      .st9 {
        fill: #243e7e;
      }
    </style>
    <linearGradient id="Adsız_degrade" data-name="Adsız degrade" x1="50.54" y1="673.41" x2="67.44" y2="673.41" gradientTransform="translate(0 -642)" gradientUnits="userSpaceOnUse">
      <stop offset="0" stop-color="#006743"/>
      <stop offset="1" stop-color="#005535"/>
    </linearGradient>
    <linearGradient id="Adsız_degrade_2" data-name="Adsız degrade 2" x1="26.52" y1="691.95" x2="44.79" y2="691.95" gradientTransform="translate(0 -642)" gradientUnits="userSpaceOnUse">
      <stop offset="0" stop-color="#006743"/>
      <stop offset="1" stop-color="#005535"/>
    </linearGradient>
    <linearGradient id="Adsız_degrade_3" data-name="Adsız degrade 3" x1="45.56" y1="693.86" x2="56.98" y2="693.86" gradientTransform="translate(0 -642)" gradientUnits="userSpaceOnUse">
      <stop offset="0" stop-color="#006743"/>
      <stop offset="1" stop-color="#005535"/>
    </linearGradient>
    <linearGradient id="Adsız_degrade_4" data-name="Adsız degrade 4" x1="51.03" y1="673.01" x2="62.8" y2="673.01" gradientTransform="translate(0 -642)" gradientUnits="userSpaceOnUse">
      <stop offset="0" stop-color="#006743"/>
      <stop offset="1" stop-color="#005535"/>
    </linearGradient>
    <radialGradient id="Adsız_degrade_5" data-name="Adsız degrade 5" cx="46.94" cy="688.52" fx="46.94" fy="688.52" r="45.8" gradientTransform="translate(0 -642)" gradientUnits="userSpaceOnUse">
      <stop offset="0" stop-color="#91918e"/>
      <stop offset="1" stop-color="#e7e5dc"/>
    </radialGradient>
  </defs>
  <path class="st2" d="M46.76-.11h571.38c25.73,0,46.62,20.89,46.62,46.62h0c0,25.73-20.89,46.63-46.62,46.63H46.76V-.11h0Z"/>
  <circle class="st2" cx="46.94" cy="46.52" r="47.16"/>
  <g>
    <g>
      <path class="st9" d="M42.58,19.29s-5.33-7.74-15.5-2.51c0,0-7.84,4.3-3.94,13.91,0,0,1.3,5.51,7.51,7.01,0,0-3.3-2.71-3.04-7.15.26-4.43,3.53-6.31,3.53-6.31,0,0-5.51.9-5.63,5.56,0,0-2.25-6.12,2.7-10.28,0,0,5.7-5.78,14.38-.22h0,0Z"/>
      <path class="st6" d="M29.65,20.76s4.85-1.73,8.35,1.87c0,0,1.73,2.06,2.45,4.22,0,0,1.08,2.7,2.23,3.63,0,0,3.15-2.34.23-5.55l-2.32-1.87s-.09-2.49-3.69-3.56c0,0-4.33-1.59-7.26,1.26h0Z"/>
      <path class="st9" d="M21.26,26.76s-.22,7.86,7.83,11.54c0,0,5.88,2.63,7.08-5.11,1.2-7.74-3.64-10.52-5.94-9.69,0,0-3.15.58-4.53,2.97,0,0-.28-1.05,1.35-3.02,0,0,3.27-3.51,8.33-.94,0,0,4.71,2.42,3.77,10.04,0,0-.83,8.37-8.26,8.07,0,0-11.12-.84-9.65-13.85h0Z"/>
      <circle class="st9" cx="45.29" cy="17.13" r="1.45"/>
      <circle class="st9" cx="45.29" cy="21.78" r="2.48"/>
      <path class="st6" d="M52.15,21.99s-5.08.78-6.43,5.49l-.8,1.6-1.52,1.46s-3.31,2.17-2.7,5.61c0,0,.36,2.13,1.82,3.3,0,0,.82-.24.66-1.75,0,0-.92-2.03-.5-3.23l1.94-2.28,3.06-2.49s1.83-1.56,4.47-7.71h0Z"/>
      <path class="st9" d="M44.31,34.94v4.39s.71.3,1.76-1.69l.18-4.54-1.96,1.84h0Z"/>
      <path class="st6" d="M46.96,31.79s-.43,1.9.18,2.75c0,0,1.03,2.55-1.88,4.88,0,0-4.2,2.65-2.7,6.18,0,0,.4,1.27,1.65,1.86,0,0-.22-1.17-.52-1.98,0,0-.36-1.8,1.2-3.21,0,0,3.55-2.27,4.32-4.97,0,0,.56-1.99-.32-3.66,0,0-1.18-1.9-1.76-1.96l-.16.11h0Z"/>
      <path class="st9" d="M44.66,44.13l.25,7.38.18,1.03.38-1,.38-8.79s-.6.15-1.17,1.38h0Z"/>
      <path class="st0" d="M31.79,41.4s1.68.05,2.87-.43c0,0,5.78,4.88,6.43,5.7,0,0,3.58,2.98,3.88,8.68l-.2.02s-.7-2.48-2.38-4.55c0,0-3.68-4.3-10.61-9.43h0Z"/>
      <path class="st6" d="M46.52,18.49s1.94.47,2.03,2.55c0,0,3.13-4,7.19-4,0,0,5.86-.97,9.52,3.76,0,0-1.07-5.41-10.66-5.96,0,0-4.61-.09-8.07,3.64h0Z"/>
      <g>
        <path class="st5" d="M66.42,23.64s-1.58-4.09-6.98-5.51c0,0-6.34-1.1-8.89,2.45,0,0,6.26-3.63,11.09,1.82,0,0,6.33,5.18-1.59,16.89,0,0-3.19,3.85-5.37,5.56h3.35s4.26-2.95,7.46-8.56c0,0,3.72-6.57.94-12.65,0,0,0,0,0,0Z"/>
        <path class="st8" d="M35.5,46.15c-2.28-1.58-5.13-4.63-5.13-4.63-2.18-.05-3.85-1.38-3.85-1.38,1,2.15,5.93,6.53,5.93,6.53l5.03,4.24c5.16,3.83,7.3,8.84,7.3,8.84.13-1.92-.81-3.46-.81-3.46-1.16-4.95-8.47-10.14-8.47-10.14h0Z"/>
        <path class="st1" d="M47.66,51.91s-2.03,2.55-2.1,5.83c0,0,2.22-4.83,6.33-7.58l5.09-4.18h-3.55s-2.64,1.86-5.77,5.93h0Z"/>
      </g>
      <path class="st6" d="M46.81,41.73s-.75.35-.25,2.68c0,0,.4,1.07-.3,2.35l-.18,1.05s.95-.18,1.78-1.96c0,0,.67-1.38-.12-2.98,0,0-.43-.9-.93-1.15h0Z"/>
      <path class="st3" d="M51.14,25.11l1.92-2.97s5.29-1.2,8.41,3.57c0,0,2.81,4.02.26,8.6l-1.05,2.22-1.2,1.72s-1.2,1.76-3.64,1.76h-4.77s-.18-.24.18-.38c0,0,.71.09.79-.98l.25-12.32s.85-1.2,2.43-1.3v12.81s-.28.67,1.27.2c0,0,2.18-.55,3.35-2.87,0,0,1-2.53.45-6.38,0,0-.35-3.33-3.95-4.43,0,0-2.28-.6-4.71.75h0Z"/>
    </g>
    <g>
      <path class="st4" d="M26.61,66.98c.4,0,.79,0,.79-.31v-4.63c0-.3-.4-.3-.79-.31v-.4h3.02c1.21,0,2.32.4,2.32,1.73,0,.99-.89,1.71-2.22,1.71-.31,0-.55,0-.78-.04v1.95c0,.3.22.3.9.31v.4h-3.25v-.4h0ZM28.96,64.32c.09.02.2.04.34.04.63,0,1.05-.46,1.05-1.31,0-.73-.24-1.33-1.02-1.33h-.08c-.18,0-.29.03-.29.22v2.37h0Z"/>
      <path class="st4" d="M32.46,67.02c.31,0,.53-.03.53-.24v-2.87c0-.11-.06-.17-.18-.17-.1,0-.27.02-.35.05v-.45c.4,0,1.21-.09,1.37-.22h.24v.91s0,.07.04.07.07-.06.17-.21c.19-.3.71-.77,1.14-.77.39,0,.6.4.6.79s-.15.68-.53.68c-.44,0-.35-.65-.69-.65-.2,0-.61.35-.61,1.16v1.61c0,.2.17.31.95.31h.07v.37h-2.75v-.37h0Z"/>
      <path class="st4" d="M38.54,63.11c1.34,0,2.12,1.01,2.12,2.19s-.78,2.19-2.12,2.19-2.12-1.01-2.12-2.19.78-2.19,2.12-2.19ZM38.54,67.09c.6,0,.81-.89.81-1.79s-.21-1.78-.81-1.78-.81.89-.81,1.78.21,1.79.81,1.79Z"/>
      <path class="st4" d="M41.23,67.02c.3,0,.53-.03.53-.25v-3.03h-.53v-.4h.53v-.56c0-1.01.76-1.64,1.73-1.64.45,0,.83.16.83.67,0,.27-.2.58-.47.58-.48,0-.48-.73-.89-.73-.16,0-.28.14-.28.38s.27.62.27,1.31h1.25v.4h-1.25v3.03c0,.14.07.25.88.25h.07v.37h-2.67v-.37h0Z"/>
      <path class="st4" d="M45.6,66.02c.4,0,.71.32.71.71s-.32.71-.71.71-.71-.32-.71-.71.32-.71.71-.71Z"/>
      <path class="st4" d="M52.1,61.19c1.71,0,2.85,1.39,2.85,3.1,0,1.93-1.21,3.23-2.85,3.23s-2.85-1.31-2.85-3.23c0-1.71,1.14-3.1,2.85-3.1ZM52.1,67.12c1.01,0,1.18-1.03,1.18-2.78s-.18-2.78-1.18-2.78-1.18,1.03-1.18,2.78.18,2.78,1.18,2.78Z"/>
      <path class="st4" d="M55.84,62.44c-.24-.63-.46-.7-.79-.7v-.4h3.21v.4c-.45,0-.77.04-.77.3,0,.2.09.46.18.72l1.11,3.2h.02l1.16-3.22c.08-.22.18-.45.18-.69,0-.28-.27-.32-.78-.32v-.4h1.98v.4c-.29,0-.56.15-.74.64l-1.97,5.15h-.84l-1.95-5.09h0,0Z"/>
      <path class="st4" d="M61.84,66.98c.4,0,.79,0,.79-.31v-4.63c0-.3-.4-.3-.79-.31v-.4h3.28c1.98,0,2.96,1.26,2.96,3.05,0,1.94-1.02,3-3.18,3h-3.05v-.41h0ZM64.2,66.68c0,.31.31.31.61.31.64,0,1.56-.13,1.56-2.73,0-1.62-.42-2.52-1.47-2.52-.39,0-.69,0-.69.31v4.63h0Z"/>
    </g>
    <g>
      <path class="st4" d="M28.65,71.3v.54c0,.12.01.19.04.22.03.04.09.06.16.06h.07v.05h-.8v-.05h.07c.08,0,.13-.02.17-.08.02-.03.03-.09.03-.2v-1.2c0-.12-.01-.19-.04-.22-.03-.04-.09-.06-.16-.06h-.07v-.05h.68c.17,0,.3.02.39.05s.18.09.24.17.1.18.1.29c0,.15-.05.28-.15.37-.1.09-.24.14-.43.14-.04,0-.09,0-.14,0-.05,0-.11-.01-.17-.03h0,0ZM28.65,71.22s.09.01.13.02c.04,0,.07,0,.09,0,.09,0,.18-.04.25-.11.07-.07.1-.17.1-.29,0-.08-.01-.15-.05-.22s-.08-.12-.14-.16c-.06-.03-.13-.05-.2-.05-.05,0-.1,0-.18.02v.78h0Z"/>
      <path class="st4" d="M30.09,70.88v.28c.1-.18.21-.28.33-.28.05,0,.09.01.12.05.03.03.05.07.05.1,0,.03,0,.07-.03.09s-.05.04-.09.04-.07-.01-.11-.05c-.04-.03-.07-.05-.09-.05-.01,0-.03,0-.05.03-.04.04-.08.1-.13.18v.6c0,.07,0,.12.02.16,0,.02.03.04.06.06.03.02.07.02.13.02v.05h-.64v-.05c.06,0,.11,0,.14-.03.02-.01.04-.04.05-.07,0-.01,0-.06,0-.13v-.49c0-.15,0-.23,0-.26,0-.03-.02-.05-.03-.06s-.04-.02-.06-.02c-.03,0-.06,0-.09.02v-.05s.37-.15.37-.15h.07,0Z"/>
      <path class="st4" d="M31.27,70.88c.19,0,.35.07.46.21.1.12.15.26.15.43,0,.11-.03.22-.08.34s-.13.2-.22.26c-.09.06-.2.09-.32.09-.19,0-.34-.08-.45-.22-.09-.13-.14-.27-.14-.43,0-.11.03-.23.09-.35s.13-.19.22-.25c.09-.05.19-.08.3-.08h0ZM31.23,70.97s-.09.01-.15.04c-.05.03-.09.08-.12.15-.03.07-.04.17-.04.28,0,.18.04.34.11.47s.17.2.29.2c.09,0,.16-.04.22-.11s.09-.2.09-.38c0-.22-.05-.4-.14-.53-.07-.09-.15-.13-.25-.13h0Z"/>
      <path class="st4" d="M32.56,71.01v.83c0,.12.01.19.04.22.03.04.08.06.13.06h.11v.05h-.75v-.05h.06s.07,0,.1-.03.05-.04.06-.07c0-.03.02-.09.02-.18v-.83h-.24v-.1h.24v-.08c0-.12.02-.23.06-.32.04-.09.1-.16.18-.21.08-.05.18-.08.28-.08s.18.03.26.09c.05.04.08.09.08.14,0,.03,0,.05-.03.08s-.05.04-.08.04c-.02,0-.04,0-.07-.02s-.05-.05-.09-.09c-.03-.05-.07-.08-.09-.1-.03-.02-.06-.02-.09-.02-.04,0-.08,0-.1.03s-.05.06-.06.1-.02.17-.02.36v.09h.33v.1h-.33s0,0,0,0Z"/>
      <path class="st4" d="M33.26,71.91s.08.01.11.04.04.07.04.11-.01.08-.04.11c-.03.03-.07.04-.11.04s-.08-.01-.11-.04c-.03-.03-.04-.07-.04-.11s.01-.08.04-.11.07-.04.11-.04Z"/>
      <path class="st4" d="M34.36,72.17v-.05h.07c.08,0,.13-.02.17-.08.02-.03.03-.09.03-.2v-1.2c0-.11-.01-.19-.04-.22-.03-.04-.09-.06-.16-.06h-.07v-.05h.75c.28,0,.49.03.63.09.14.06.26.17.35.32.09.15.13.32.13.51,0,.26-.08.47-.23.65-.18.19-.44.29-.81.29h-.83,0ZM34.9,72.04c.11.02.21.04.29.04.21,0,.39-.08.53-.22.14-.15.21-.36.21-.61s-.07-.46-.21-.61-.32-.22-.54-.22c-.08,0-.18.01-.28.04v1.58h0Z"/>
      <path class="st4" d="M36.8,70.88v.28c.1-.18.21-.28.33-.28.05,0,.09.01.12.05.03.03.05.07.05.1,0,.03,0,.07-.03.09s-.05.04-.09.04-.07-.01-.11-.05c-.04-.03-.07-.05-.09-.05-.01,0-.03,0-.05.03-.04.04-.08.1-.13.18v.6c0,.07,0,.12.02.16,0,.02.03.04.06.06.03.02.07.02.13.02v.05h-.64v-.05c.06,0,.11,0,.14-.03.02-.01.04-.04.05-.07,0-.01,0-.06,0-.13v-.49c0-.15,0-.23,0-.26,0-.03-.02-.05-.03-.06s-.04-.02-.06-.02c-.03,0-.06,0-.09.02v-.05s.37-.15.37-.15h.07,0Z"/>
      <path class="st4" d="M37.47,71.91s.08.01.11.04.04.07.04.11-.01.08-.04.11c-.03.03-.07.04-.11.04s-.08-.01-.11-.04c-.03-.03-.04-.07-.04-.11s.01-.08.04-.11.07-.04.11-.04Z"/>
      <path class="st4" d="M39.56,70.27c.24,0,.45.09.62.28.18.18.27.41.27.69s-.09.52-.27.7c-.18.18-.39.28-.64.28s-.47-.09-.64-.27-.26-.42-.26-.71.1-.53.3-.72c.18-.16.38-.24.62-.24h0ZM39.53,70.37c-.17,0-.3.06-.4.18-.12.15-.18.38-.18.67s.07.53.19.7c.1.12.23.18.4.18s.32-.07.44-.2.17-.35.17-.64c0-.32-.06-.55-.18-.71-.1-.12-.24-.18-.42-.18h0Z"/>
      <path class="st4" d="M42.46,72.17h-.5l-.63-.87h-.19v.54c0,.12.01.19.04.22.03.04.09.06.16.06h.07v.05h-.8v-.05h.07c.08,0,.13-.02.17-.08.02-.03.03-.09.03-.2v-1.2c0-.12-.01-.19-.04-.22-.03-.04-.09-.06-.16-.06h-.07v-.05h.68c.19,0,.35.01.44.04.09.03.17.08.24.16s.1.17.1.28-.04.21-.11.3c-.08.09-.19.14-.35.18l.38.53c.09.12.16.2.22.24.06.04.14.07.25.08v.05h0ZM41.13,71.21h.08c.18,0,.31-.04.4-.11.09-.08.13-.18.13-.29s-.04-.21-.11-.28-.17-.11-.29-.11c-.05,0-.12,0-.21.02v.77h0Z"/>
      <path class="st4" d="M43.01,71.17h.87v-.53c0-.09,0-.16-.02-.18,0-.02-.03-.04-.06-.06-.04-.02-.08-.03-.12-.03h-.07v-.05h.8v.05h-.07s-.09,0-.12.03c-.03.01-.05.04-.06.07s-.01.09-.01.18v1.2c0,.09,0,.16.02.18,0,.02.03.04.06.06.04.02.08.03.12.03h.07v.05h-.8v-.05h.07c.08,0,.13-.02.17-.07.02-.03.03-.1.03-.21v-.57h-.87v.57c0,.09,0,.16.02.18,0,.02.03.04.06.06.04.02.08.03.12.03h.07v.05h-.8v-.05h.07c.08,0,.13-.02.17-.07.02-.03.03-.1.03-.21v-1.2c0-.09,0-.16-.02-.18,0-.02-.03-.04-.06-.06-.04-.02-.08-.03-.12-.03h-.07v-.05h.8v.05h-.07s-.09,0-.12.03c-.03.01-.05.04-.06.07s-.01.09-.01.18v.53h0s0,0,0,0Z"/>
      <path class="st4" d="M45.75,71.55h-.72l-.12.29c-.03.07-.05.12-.05.16,0,.03.01.05.04.08.03.02.09.03.18.04v.05h-.59v-.05c.08-.01.13-.03.15-.05.05-.04.1-.13.15-.27l.65-1.53h.05l.65,1.55c.05.12.1.2.14.24.04.04.1.06.18.06v.05h-.73v-.05c.08,0,.12-.01.15-.04s.04-.05.04-.08c0-.04-.02-.1-.06-.19l-.11-.27h0ZM45.71,71.45l-.32-.75-.33.75h.64Z"/>
      <path class="st4" d="M46.45,70.31h.51l1.14,1.4v-1.07c0-.11-.01-.18-.04-.21-.03-.04-.09-.06-.16-.06h-.06v-.05h.65v.05h-.07c-.08,0-.13.02-.17.07-.02.03-.03.09-.03.2v1.57h-.05l-1.23-1.5v1.15c0,.11.01.18.04.21.03.04.09.06.16.06h.07v.05h-.65v-.05h.06c.08,0,.13-.02.17-.07.02-.03.03-.09.03-.2v-1.29c-.05-.06-.09-.1-.12-.12-.03-.02-.07-.04-.12-.06-.03,0-.07-.01-.12-.01v-.05h0s0,0,0,0Z"/>
      <path class="st4" d="M51.21,70.31v.05c-.07,0-.11.03-.15.06-.05.04-.09.11-.13.2l-.65,1.58h-.05l-.7-1.6c-.03-.08-.06-.13-.08-.15-.02-.03-.05-.05-.09-.07s-.08-.03-.13-.03v-.05h.76v.05c-.09,0-.14.02-.17.04s-.04.05-.04.08c0,.05.02.12.06.21l.47,1.09.44-1.07c.04-.1.07-.18.07-.22,0-.03-.01-.05-.04-.08s-.07-.04-.13-.05h-.02v-.05h.57,0Z"/>
      <path class="st4" d="M51.83,70.41v.73h.41c.1,0,.18-.01.21-.05.05-.04.08-.11.08-.22h.05v.65h-.05c-.01-.09-.02-.15-.04-.17-.02-.03-.04-.06-.08-.08-.04-.02-.09-.03-.17-.03h-.41v.61c0,.08,0,.13,0,.15,0,.02.02.03.04.04.02,0,.05.01.1.01h.32c.1,0,.18,0,.23-.02.05-.01.09-.04.14-.09.06-.06.11-.14.18-.26h.05l-.16.47h-1.43v-.05h.07s.09,0,.12-.03c.03-.01.05-.04.06-.07,0-.03.01-.09.01-.18v-1.21c0-.12-.01-.19-.04-.22-.03-.04-.09-.05-.16-.05h-.07v-.05h1.43l.02.41h-.05c-.02-.1-.04-.17-.06-.2s-.06-.06-.1-.08c-.04-.01-.1-.02-.19-.02h-.51,0s0,0,0,0Z"/>
      <path class="st4" d="M54.57,71.66h.04s-.16.52-.16.52h-1.44v-.05h.07c.08,0,.13-.02.17-.08.02-.03.03-.09.03-.2v-1.2c0-.11-.01-.19-.04-.22-.04-.04-.09-.06-.16-.06h-.07v-.05h.84v.05c-.1,0-.17,0-.21.03-.04.02-.07.04-.08.07s-.02.1-.02.21v1.17c0,.08,0,.13.02.16,0,.02.03.03.05.04.02,0,.09.01.21.01h.13c.14,0,.24,0,.3-.03.06-.02.11-.06.16-.11s.09-.14.14-.25h0Z"/>
      <path class="st4" d="M55.54,72.12v.05h-.8v-.05h.07c.08,0,.13-.02.17-.07.02-.03.03-.1.03-.21v-1.2c0-.09,0-.16-.02-.18,0-.02-.03-.04-.06-.06-.04-.02-.08-.03-.12-.03h-.07v-.05h.8v.05h-.07c-.08,0-.13.02-.17.07-.02.03-.03.1-.03.21v1.2c0,.09,0,.16.02.18,0,.02.03.04.06.06.04.02.08.03.12.03h.07ZM55.15,69.83s.08.01.1.04.04.06.04.1-.01.08-.04.1-.06.04-.1.04-.08-.01-.1-.04-.04-.06-.04-.1.01-.08.04-.1.06-.04.1-.04Z"/>
      <path class="st4" d="M56.37,72.17v-.05h.07c.08,0,.13-.02.17-.08.02-.03.03-.09.03-.2v-1.2c0-.11-.01-.19-.04-.22-.03-.04-.09-.06-.16-.06h-.07v-.05h.75c.28,0,.49.03.63.09.14.06.26.17.35.32s.13.32.13.51c0,.26-.08.47-.23.65-.18.19-.44.29-.81.29h-.83,0ZM56.9,72.04c.11.02.21.04.29.04.21,0,.39-.08.53-.22.14-.15.21-.36.21-.61s-.07-.46-.21-.61-.32-.22-.54-.22c-.08,0-.18.01-.28.04v1.58h0Z"/>
      <path class="st4" d="M59.37,70.27c.24,0,.45.09.62.28.18.18.27.41.27.69s-.09.52-.27.7-.4.28-.65.28-.47-.09-.64-.27c-.18-.18-.26-.42-.26-.71s.1-.53.3-.72c.18-.16.38-.24.62-.24h0,0ZM59.35,70.37c-.17,0-.3.06-.4.18-.12.15-.18.38-.18.67s.07.53.19.7c.1.12.23.18.4.18s.32-.07.44-.2.17-.35.17-.64c0-.32-.06-.55-.18-.71-.1-.12-.24-.18-.42-.18h0Z"/>
      <path class="st4" d="M62.1,70.27l.05.59h-.05c-.05-.15-.11-.26-.18-.33-.11-.1-.25-.16-.43-.16-.24,0-.42.09-.54.28-.1.16-.15.35-.15.56,0,.18.03.34.1.49.07.15.16.25.27.32s.22.1.35.1c.07,0,.13,0,.2-.02.06-.02.12-.04.18-.08v-.54c0-.09,0-.15-.02-.18s-.04-.05-.07-.07-.08-.02-.16-.02v-.05h.72v.05h-.03c-.07,0-.12.02-.15.07-.02.03-.03.1-.03.2v.57c-.1.06-.21.1-.31.12-.1.03-.21.04-.34.04-.36,0-.63-.11-.82-.35-.14-.17-.21-.37-.21-.6,0-.16.04-.32.12-.47.09-.18.22-.32.38-.41.14-.08.3-.12.48-.12.07,0,.13,0,.18.01s.13.03.23.07c.05.02.09.03.1.03s.03,0,.04-.02c.01-.01.02-.05.02-.09h.05-.01,0ZM61.09,69.77h.04c.03.06.07.09.1.12.07.04.15.06.25.06s.18-.02.25-.06c.05-.02.08-.07.09-.12h.04c0,.11-.05.2-.12.28-.08.07-.16.1-.27.1s-.19-.03-.26-.1c-.08-.07-.12-.16-.13-.28h0Z"/>
      <path class="st4" d="M63.69,71.55h-.72l-.12.29c-.03.07-.05.12-.05.16,0,.03.01.05.04.08.03.02.09.03.18.04v.05h-.59v-.05c.08-.01.13-.03.15-.05.05-.04.1-.13.16-.27l.65-1.53h.05l.65,1.55c.05.12.1.2.14.24s.1.06.18.06v.05h-.73v-.05c.08,0,.12-.01.15-.04s.04-.05.04-.08c0-.04-.02-.1-.06-.19l-.11-.27h0ZM63.65,71.45l-.32-.75-.33.75h.64Z"/>
      <path class="st4" d="M64.4,70.31h.51l1.14,1.4v-1.07c0-.11-.01-.18-.04-.21-.03-.04-.09-.06-.16-.06h-.06v-.05h.65v.05h-.07c-.08,0-.13.02-.17.07-.02.03-.03.09-.03.2v1.57h-.05l-1.23-1.5v1.15c0,.11.01.18.04.21.03.04.09.06.16.06h.07v.05h-.65v-.05h.06c.08,0,.13-.02.17-.07.02-.03.03-.09.03-.2v-1.29c-.05-.06-.09-.1-.12-.12s-.07-.04-.12-.06c-.03,0-.07-.01-.12-.01v-.05h0s0,0,0,0Z"/>
      <path class="st4" d="M27.33,73.81l.05.71h-.05c-.06-.21-.15-.36-.27-.46-.12-.09-.26-.14-.42-.14-.14,0-.26.03-.37.1s-.2.18-.26.34c-.06.15-.09.35-.09.57,0,.18.03.35.09.49.06.14.15.24.27.32.12.07.26.11.42.11.13,0,.25-.03.36-.09s.21-.17.34-.35l.05.03c-.1.18-.22.32-.36.41s-.31.13-.5.13c-.35,0-.61-.13-.8-.38-.14-.19-.21-.42-.21-.67,0-.2.05-.4.14-.57.09-.17.22-.31.38-.4.16-.09.34-.14.53-.14.15,0,.3.04.44.11.04.02.07.03.09.03.03,0,.05,0,.07-.03.03-.03.05-.07.06-.11h.05,0Z"/>
      <path class="st4" d="M28.97,75.24h-.8l-.14.33c-.03.08-.05.14-.05.18,0,.03.01.06.04.08s.09.04.19.05v.06h-.65v-.06c.09-.01.14-.03.17-.06.05-.05.11-.15.17-.3l.73-1.71h.05l.72,1.73c.06.14.11.23.16.27.05.04.11.07.2.07v.06h-.82v-.06c.08,0,.14-.02.17-.04s.04-.05.04-.09c0-.04-.02-.11-.06-.21l-.12-.3h.02ZM28.93,75.13l-.36-.84-.36.84h.72Z"/>
      <path class="st4" d="M31.91,75.93h-.55l-.7-.97h-.22v.6c0,.13.01.21.04.24.04.04.09.07.18.07h.08v.06h-.89v-.06h.08c.09,0,.15-.03.18-.09.02-.03.03-.1.03-.22v-1.34c0-.13-.01-.21-.04-.24-.04-.04-.1-.07-.18-.07h-.08v-.06h.75c.22,0,.38.01.49.05s.19.09.27.18.11.19.11.31-.04.24-.12.34c-.08.09-.21.16-.39.2l.43.6c.1.14.18.23.25.27.07.04.16.07.28.09v.06h0,0ZM30.44,74.86h.09c.19,0,.35-.04.45-.13.1-.09.15-.19.15-.33s-.04-.23-.12-.32-.19-.12-.32-.12c-.06,0-.14,0-.24.03v.87h0Z"/>
      <path class="st4" d="M31.94,75.93v-.06h.08c.09,0,.15-.03.18-.09.02-.03.03-.11.03-.22v-1.34c0-.13-.01-.21-.04-.24-.04-.04-.1-.07-.18-.07h-.08v-.06h.85c.31,0,.54.03.71.1s.29.18.39.36.15.36.15.57c0,.29-.09.53-.26.72-.19.21-.5.33-.9.33h-.93,0ZM32.54,75.78c.13.03.24.04.33.04.24,0,.44-.08.59-.25s.23-.39.23-.68-.08-.51-.23-.68c-.16-.17-.36-.25-.6-.25-.09,0-.19.01-.32.04v1.77h0,0Z"/>
      <path class="st4" d="M35.12,75.88v.06h-.89v-.06h.07c.09,0,.15-.02.18-.08.02-.03.04-.11.04-.23v-1.34c0-.1,0-.18-.02-.21,0-.02-.03-.05-.06-.07-.04-.02-.09-.04-.14-.04h-.07v-.06h.89v.06h-.08c-.09,0-.15.02-.18.08-.02.03-.04.11-.04.23v1.34c0,.1,0,.18.02.21,0,.02.03.05.06.07.04.02.09.04.14.04h.08Z"/>
      <path class="st4" d="M36.34,73.81c.27,0,.5.1.7.31s.3.46.3.76-.1.58-.3.78c-.2.21-.44.31-.72.31s-.53-.1-.72-.31c-.19-.2-.29-.47-.29-.79s.11-.6.34-.81c.19-.18.43-.27.7-.27h0s0,.01,0,.01ZM36.32,73.92c-.18,0-.34.07-.45.2-.14.17-.21.43-.21.75s.07.6.22.78c.11.14.26.21.44.21.19,0,.36-.08.48-.23.13-.15.19-.39.19-.72,0-.36-.07-.62-.21-.8-.11-.14-.27-.21-.46-.21h0Z"/>
      <path class="st4" d="M39.69,73.86v.06c-.07.01-.13.04-.17.07-.05.05-.1.12-.14.23l-.72,1.77h-.06l-.78-1.79c-.04-.09-.07-.15-.09-.17-.02-.03-.06-.06-.09-.08-.04-.02-.09-.03-.15-.03v-.06h.85v.06c-.09,0-.16.02-.18.05s-.04.05-.04.09c0,.05.02.13.07.24l.53,1.22.49-1.2c.05-.12.07-.2.07-.25,0-.03-.01-.06-.04-.09s-.08-.05-.15-.06h-.02v-.06h.64-.02Z"/>
      <path class="st4" d="M40.76,75.24h-.8l-.14.33c-.03.08-.05.14-.05.18,0,.03.01.06.04.08s.09.04.19.05v.06h-.65v-.06c.09-.01.14-.03.17-.06.05-.05.11-.15.17-.3l.73-1.71h.05l.72,1.73c.06.14.11.23.16.27.05.04.11.07.2.07v.06h-.82v-.06c.08,0,.14-.02.17-.04s.04-.05.04-.09c0-.04-.02-.11-.06-.21l-.12-.3h.02ZM40.71,75.13l-.36-.84-.36.84h.72Z"/>
      <path class="st4" d="M43.03,73.81v.71h-.06c-.02-.14-.05-.25-.1-.33s-.11-.15-.2-.19-.18-.07-.27-.07-.19.03-.26.09c-.07.07-.1.14-.1.22,0,.06.02.12.07.17.06.08.21.18.45.31.19.1.33.18.4.24s.12.12.16.19.06.15.06.24c0,.16-.06.29-.18.41-.12.11-.28.17-.47.17-.06,0-.12,0-.17-.01-.03,0-.09-.02-.19-.06s-.16-.05-.19-.05-.05,0-.06.02-.02.05-.03.09h-.06v-.71h.06c.03.15.06.26.1.34.04.07.11.13.2.18.09.05.19.07.31.07.13,0,.23-.03.3-.1.08-.07.11-.15.11-.24,0-.05-.01-.1-.04-.15s-.07-.1-.13-.14c-.04-.03-.15-.09-.33-.19s-.31-.18-.38-.24-.13-.12-.17-.19-.06-.15-.06-.23c0-.15.06-.28.17-.39s.26-.16.44-.16c.11,0,.23.03.35.08.06.02.09.04.12.04.03,0,.05,0,.07-.02s.03-.05.04-.09h.07,0Z"/>
      <path class="st4" d="M45.22,73.81l.05.71h-.05c-.06-.21-.15-.36-.27-.46-.12-.09-.26-.14-.42-.14-.14,0-.26.03-.37.1s-.2.18-.26.34c-.06.15-.09.35-.09.57,0,.18.03.35.09.49.06.14.15.24.27.32.12.07.26.11.42.11.13,0,.25-.03.36-.09s.21-.17.34-.35l.05.03c-.1.18-.22.32-.36.41s-.31.13-.5.13c-.35,0-.61-.13-.8-.38-.14-.19-.21-.42-.21-.67,0-.2.05-.4.14-.57.09-.17.22-.31.38-.4.16-.09.34-.14.53-.14.15,0,.3.04.44.11.04.02.07.03.09.03.03,0,.05,0,.07-.03.03-.03.05-.07.06-.11h.05,0Z"/>
      <path class="st4" d="M46.92,73.92v-.06h.73v.06h-.08c-.08,0-.14.03-.18.1-.02.03-.03.1-.03.22v.84c0,.21-.02.37-.06.48s-.12.21-.24.3-.29.12-.49.12c-.22,0-.4-.04-.52-.12-.12-.08-.2-.18-.25-.32-.03-.09-.05-.26-.05-.51v-.81c0-.13-.02-.21-.05-.25-.03-.04-.09-.06-.17-.06h-.08v-.06h.9v.06h-.08c-.09,0-.15.03-.18.08-.02.04-.04.11-.04.23v.9c0,.08,0,.17.02.28.01.1.04.18.08.24s.09.1.17.14.16.06.27.06c.13,0,.26-.03.36-.09s.18-.13.22-.23.06-.25.06-.47v-.84c0-.13-.01-.21-.04-.24-.04-.04-.1-.07-.18-.07h-.09s-.01,0-.01,0Z"/>
      <path class="st4" d="M49.49,75.36h.05s-.18.57-.18.57h-1.61v-.06h.08c.09,0,.15-.03.18-.09.02-.03.03-.11.03-.22v-1.34c0-.13-.01-.21-.04-.24-.04-.04-.1-.07-.18-.07h-.08v-.06h.94v.06c-.11,0-.18,0-.23.03-.04.02-.08.05-.09.08s-.02.11-.02.23v1.3c0,.09,0,.14.02.18.01.02.03.04.06.05s.1.01.24.01h.15c.16,0,.27,0,.34-.03s.12-.07.18-.12.1-.15.16-.28h0Z"/>
      <path class="st4" d="M51.04,75.24h-.8l-.14.33c-.03.08-.05.14-.05.18,0,.03.01.06.04.08s.09.04.19.05v.06h-.65v-.06c.09-.01.14-.03.17-.06.05-.05.11-.15.17-.3l.73-1.71h.05l.72,1.73c.06.14.11.23.16.27.05.04.11.07.2.07v.06h-.82v-.06c.08,0,.14-.02.17-.04s.04-.05.04-.09c0-.04-.02-.11-.06-.21l-.12-.3h.01ZM51,75.13l-.36-.84-.36.84h.72Z"/>
      <path class="st4" d="M53.99,75.93h-.55l-.7-.97h-.22v.6c0,.13.01.21.04.24.04.04.09.07.18.07h.08v.06h-.89v-.06h.08c.09,0,.15-.03.18-.09.02-.03.03-.1.03-.22v-1.34c0-.13-.01-.21-.04-.24-.04-.04-.1-.07-.18-.07h-.08v-.06h.75c.22,0,.38.01.49.05s.19.09.27.18c.07.09.11.19.11.31s-.04.24-.12.34c-.08.09-.21.16-.39.2l.43.6c.1.14.18.23.25.27.07.04.16.07.28.09v.06h0,0ZM52.51,74.86h.09c.2,0,.35-.04.45-.13.1-.09.15-.19.15-.33s-.04-.23-.12-.32-.19-.12-.32-.12c-.06,0-.14,0-.24.03v.87h0Z"/>
      <path class="st4" d="M56.18,73.81v.71h-.06c-.02-.14-.05-.25-.1-.33s-.11-.15-.2-.19-.18-.07-.27-.07-.19.03-.26.09c-.07.07-.1.14-.1.22,0,.06.02.12.07.17.06.08.21.18.45.31.19.1.33.18.4.24s.12.12.16.19.06.15.06.24c0,.16-.06.29-.18.41-.12.11-.28.17-.47.17-.06,0-.11,0-.17-.01-.03,0-.09-.02-.19-.06s-.16-.05-.19-.05-.05,0-.06.02-.02.05-.03.09h-.06v-.71h.06c.03.15.06.26.1.34.04.07.11.13.2.18s.19.07.31.07c.13,0,.23-.03.3-.1.07-.07.11-.15.11-.24,0-.05-.01-.1-.04-.15s-.07-.1-.13-.14c-.04-.03-.15-.09-.33-.19s-.31-.18-.38-.24-.13-.12-.17-.19-.06-.15-.06-.23c0-.15.06-.28.17-.39s.26-.16.44-.16c.11,0,.22.03.35.08.06.02.09.04.12.04.03,0,.05,0,.07-.02s.03-.05.04-.09h.07,0Z"/>
      <path class="st4" d="M57.99,73.92v-.06h.73v.06h-.08c-.08,0-.14.03-.18.1-.02.03-.03.1-.03.22v.84c0,.21-.02.37-.06.48s-.12.21-.24.3-.29.12-.49.12c-.22,0-.4-.04-.52-.12-.12-.08-.2-.18-.25-.32-.03-.09-.05-.26-.05-.51v-.81c0-.13-.02-.21-.05-.25-.03-.04-.09-.06-.17-.06h-.08v-.06h.9v.06h-.08c-.09,0-.15.03-.18.08-.02.04-.04.11-.04.23v.9c0,.08,0,.17.02.28.01.1.04.18.08.24s.09.1.17.14.16.06.27.06c.13,0,.26-.03.36-.09s.18-.13.22-.23.06-.25.06-.47v-.84c0-.13-.01-.21-.04-.24-.04-.04-.1-.07-.18-.07h-.09s-.01,0-.01,0Z"/>
      <path class="st4" d="M60.87,75.93h-.55l-.7-.97h-.22v.6c0,.13.01.21.04.24.04.04.09.07.18.07h.08v.06h-.89v-.06h.08c.09,0,.15-.03.18-.09.02-.03.03-.1.03-.22v-1.34c0-.13-.01-.21-.04-.24-.04-.04-.1-.07-.18-.07h-.08v-.06h.75c.22,0,.38.01.49.05s.19.09.27.18.11.19.11.31-.04.24-.12.34c-.08.09-.21.16-.39.2l.43.6c.1.14.18.23.25.27.07.04.16.07.28.09v.06h0ZM59.4,74.86h.09c.2,0,.35-.04.45-.13.1-.09.15-.19.15-.33s-.04-.23-.12-.32-.19-.12-.32-.12c-.06,0-.14,0-.24.03v.87h0Z"/>
      <path class="st4" d="M62.77,73.81l.05.65h-.05c-.05-.16-.12-.29-.21-.37-.12-.12-.28-.18-.48-.18-.26,0-.46.1-.6.32-.11.18-.17.39-.17.63,0,.2.04.38.11.54s.18.28.3.36.25.11.38.11c.08,0,.15,0,.22-.03.07-.02.14-.05.2-.09v-.6c0-.1,0-.17-.02-.2s-.04-.06-.07-.07c-.03-.02-.09-.02-.18-.02v-.06h.8v.06h-.04c-.08,0-.13.03-.16.08-.02.04-.03.11-.03.22v.63c-.12.06-.23.11-.35.14-.11.03-.24.04-.38.04-.4,0-.71-.13-.91-.39-.16-.19-.23-.42-.23-.67,0-.18.04-.36.13-.53.1-.2.25-.36.43-.46.15-.09.33-.13.54-.13.08,0,.14,0,.2.02s.15.04.26.08c.06.02.09.03.11.03s.04,0,.05-.03c.01-.02.02-.05.02-.1h.06,0Z"/>
      <path class="st4" d="M63.77,73.97v.82h.46c.12,0,.19-.02.24-.05.05-.05.08-.13.09-.25h.06v.72h-.06c-.01-.1-.03-.17-.04-.19-.02-.04-.05-.06-.09-.09-.04-.02-.1-.03-.19-.03h-.46v.68c0,.09,0,.15.01.17,0,.02.02.03.04.05s.06.02.11.02h.36c.12,0,.2,0,.26-.02s.1-.05.15-.09c.06-.06.13-.16.19-.29h.06l-.18.52h-1.6v-.06h.07s.09-.01.14-.03c.03-.01.06-.04.07-.07,0-.03.02-.1.02-.2v-1.35c0-.13-.01-.21-.04-.24-.04-.04-.1-.06-.18-.06h-.07v-.06h1.6l.02.45h-.06c-.02-.11-.04-.18-.07-.22-.02-.04-.06-.07-.11-.09-.04-.01-.11-.02-.21-.02h-.59Z"/>
      <path class="st4" d="M67.15,75.93h-.55l-.7-.97h-.22v.6c0,.13.01.21.04.24.04.04.09.07.18.07h.08v.06h-.89v-.06h.08c.09,0,.15-.03.18-.09.02-.03.03-.1.03-.22v-1.34c0-.13-.01-.21-.04-.24-.04-.04-.1-.07-.18-.07h-.08v-.06h.75c.22,0,.38.01.49.05s.19.09.27.18.11.19.11.31-.04.24-.12.34-.21.16-.39.2l.43.6c.1.14.18.23.25.27.07.04.16.07.28.09v.06h0ZM65.67,74.86h.09c.2,0,.35-.04.45-.13.1-.09.15-.19.15-.33s-.04-.23-.12-.32-.19-.12-.32-.12c-.06,0-.14,0-.24.03v.87h0Z"/>
      <path class="st4" d="M68.44,73.86h.72v.06h-.04s-.07,0-.11.03c-.05.02-.09.06-.14.1-.04.04-.09.11-.15.21l-.5.79v.52c0,.13.01.2.04.24.04.04.1.06.18.06h.07v.06h-.89v-.06h.07c.09,0,.15-.03.18-.08.02-.03.03-.1.03-.22v-.49l-.57-.87c-.07-.1-.11-.17-.14-.19s-.07-.06-.15-.09c-.02,0-.05-.01-.09-.01v-.06h.89v.06h-.05s-.09,0-.13.03-.06.06-.06.1c0,.04.03.1.09.2l.44.67.41-.64c.06-.09.09-.17.09-.21,0-.03,0-.05-.02-.08s-.04-.04-.06-.05-.07-.02-.12-.02v-.06h0,0Z"/>
    </g>
    <path class="st7" d="M47.38,93.03c-6.03.02-11.29-1.11-16.4-3.04-4.12-1.56-7.91-3.71-11.38-6.43-3.12-2.46-5.82-5.32-8.19-8.5-2.66-3.57-4.83-7.41-6.45-11.56-1.03-2.63-1.77-5.34-2.28-8.11-1.39-7.56-.98-15.02,1.16-22.4.81-2.78,1.88-5.46,3.18-8.06,1.84-3.69,4.21-7,6.96-10.06,1.94-2.15,4.05-4.1,6.34-5.84,4.18-3.17,8.77-5.58,13.78-7.11C39.44.28,44.9-.32,50.47.16c4.61.4,9.03,1.52,13.28,3.33,3.22,1.37,6.25,3.09,9.09,5.16,2.51,1.82,4.77,3.91,6.89,6.18,2.42,2.58,4.45,5.43,6.21,8.5,2.13,3.73,3.66,7.69,4.67,11.86,1.08,4.45,1.52,8.96,1.34,13.52-.12,3.06-.54,6.08-1.26,9.06-.64,2.67-1.48,5.26-2.58,7.77-1.02,2.33-2.21,4.59-3.6,6.73-2.4,3.7-5.25,7.02-8.62,9.87-1.87,1.58-3.85,2.99-5.94,4.26-4.09,2.5-8.46,4.32-13.14,5.42-3.28.77-6.59,1.27-9.43,1.21h0ZM61.49,80.94c.16-.02.25-.02.34-.05,2.96-.87,5.83-1.97,8.63-3.27.18-.09.36-.23.49-.39,2.41-2.87,4.46-5.97,6.14-9.33,1.74-3.47,3.1-7.08,3.93-10.87.78-3.57,1.18-7.18,1.14-10.84,0-.33-.12-.41-.43-.41-1.81.02-3.63,0-5.44.04-.43,0-.71-.13-.95-.46-.24-.35-.49-.68-.8-1.09-.22.34-.42.61-.58.89-.23.4-.55.66-1.02.66-.36,0-.46.19-.52.51-.31,1.69-.62,3.38-.94,5.07-.05.27-.03.68-.43.66-.4-.01-.39-.42-.43-.71-.42-3.3-.82-6.62-1.23-9.93-.09-.72-.19-1.45-.29-2.17-.1.11-.13.22-.15.34-.26,1.66-.53,3.32-.79,4.98-.14.9-.26,1.79-.42,2.69-.03.15-.16.36-.3.41-.09.03-.29-.13-.4-.24-.1-.1-.16-.24-.23-.37-.43-.78-.85-1.57-1.27-2.35-.08-.14-.18-.27-.32-.45-.21.4-.4.72-.56,1.06-.17.36-.43.5-.83.51-3.61.02-7.21.05-10.81.07-1.5,0-2.99-.02-4.48-.03h-.62c-.09-.66.02-.8.59-.78h.16c2.35,0,4.71-.02,7.06-.02.86,0,1.72,0,2.58,0h5.2c.28,0,.45-.11.57-.36.27-.55.54-1.1.83-1.64.07-.13.2-.22.31-.33.1.11.24.21.31.34.47.85.93,1.71,1.4,2.57.04.07.11.13.2.24.05-.26.09-.45.12-.65.49-3.16.98-6.32,1.49-9.48.03-.18.18-.44.32-.47.28-.06.35.22.38.45.11.86.23,1.72.34,2.58.34,2.73.68,5.45,1.02,8.18.08.64.16,1.27.24,1.92.12-.1.16-.19.18-.29.17-.82.35-1.64.51-2.47.11-.54.15-.59.71-.56.43.02.73-.09.96-.5.22-.4.5-.75.75-1.13.28-.41.39-.41.69,0,.3.43.6.85.89,1.28.14.22.32.32.59.32,1.76,0,3.52-.02,5.28,0,.41,0,.52-.18.5-.52-.02-.49-.04-.98-.08-1.47-.05-.64-.05-1.3-.18-1.94-.32-1.67-.67-3.33-1.04-4.98-.89-4.02-2.42-7.81-4.45-11.39-.19-.34-.35-.42-.71-.22-1.61.87-3.28,1.6-5.05,2.08-.2.05-.43-.02-.65-.03.18-.13.35-.3.54-.39,1.59-.7,3.18-1.37,4.76-2.06.2-.09.37-.23.58-.36-1.04-1.79-2.12-3.49-3.36-5.08-.98-1.26-1.96-2.53-3.03-3.71-1.18-1.3-2.47-2.5-3.73-3.73-.22-.21-.53-.4-.82-.45-2.16-.37-4.34-.71-6.51-1.06-.04,0-.09.02-.18.04.32.51.64.98.93,1.48.4.69.8,1.39,1.16,2.1.07.12,0,.31,0,.46-.15-.08-.33-.12-.44-.23-.11-.1-.17-.27-.25-.41-.63-1.03-1.27-2.06-1.91-3.1-.18-.3-.44-.44-.79-.46-1.06-.09-2.12-.2-3.19-.31-.07,0-.14.02-.2.03.33.93.66,1.83.96,2.74.05.17-.04.38-.07.57-.15-.14-.31-.27-.45-.42-.02-.01-.02-.05-.03-.08-.3-.81-.61-1.62-.89-2.44-.11-.34-.31-.45-.64-.46-1.65-.06-3.29-.15-4.94-.21-.53-.02-1.06,0-1.61,0,0,.19-.02.34-.02.48,0,.84,0,1.68,0,2.52,0,.44-.12.51-.64.33,0-.95,0-1.94,0-2.92,0-.33-.09-.45-.43-.44-1,.04-2,.05-2.99.09-1.09.05-2.18.14-3.27.2-.32.01-.48.16-.58.44-.32.9-.64,1.79-.97,2.69-.08.21-.14.5-.43.38-.09-.03-.12-.38-.07-.55.15-.54.34-1.07.53-1.6.14-.4.29-.8.44-1.22-.12-.02-.2-.05-.27-.04-1.09.11-2.17.22-3.26.36-.15.02-.34.17-.43.31-.63,1.06-1.25,2.13-1.88,3.2-.12.21-.23.56-.53.42-.33-.15-.09-.46,0-.66.35-.68.71-1.34,1.09-2,.21-.37.45-.73.71-1.14-.16,0-.26-.01-.35,0-1.21.2-2.42.38-3.63.62-.32.06-.65.24-.9.46-3.38,3.05-6.33,6.48-8.76,10.34-.56.89-1.09,1.79-1.66,2.72.18.1.3.18.43.24.75.35,1.51.67,2.25,1.03.14.07.23.23.35.36-.16.03-.33.07-.5.09-.03,0-.08-.01-.11-.03-.74-.33-1.5-.62-2.23-.98-.34-.17-.52-.16-.68.2-.79,1.72-1.64,3.41-2.37,5.16-1.01,2.43-1.73,4.95-2.23,7.54-.44,2.28-.74,4.58-.86,6.9-.03.55-.04.55.51.55,2.67,0,5.34.02,8,.03.17,0,.36-.03.52.02.14.05.24.2.36.31-.13.09-.25.2-.38.28-.06.03-.16,0-.24,0-2.79,0-5.58,0-8.36-.03-.37,0-.49.1-.48.47,0,2.22.09,4.42.37,6.63.6,4.71,1.86,9.21,3.82,13.53,1.66,3.62,3.76,6.96,6.24,10.07.43.53.89.97,1.54,1.22,2.3.89,4.59,1.8,6.88,2.7.25.1.53.15.85.23-.06-.18-.12-.27-.12-.37,0-.13.01-.26.03-.39.12.07.27.12.37.21.08.08.12.2.16.32.1.35.35.51.68.59,1.62.38,3.24.76,4.86,1.15.17.04.36.04.58.07-.08-.28-.16-.49-.19-.71-.01-.08.06-.25.1-.26.09,0,.25.04.29.11.1.18.18.39.22.6.06.3.22.41.52.44.61.07,1.21.21,1.82.26,1.75.14,3.51.25,5.26.38.3.02.42-.08.39-.38-.02-.21-.03-.43,0-.63.02-.1.15-.18.23-.27.09.09.23.16.25.26.04.2.03.43.01.63-.02.28.07.42.38.4,2.12-.14,4.23-.28,6.34-.39.71-.04,1.22-.24,1.33-1.04.01-.11.22-.18.35-.28.02.14.08.29.06.43-.02.21-.1.42-.17.68.29-.04.49-.06.68-.1,1.34-.28,2.68-.6,4.03-.85.68-.13,1.22-.37,1.44-1.07.01-.05.04-.11.09-.13.09-.05.18-.08.27-.11.03.1.09.21.08.31-.03.15-.12.29-.22.5h.02-.01ZM71.89,77c1.61-.8,3.18-1.4,4.35-2.84,2.17-2.68,4.15-5.48,5.71-8.56,2.05-4.01,3.4-8.24,4.06-12.7.32-2.2.44-4.4.45-6.62,0-.4-.12-.53-.53-.51-.89.03-1.78,0-2.68,0-.34,0-.51.17-.51.5.04,4.5-.52,8.91-1.74,13.24-.68,2.43-1.57,4.78-2.64,7.06-1.13,2.41-2.38,4.74-3.91,6.92-.81,1.15-1.66,2.27-2.56,3.5h0ZM21.43,76.61c-1.19-1.74-2.45-3.47-3.59-5.26-2.15-3.39-3.74-7.05-4.88-10.91-1.36-4.6-1.97-9.3-1.91-14.09,0-.55,0-.55-.55-.55-.89,0-1.78,0-2.68,0-.33,0-.46.09-.44.43.11,2.04.14,4.08.35,6.11.36,3.51,1.29,6.88,2.61,10.15,1.53,3.78,3.64,7.22,6.2,10.4,1.1,1.37,2.28,2.6,3.94,3.27.36.14.68.33.96.47h0ZM76.72,74.43s.03.03.05.05c.08-.04.16-.08.23-.12,1.36-.97,2.75-1.88,4.05-2.92,1.62-1.29,3.11-2.71,4.09-4.63,1.9-3.71,3.29-7.56,4.04-11.66.53-2.94.7-5.9.72-8.88,0-.36-.1-.5-.48-.49-.68.02-1.36.02-2.04,0-.33,0-.41.1-.4.42.1,2.4-.13,4.77-.49,7.13-.49,3.25-1.39,6.4-2.65,9.44-1.53,3.71-3.54,7.13-6.03,10.27-.37.46-.74.92-1.11,1.38h0ZM79.26,22.49c.04.07.13.21.22.36,2.15,3.25,3.9,6.7,5.16,10.39,1.25,3.69,1.98,7.49,2.25,11.38.03.38.16.47.5.46.69-.02,1.39-.02,2.08,0,.32,0,.4-.08.38-.41-.17-3.41-.67-6.77-1.69-10.03-.64-2.07-1.43-4.1-2.25-6.11-1.13-2.74-2.65-5.29-4.3-7.74-.13-.19-.29-.36-.39-.48-.65.73-1.28,1.43-1.97,2.19h0ZM16.58,73.97s.06-.07.09-.1c-.11-.14-.22-.29-.35-.44-2.46-2.92-4.46-6.1-6-9.59-1.44-3.26-2.47-6.65-3.02-10.17-.38-2.46-.53-4.93-.5-7.41,0-.34-.08-.48-.44-.46-.64.03-1.28.01-1.92,0-.53,0-.53,0-.53.52.03,2.46.19,4.9.57,7.33.72,4.57,2.09,8.92,4.32,12.99.51.92.96,1.89,1.76,2.61,1.02.91,2.05,1.83,3.12,2.68.93.73,1.93,1.37,2.89,2.05h.01ZM9.26,45.14h0c.48.01.96,0,1.44.01.3,0,.41-.08.44-.4.2-2,.35-4.01.67-5.99.8-4.98,2.52-9.65,4.9-14.09.14-.27.1-.39-.15-.53-.5-.28-1-.56-1.47-.89-.32-.23-.49-.2-.68.14-.83,1.51-1.71,2.98-2.51,4.5-1.32,2.52-2.3,5.19-3.03,7.93-.78,2.93-1.19,5.93-1.41,8.95-.02.26.04.37.32.36.49,0,.98,0,1.48,0,0,0,0,0,0,0ZM86.4,45.03c-.06-.62-.12-1.21-.17-1.81-.35-3.81-1.23-7.49-2.56-11.07-1.2-3.22-2.81-6.24-4.71-9.1-.12-.19-.23-.27-.44-.13-.55.35-1.12.67-1.67,1.02-.07.05-.11.21-.09.32.02.12.11.24.18.36,1.43,2.49,2.61,5.1,3.49,7.84,1.27,3.98,2.05,8.05,2.23,12.23.01.29.1.4.4.39.99-.01,1.97,0,2.96,0,.11,0,.23-.02.39-.04h0ZM12.09,20.78c-.05.06-.09.1-.13.16-1.99,2.94-3.63,6.05-4.92,9.36-1.12,2.85-1.96,5.78-2.44,8.8-.3,1.87-.42,3.76-.62,5.64-.03.3.05.44.39.44.73-.02,1.47-.01,2.2,0,.25,0,.35-.09.37-.35.18-1.75.31-3.51.58-5.24.75-4.76,2.35-9.23,4.67-13.44.59-1.07,1.24-2.12,1.84-3.18.06-.11.08-.35,0-.41-.62-.59-1.28-1.16-1.96-1.76h0ZM13.78,17.19s.05.05.08.07c1.2-1.21,2.4-2.42,3.61-3.63,1.78-1.79,3.73-3.39,5.86-4.75,2.83-1.8,5.81-3.31,8.95-4.5,2.16-.81,4.39-1.38,6.66-1.84,1.82-.37,3.65-.62,5.51-.71,3.71-.18,7.38.13,11.02.87,2.91.59,5.73,1.45,8.46,2.62,1.98.85,3.88,1.83,5.71,2.96,2.98,1.83,5.61,4.11,8.11,6.54.09.09.18.17.28.25-.02-.1-.08-.18-.14-.24-2.14-2.36-4.52-4.45-7.14-6.26-1.56-1.07-3.17-2.05-4.86-2.92-1.88-.97-3.79-1.82-5.78-2.53-3.94-1.4-8.02-2.1-12.19-2.2-4.39-.11-8.72.39-12.9,1.76-1.91.62-3.78,1.39-5.6,2.23-1.65.76-3.25,1.66-4.8,2.62-2.32,1.44-4.45,3.16-6.51,4.96-1.61,1.41-3.08,2.95-4.31,4.7h0ZM82.46,70.87s-.06,0-.06,0c-1.85,1.91-4.01,3.37-6.34,4.62-.36.19-.68.47-.98.74-1.54,1.4-2.97,2.93-4.62,4.17-2.69,2.03-5.51,3.88-8.3,5.77-1.19.81-2.45,1.54-3.69,2.32,5.76-1.96,11.08-4.68,15.74-8.61,3.13-2.65,5.98-5.56,8.26-9.01h0,0ZM34.34,88.03c-.06-.07-.08-.09-.1-.1-3.71-2.36-7.37-4.8-10.86-7.47-1.75-1.34-3.38-2.81-4.85-4.45-.29-.33-.62-.62-.98-.86-1.34-.9-2.7-1.76-4.03-2.67-.59-.41-1.13-.9-1.72-1.39,6.37,8.9,15.46,14.46,22.54,16.95h0ZM38.69,82.9c-.01.11-.03.14-.02.16.62,1.77,1.44,3.44,2.51,4.98.09.13.3.24.46.26,1.39.15,2.78.28,4.18.43.36.04.49-.07.49-.45-.02-1.39,0-2.77,0-4.16,0-.52,0-.49-.53-.53-2.08-.18-4.17-.37-6.25-.56-.27-.02-.54-.08-.84-.12h0,0ZM54.36,83.13h-.37c-2.28.16-4.57.32-6.85.47-.29.02-.32.16-.32.39,0,1.45,0,2.91,0,4.36,0,.32.09.43.41.4,1.34-.11,2.68-.2,4.02-.34.21-.02.47-.2.59-.39.4-.6.78-1.21,1.1-1.86.49-.97.93-1.97,1.42-3.03h0ZM27.19,10.98c-1.23.3-2.4.45-3.4,1.38-3.05,2.79-5.77,5.87-8.14,9.25-.2.29-.39.59-.61.94.6.38,1.16.72,1.71,1.09.31.2.48.15.66-.17,1.28-2.26,2.67-4.45,4.34-6.46,1.17-1.42,2.41-2.77,3.64-4.14.57-.63,1.17-1.22,1.81-1.88h0ZM14.59,22.2c2.53-3.83,5.45-7.24,8.9-10.27-.11,0-.15,0-.18,0-1.53.55-3.06,1.09-4.58,1.67-.33.12-.68.28-.93.52-.85.8-1.69,1.62-2.47,2.49-.92,1.02-1.78,2.09-2.66,3.14-.14.17-.26.33-.09.56.54.73,1.21,1.34,2.01,1.89h0ZM78.85,21.85c.09-.04.15-.07.2-.1.7-.53,1.26-1.19,1.68-1.96.08-.14,0-.44-.09-.59-1.1-1.58-2.42-2.98-3.81-4.29-.39-.37-.82-.73-1.3-.94-1.36-.58-2.75-1.07-4.14-1.59-.39-.14-.79-.24-1.18-.36,3.29,2.94,6.18,6.2,8.65,9.83h0ZM57.1,87.04s.02.04.04.06c.18-.06.37-.11.56-.18.73-.27,1.5-.49,2.21-.83,1.5-.71,3.05-1.36,4.43-2.27,1.78-1.18,3.27-2.76,4.69-4.37.26-.29.52-.58.78-.87-.1-.04-.15-.04-.19-.02-2.65,1.16-5.33,2.22-8.13,2.96-.18.05-.37.21-.47.38-.93,1.53-1.97,2.98-3.15,4.31-.24.28-.5.54-.74.81h-.01s0,0,0,0ZM66.55,11.19c3.89,3.65,7.18,7.74,9.87,12.39.65-.43,1.26-.83,1.86-1.25.06-.04.06-.3,0-.39-.79-1.07-1.57-2.15-2.4-3.19-1.87-2.31-3.97-4.41-6.16-6.42-.93-.85-2.05-.9-3.15-1.15h0ZM38.42,8.78c.18.01.24.02.31.02,2.05-.09,4.1-.18,6.15-.26.33-.01.4-.15.4-.44,0-1.69,0-3.38,0-5.08,0-.36-.17-.41-.44-.35-.95.18-1.82.55-2.61,1.12-.94.67-1.73,1.51-2.36,2.47-.53.8-.95,1.65-1.45,2.53h0,0ZM52.61,8.75c-.01-.11,0-.14-.02-.16-.13-.25-.26-.49-.39-.74-.81-1.55-1.79-2.96-3.17-4.07-.79-.63-1.65-1.08-2.67-1.21-.33-.04-.45.06-.45.41.01,1.72.01,3.44,0,5.16,0,.31.09.41.41.42,1.4.01,2.8.05,4.19.09.69.02,1.38.07,2.1.11h0,0ZM23.67,78.28c3.11,4.12,6.98,7.05,12,8.45-.09-.12-.16-.2-.23-.28-1.41-1.49-2.74-3.02-3.69-4.85-.09-.16-.3-.3-.48-.37-1.87-.71-3.74-1.4-5.61-2.11-.65-.25-1.29-.54-1.99-.84h0ZM82.29,72.41s-.07-.04-.1-.06c-.09.11-.18.22-.26.35-.5.69-.97,1.42-1.51,2.06-1.51,1.77-3.15,3.4-4.91,4.91-1.81,1.55-3.7,3-5.74,4.26-2.1,1.3-4.28,2.44-6.54,3.45-3.28,1.48-6.77,2.34-10.16,3.5-.36.12-.72.2-1.08.31,0,.04.02.08.03.12.88-.16,1.77-.29,2.64-.48,1.55-.35,3.11-.65,4.62-1.1,3.9-1.14,7.52-2.91,10.95-5.07,2.23-1.42,4.33-3.02,6.25-4.83,1.99-1.89,3.71-4.01,5.16-6.33.22-.36.43-.71.64-1.08h0,0ZM64.37,10.14c-3.94-3.29-8.32-5.73-13.35-6.88.46.32.95.57,1.41.87,1.93,1.24,3.61,2.74,4.95,4.6.24.33.52.48.93.53,1.33.15,2.64.34,3.96.53.7.1,1.41.24,2.11.36h0ZM32.36,81.52c0,.07-.01.1,0,.12.06.1.11.21.18.31.92,1.51,2.04,2.85,3.23,4.15.61.66,1.24,1.27,2.19,1.43.41.07.8.19,1.2.29.42.09.84.18,1.38.29-.15-.27-.24-.43-.34-.58-.9-1.38-1.53-2.88-2.12-4.42-.06-.16-.27-.32-.44-.36-1.54-.37-3.09-.71-4.63-1.07-.21-.05-.43-.11-.65-.17h0ZM55.89,3.6c.21.08.42.16.63.23,2.24.8,4.38,1.79,6.43,3.01,2.04,1.2,3.97,2.54,5.79,4.05.18.15.43.26.66.34,1.25.41,2.51.8,3.76,1.21.53.17,1.03.39,1.55.59-2.66-2.4-5.6-4.36-8.79-5.96-3.19-1.6-6.53-2.77-10.05-3.47h0,0ZM52.38,88.2c.11,0,.18.02.23,0,1.01-.22,2.03-.44,3.04-.67.13-.03.27-.12.37-.22,1.66-1.51,2.98-3.29,4.19-5.16.04-.06.04-.13.07-.24-.1.01-.17.02-.23.03-1.61.33-3.23.65-4.84,1.01-.15.03-.34.21-.39.37-.6,1.57-1.3,3.09-2.22,4.5-.07.1-.12.22-.2.38h0ZM11.75,72.1c.58,1.6,4.68,6.34,7.4,8.73,2.91,2.55,6.1,4.63,9.56,6.33,3.08,1.51,9.86,3.73,10.86,3.47-1.12-.44-2.25-.88-3.39-1.26-5.46-1.86-10.58-4.39-15.18-7.9-3.17-2.41-6.05-5.14-8.45-8.35-.26-.35-.53-.68-.8-1.01h0s0-.01,0-.01ZM36.88,3.76c-6.44,1.53-12.07,4.65-17.24,8.7.11,0,.21-.02.31-.05,1.35-.42,2.7-.82,4.05-1.25.32-.1.64-.25.92-.45,1.28-.93,2.52-1.92,3.82-2.82,1.95-1.34,4-2.49,6.21-3.34.65-.25,1.29-.53,1.94-.79h0ZM49.11,3.15c.37.32.7.58,1,.87,1.32,1.25,2.22,2.78,3,4.4.12.26.28.37.57.39.98.07,1.96.17,2.95.26.09,0,.19,0,.32-.01-1.38-2.23-5.35-5.4-7.83-5.92h0ZM41.66,3.51c-3.1,1.06-5.39,3.15-7.43,5.72,1.21-.13,2.32-.23,3.44-.38.12-.01.26-.2.33-.34.34-.63.62-1.29.98-1.92.69-1.2,1.62-2.2,2.68-3.09h0ZM38.81,4.25s-.04-.06-.06-.09c-3.41,1.4-6.57,3.22-9.37,5.73.09.02.13.04.17.04,1.21-.19,2.42-.38,3.63-.59.18-.03.37-.16.48-.3,1.12-1.42,2.33-2.74,3.8-3.81.45-.33.9-.64,1.35-.97h0,0ZM25.92,10.58s.03.08.04.11c.74-.18,1.49-.36,2.22-.53.07-.02.13-.09.19-.14.55-.46,1.11-.92,1.66-1.38,2.05-1.69,4.29-3.06,6.7-4.17.11-.05.21-.1.32-.16.09-.05.18-.1.27-.16-4.21,1.43-7.94,3.68-11.41,6.41,0,0,0,0,0,0ZM67.65,10.82s.04-.08.06-.12c-3.52-2.73-7.3-4.98-11.56-6.39.08.08.17.12.27.16,3.23,1.38,6.11,3.3,8.77,5.58.15.13.31.28.49.33.65.17,1.32.29,1.98.44h0ZM41.72,88.82c1.27,1.41,2.63,2.42,4.58,2.53,0-.58-.02-1.11,0-1.64.01-.34-.12-.42-.44-.45-1.27-.12-2.54-.28-3.81-.42-.08,0-.15,0-.34-.01h0ZM51.02,89.11s-.05-.06-.08-.09c-1.28.09-2.58.17-3.86.27-.09,0-.24.19-.25.3-.03.44-.02.88-.02,1.32,0,.47.02.51.5.44.96-.12,1.76-.61,2.5-1.18.43-.33.81-.71,1.21-1.07h0ZM19.68,76.34c.66,1.05,5.94,5.45,6.81,5.75-.91-.95-1.85-1.94-2.78-2.92-.64-.66-1.11-1.49-2.04-1.86-.66-.26-1.27-.62-1.98-.98h0ZM73.68,76.77c-.69.3-1.39.59-2.07.91-.29.14-.58.33-.8.56-.7.72-1.36,1.5-2.05,2.23-.54.57-1.13,1.11-1.69,1.67,2.46-1.48,4.62-3.32,6.62-5.37h0ZM53.54,89.96c1.62-.29,6.59-2.79,7.73-3.82-1.48.52-3.18,1.11-4.88,1.7-.11.04-.22.09-.32.17-.86.65-1.7,1.31-2.53,1.96h0ZM39.76,89.91c-.91-.64-1.73-1.23-2.56-1.8-.31-.21-.61-.44-.94-.59-1.31-.55-2.63-1.07-3.95-1.6-.1-.04-.21-.08-.32-.12,2.4,1.69,4.91,3.14,7.77,4.12h0ZM49.96,90.9c1.8-.5,3.38-1.41,4.82-2.55-.9.13-1.78.3-2.67.47-.09.02-.19.09-.26.16-.62.63-1.24,1.26-1.89,1.93h0ZM42.78,90.7c-.58-.63-1.16-1.26-1.75-1.9-.05-.05-.13-.09-.21-.11-.93-.21-1.86-.42-2.89-.65,1.54,1.17,3.08,2.11,4.85,2.66h0,0Z"/>
  </g>
  <g>
    <g>
      <path class="st4" d="M104.43,29.86v7.57c0,1.68.2,2.68.54,3.08.47.54,1.21.87,2.21.87h1.01v.74h-11.19v-.74h1.01c1.07,0,1.88-.34,2.35-1.07.27-.4.4-1.34.4-2.81v-16.82c0-1.68-.2-2.68-.54-3.08-.47-.54-1.27-.87-2.21-.87h-1.01v-.74h9.58c2.35,0,4.15.27,5.5.74,1.34.47,2.48,1.27,3.42,2.41.94,1.14,1.41,2.48,1.41,4.09,0,2.14-.67,3.89-2.08,5.23-1.41,1.34-3.42,2.01-5.96,2.01-.6,0-1.34,0-2.01-.13-.74-.07-1.54-.2-2.35-.4l-.07-.07h0ZM104.43,28.79c.67.13,1.27.2,1.81.27.54,0,1.01.07,1.34.07,1.34,0,2.48-.54,3.48-1.54.94-1.01,1.47-2.35,1.47-4.02,0-1.14-.2-2.14-.67-3.15s-1.14-1.68-1.94-2.21c-.87-.47-1.81-.74-2.88-.74-.67,0-1.47.13-2.55.34v10.86l-.07.13h.01Z"/>
      <path class="st4" d="M124.67,23.97v3.95c1.47-2.61,3.02-3.95,4.56-3.95.74,0,1.27.2,1.74.67.47.4.67.94.67,1.47,0,.47-.13.94-.47,1.27-.34.34-.74.54-1.21.54s-.94-.2-1.54-.67c-.54-.47-1.01-.67-1.27-.67-.2,0-.47.13-.74.4-.6.54-1.14,1.41-1.81,2.61v8.44c0,1.01.13,1.68.34,2.21.13.34.47.6.87.87.4.27,1.01.34,1.81.34v.67h-9.05v-.67c.87,0,1.54-.13,2.01-.4.34-.2.54-.54.67-1.01,0-.2.07-.8.07-1.88v-6.84c0-2.08,0-3.28-.13-3.69-.07-.4-.27-.67-.47-.87s-.54-.27-.8-.27c-.4,0-.87.07-1.34.27l-.2-.67,5.36-2.14h.94v.02Z"/>
      <path class="st4" d="M141.29,23.97c2.68,0,4.82,1.01,6.43,3.02,1.41,1.74,2.08,3.69,2.08,5.96,0,1.61-.4,3.15-1.14,4.76s-1.81,2.81-3.15,3.69c-1.34.8-2.81,1.21-4.42,1.21-2.68,0-4.76-1.07-6.3-3.15-1.34-1.81-2.01-3.75-2.01-6.03,0-1.61.4-3.22,1.21-4.82s1.88-2.75,3.15-3.55c1.34-.74,2.68-1.14,4.15-1.14v.07-.02ZM140.68,25.24c-.67,0-1.34.2-2.08.6-.67.4-1.27,1.14-1.68,2.14-.4,1.01-.6,2.35-.6,3.89,0,2.55.54,4.76,1.54,6.63s2.35,2.81,4.02,2.81c1.27,0,2.28-.54,3.08-1.54s1.21-2.81,1.21-5.29c0-3.15-.67-5.56-2.01-7.37-.94-1.21-2.08-1.88-3.48-1.88h0Z"/>
      <path class="st4" d="M159.25,25.84v11.59c0,1.68.2,2.68.54,3.15.47.54,1.14.87,1.88.87h1.61v.67h-10.52v-.67h.8c.54,0,1.01-.13,1.41-.4s.74-.6.87-1.01c.13-.47.27-1.27.27-2.55v-11.59h-3.42v-1.41h3.42v-1.14c0-1.74.27-3.22.87-4.49.54-1.21,1.41-2.21,2.61-2.95,1.14-.74,2.48-1.14,3.89-1.14s2.61.4,3.69,1.34c.74.6,1.14,1.21,1.14,1.94,0,.4-.13.74-.47,1.07-.34.34-.67.54-1.07.54-.27,0-.6-.13-.94-.34s-.74-.67-1.21-1.34-.94-1.14-1.34-1.41c-.4-.27-.87-.34-1.34-.34-.6,0-1.07.13-1.47.47s-.74.8-.87,1.47-.27,2.35-.27,5.09v1.27h4.56v1.41h-4.56l-.07-.13v.03Z"/>
      <path class="st4" d="M169.16,38.37c.6,0,1.14.2,1.54.6s.6.94.6,1.54-.2,1.07-.6,1.54c-.4.4-.94.6-1.54.6s-1.07-.2-1.54-.6c-.4-.4-.6-.94-.6-1.54s.2-1.14.6-1.54.94-.6,1.54-.6Z"/>
      <path class="st4" d="M184.58,42.13v-.74h1.01c1.07,0,1.88-.34,2.35-1.07.27-.4.4-1.34.4-2.81v-16.82c0-1.61-.2-2.68-.54-3.08-.47-.54-1.27-.87-2.21-.87h-1.01v-.74h10.59c3.89,0,6.84.47,8.91,1.34,2.01.87,3.69,2.35,4.89,4.42,1.27,2.08,1.88,4.42,1.88,7.17,0,3.62-1.07,6.63-3.28,9.11-2.48,2.75-6.23,4.09-11.33,4.09h-11.66ZM192.08,40.25c1.61.34,3.02.54,4.09.54,2.95,0,5.43-1.07,7.44-3.15,1.94-2.08,2.95-4.96,2.95-8.51s-1.01-6.43-2.95-8.51-4.49-3.15-7.57-3.15c-1.14,0-2.48.2-3.95.54v22.25h0Z"/>
      <path class="st4" d="M218.75,23.97v3.95c1.47-2.61,3.02-3.95,4.56-3.95.74,0,1.27.2,1.74.67.47.4.67.94.67,1.47,0,.47-.13.94-.47,1.27-.34.34-.74.54-1.21.54s-.94-.2-1.54-.67c-.54-.47-1.01-.67-1.27-.67-.2,0-.47.13-.74.4-.6.54-1.14,1.41-1.81,2.61v8.44c0,1.01.13,1.68.34,2.21.13.34.47.6.87.87.4.27,1.01.34,1.81.34v.67h-9.05v-.67c.87,0,1.54-.13,2.01-.4.34-.2.54-.54.67-1.01,0-.2.07-.8.07-1.88v-6.84c0-2.08,0-3.28-.13-3.69-.07-.4-.27-.67-.47-.87s-.54-.27-.8-.27c-.4,0-.87.07-1.34.27l-.2-.67,5.36-2.14h.94v.02Z"/>
      <path class="st4" d="M228.27,38.37c.6,0,1.14.2,1.54.6s.6.94.6,1.54-.2,1.07-.6,1.54c-.4.4-.94.6-1.54.6s-1.07-.2-1.54-.6c-.4-.4-.6-.94-.6-1.54s.2-1.14.6-1.54.94-.6,1.54-.6Z"/>
      <path class="st4" d="M257.49,15.46c3.42,0,6.3,1.27,8.78,3.89,2.48,2.55,3.75,5.76,3.75,9.65s-1.27,7.24-3.75,9.85-5.5,3.95-9.05,3.95-6.63-1.27-9.05-3.82c-2.41-2.55-3.69-5.83-3.69-9.92s1.41-7.51,4.22-10.12c2.48-2.28,5.36-3.42,8.78-3.42v-.07h0ZM257.08,16.8c-2.35,0-4.22.87-5.63,2.61-1.74,2.14-2.61,5.29-2.61,9.45s.94,7.51,2.75,9.85c1.41,1.74,3.22,2.61,5.56,2.61,2.48,0,4.49-.94,6.1-2.88,1.61-1.94,2.41-4.89,2.41-9.05,0-4.49-.87-7.77-2.61-9.99-1.41-1.74-3.35-2.61-5.83-2.61h-.14Z"/>
      <path class="st4" d="M298.16,42.13h-6.97l-8.85-12.2h-2.75v7.57c0,1.68.2,2.68.54,3.08.47.54,1.21.87,2.21.87h1.01v.74h-11.19v-.74h1.01c1.07,0,1.88-.34,2.35-1.07.27-.4.4-1.34.4-2.81v-16.82c0-1.68-.2-2.68-.54-3.08-.47-.54-1.27-.87-2.21-.87h-1.01v-.74h9.52c2.75,0,4.82.2,6.1.6,1.34.4,2.41,1.14,3.35,2.21s1.41,2.35,1.41,3.89-.54,3.02-1.54,4.15c-1.07,1.21-2.68,2.01-4.82,2.48l5.36,7.51c1.21,1.74,2.28,2.88,3.15,3.42s2.01.94,3.48,1.07v.74h0ZM279.6,28.72h1.07c2.48,0,4.36-.54,5.63-1.61,1.27-1.07,1.88-2.48,1.88-4.09s-.54-2.95-1.54-3.95c-1.01-1.01-2.35-1.54-4.02-1.54-.74,0-1.74.13-3.02.34v10.86h0Z"/>
      <path class="st4" d="M305.87,28.12h12.13v-7.44c0-1.34-.07-2.21-.27-2.61-.13-.34-.4-.6-.8-.8-.54-.34-1.14-.47-1.74-.47h-.94v-.74h11.19v.74h-.94c-.6,0-1.21.13-1.74.47-.4.2-.67.54-.8.94s-.2,1.27-.2,2.55v16.82c0,1.34.07,2.21.27,2.61.13.34.4.6.8.8.54.34,1.14.47,1.74.47h.94v.74h-11.19v-.74h.94c1.07,0,1.81-.34,2.35-.94.34-.4.47-1.41.47-2.95v-7.97h-12.13v7.97c0,1.34.07,2.21.27,2.61.13.34.4.6.8.8.54.34,1.14.47,1.74.47h.94v.74h-11.19v-.74h.94c1.07,0,1.88-.34,2.35-.94.34-.4.47-1.41.47-2.95v-16.82c0-1.34-.07-2.21-.27-2.61-.13-.34-.4-.6-.8-.8-.54-.34-1.14-.47-1.74-.47h-.94v-.74h11.19v.74h-.94c-.6,0-1.21.13-1.74.47-.4.2-.67.54-.8.94s-.2,1.27-.2,2.55v7.44l-.13-.13h-.03Z"/>
      <path class="st4" d="M344.27,33.35h-10.12l-1.74,4.09c-.4,1.01-.67,1.74-.67,2.28,0,.4.2.74.54,1.07.4.27,1.21.47,2.48.6v.74h-8.24v-.74c1.07-.2,1.81-.47,2.14-.74.67-.6,1.41-1.88,2.14-3.75l9.18-21.44h.67l9.11,21.71c.74,1.74,1.41,2.88,2.01,3.42s1.41.8,2.48.87v.74h-10.32v-.74c1.07,0,1.74-.2,2.08-.54.34-.34.54-.67.54-1.07,0-.54-.27-1.47-.8-2.68l-1.54-3.75.07-.07h-.01ZM343.73,31.94l-4.42-10.52-4.56,10.52h8.98Z"/>
      <path class="st4" d="M354.19,15.99h7.1l15.95,19.57v-15.08c0-1.61-.2-2.61-.54-3.02-.47-.54-1.21-.8-2.28-.8h-.87v-.74h9.11v.74h-.94c-1.07,0-1.88.34-2.35,1.01-.27.4-.4,1.34-.4,2.81v21.98h-.67l-17.22-21.04v16.08c0,1.61.2,2.61.54,3.02.47.54,1.21.8,2.28.8h.94v.74h-9.11v-.74h.87c1.14,0,1.88-.34,2.35-1.01.27-.4.4-1.34.4-2.81v-18.16c-.74-.87-1.34-1.47-1.74-1.74s-.94-.54-1.74-.8c-.4-.13-.94-.2-1.68-.2v-.74.13h0Z"/>
      <path class="st4" d="M421,15.99v.74c-.94.13-1.61.47-2.08.87-.67.6-1.27,1.61-1.81,2.88l-9.11,22.18h-.74l-9.78-22.52c-.47-1.14-.87-1.88-1.07-2.14-.34-.4-.74-.74-1.21-.94s-1.14-.4-1.88-.4v-.74h10.66v.74c-1.21.13-2.01.34-2.35.6s-.54.67-.54,1.14c0,.67.27,1.68.87,3.02l6.63,15.28,6.17-15.08c.6-1.47.94-2.55.94-3.08,0-.4-.2-.74-.54-1.07-.34-.34-1.01-.6-1.88-.74h-.34v-.74h8.06Z"/>
      <path class="st4" d="M429.71,17.47v10.32h5.76c1.47,0,2.48-.2,2.95-.67.67-.6,1.07-1.61,1.14-3.15h.74v9.11h-.74c-.2-1.27-.34-2.08-.54-2.41-.27-.47-.6-.8-1.14-1.07-.54-.27-1.34-.4-2.41-.4h-5.76v8.58c0,1.14,0,1.88.13,2.08.13.27.27.47.54.6.27.13.74.2,1.47.2h4.42c1.47,0,2.55-.07,3.22-.34.67-.2,1.34-.6,1.94-1.21.8-.8,1.61-2.01,2.48-3.62h.74l-2.28,6.57h-20.1v-.74h.94c.6,0,1.21-.13,1.74-.47.4-.2.67-.54.8-.94s.2-1.27.2-2.55v-16.95c0-1.68-.2-2.68-.54-3.08-.47-.54-1.21-.74-2.28-.74h-.94v-.74h20.1l.27,5.7h-.74c-.27-1.41-.54-2.35-.87-2.81s-.8-.87-1.47-1.14c-.54-.2-1.41-.27-2.75-.27h-7.17l.13.13h.02Z"/>
      <path class="st4" d="M468.18,34.89l.6.13-2.21,7.1h-20.17v-.74h1.01c1.07,0,1.88-.34,2.35-1.07.27-.4.4-1.34.4-2.88v-16.82c0-1.61-.2-2.68-.54-3.08-.54-.54-1.27-.87-2.21-.87h-1.01v-.74h11.79v.74c-1.41,0-2.35.13-2.95.4-.54.27-.94.6-1.14,1.01s-.34,1.41-.34,2.95v16.42c0,1.07.13,1.81.34,2.21.13.27.4.47.74.6.34.13,1.34.2,3.02.2h1.88c2.01,0,3.42-.13,4.22-.47.8-.27,1.54-.8,2.21-1.54s1.34-1.94,2.01-3.55h0Z"/>
      <path class="st4" d="M481.78,41.39v.74h-11.19v-.74h.94c1.07,0,1.88-.34,2.35-.94.34-.4.47-1.41.47-2.95v-16.82c0-1.34-.07-2.21-.27-2.61-.13-.34-.4-.6-.8-.8-.54-.34-1.14-.47-1.74-.47h-.94v-.74h11.19v.74h-.94c-1.07,0-1.81.34-2.35.94-.34.4-.47,1.41-.47,2.95v16.82c0,1.34.07,2.21.27,2.61.13.34.4.6.8.8.54.34,1.14.47,1.74.47h.94ZM476.22,9.22c.6,0,1.07.2,1.47.6.4.4.6.87.6,1.47s-.2,1.07-.6,1.47-.87.6-1.47.6-1.07-.2-1.47-.6c-.4-.4-.6-.87-.6-1.47s.2-1.07.6-1.47.87-.6,1.47-.6Z"/>
      <path class="st4" d="M493.31,42.13v-.74h1.01c1.07,0,1.88-.34,2.35-1.07.27-.4.4-1.34.4-2.81v-16.82c0-1.61-.2-2.68-.54-3.08-.47-.54-1.27-.87-2.21-.87h-1.01v-.74h10.59c3.89,0,6.84.47,8.91,1.34,2.01.87,3.69,2.35,4.89,4.42s1.88,4.42,1.88,7.17c0,3.62-1.07,6.63-3.28,9.11-2.48,2.75-6.23,4.09-11.33,4.09h-11.66ZM500.75,40.25c1.61.34,3.02.54,4.09.54,2.95,0,5.43-1.07,7.44-3.15,1.94-2.08,2.95-4.96,2.95-8.51s-1.01-6.43-2.95-8.51-4.49-3.15-7.57-3.15c-1.14,0-2.48.2-3.95.54v22.25h-.01Z"/>
      <path class="st4" d="M535.46,15.46c3.42,0,6.3,1.27,8.78,3.89,2.48,2.55,3.75,5.76,3.75,9.65s-1.27,7.24-3.75,9.85-5.56,3.95-9.11,3.95-6.63-1.27-9.05-3.82c-2.48-2.55-3.69-5.83-3.69-9.92s1.41-7.51,4.22-10.12c2.48-2.28,5.36-3.42,8.78-3.42l.07-.07h0ZM535.12,16.8c-2.35,0-4.22.87-5.63,2.61-1.74,2.14-2.61,5.29-2.61,9.45s.94,7.51,2.75,9.85c1.41,1.74,3.22,2.61,5.56,2.61,2.48,0,4.49-.94,6.1-2.88,1.61-1.94,2.41-4.89,2.41-9.05,0-4.49-.87-7.77-2.61-9.99-1.41-1.74-3.35-2.61-5.83-2.61h-.14Z"/>
      <path class="st4" d="M573.72,15.46l.67,8.24h-.67c-.67-2.08-1.54-3.62-2.61-4.62-1.54-1.47-3.55-2.28-5.96-2.28-3.35,0-5.83,1.34-7.57,3.95-1.47,2.21-2.14,4.89-2.14,7.91,0,2.48.47,4.76,1.47,6.84.94,2.08,2.21,3.55,3.75,4.49,1.54.94,3.15,1.41,4.82,1.41.94,0,1.88-.13,2.81-.34.87-.27,1.74-.6,2.61-1.07v-7.57c0-1.34-.07-2.14-.27-2.55s-.54-.74-.94-.94-1.14-.34-2.21-.34v-.74h10.12v.74h-.47c-1.01,0-1.68.34-2.08,1.01-.27.47-.4,1.41-.4,2.81v7.97c-1.47.8-2.95,1.41-4.36,1.74-1.41.4-3.02.54-4.76.54-5.03,0-8.85-1.61-11.46-4.82-1.94-2.41-2.95-5.23-2.95-8.38,0-2.28.54-4.49,1.68-6.57,1.34-2.48,3.08-4.42,5.36-5.76,1.94-1.14,4.15-1.68,6.77-1.68.94,0,1.81.07,2.61.2s1.88.47,3.28,1.01c.74.27,1.21.4,1.41.4s.47-.13.6-.34c.2-.2.27-.67.34-1.34h.74l-.2.07h.01ZM559.58,8.35h.6c.4.8.94,1.34,1.47,1.68.94.54,2.08.8,3.48.8s2.55-.27,3.48-.8c.67-.34,1.14-.94,1.34-1.68h.6c-.13,1.61-.74,2.88-1.74,3.89-1.07,1.01-2.28,1.47-3.75,1.47s-2.68-.47-3.69-1.47c-1.07-1.01-1.68-2.28-1.81-3.89h.02Z"/>
      <path class="st4" d="M596.04,33.35h-10.12l-1.74,4.09c-.47,1.01-.67,1.74-.67,2.28,0,.4.2.74.54,1.07.4.27,1.21.47,2.48.6v.74h-8.24v-.74c1.07-.2,1.81-.47,2.14-.74.67-.6,1.41-1.88,2.21-3.75l9.18-21.44h.67l9.11,21.71c.74,1.74,1.41,2.88,2.01,3.42s1.41.8,2.48.87v.74h-10.32v-.74c1.07,0,1.74-.2,2.08-.54.34-.34.54-.67.54-1.07,0-.54-.27-1.47-.8-2.68l-1.61-3.75.07-.07h-.01ZM595.5,31.94l-4.42-10.52-4.56,10.52h8.98Z"/>
      <path class="st4" d="M605.96,15.99h7.1l15.95,19.57v-15.08c0-1.61-.2-2.61-.54-3.02-.47-.54-1.21-.8-2.28-.8h-.87v-.74h9.11v.74h-.94c-1.07,0-1.88.34-2.35,1.01-.27.4-.4,1.34-.4,2.81v21.98h-.67l-17.22-21.04v16.08c0,1.61.2,2.61.54,3.02.47.54,1.21.8,2.28.8h.94v.74h-9.11v-.74h.87c1.14,0,1.88-.34,2.35-1.01.27-.4.4-1.34.4-2.81v-18.16c-.74-.87-1.34-1.47-1.74-1.74s-.94-.54-1.74-.8c-.4-.13-.94-.2-1.68-.2v-.74.13h0Z"/>
    </g>
    <g>
      <path class="st4" d="M106.85,65.76l7.95,7.91c1.3,1.3,2.42,2.19,3.34,2.66s1.84.74,2.77.8v.59h-10.26v-.59c.61,0,1.06-.1,1.33-.31.27-.21.41-.44.41-.69s-.05-.48-.15-.68c-.1-.2-.43-.58-.99-1.13l-7.44-7.36v6.95c0,1.09.07,1.81.21,2.16.11.26.33.49.67.68.46.25.94.38,1.45.38h.73v.59h-9.19v-.59h.76c.89,0,1.54-.26,1.94-.78.25-.34.38-1.16.38-2.45v-13.93c0-1.09-.07-1.82-.21-2.18-.11-.25-.32-.48-.65-.67-.47-.25-.96-.38-1.46-.38h-.76v-.59h9.19v.59h-.73c-.5,0-.98.12-1.45.37-.33.17-.56.42-.68.76-.13.34-.19,1.04-.19,2.1v6.6c.21-.2.94-.87,2.18-2.02,3.15-2.88,5.05-4.81,5.71-5.77.29-.42.43-.8.43-1.11,0-.24-.11-.46-.33-.64-.22-.19-.6-.28-1.13-.28h-.49v-.59h7.92v.59c-.47.01-.89.07-1.27.19s-.85.34-1.4.68c-.55.33-1.23.87-2.04,1.61-.23.21-1.31,1.3-3.23,3.26l-3.29,3.28h-.03Z"/>
      <path class="st4" d="M129.91,75.62c-1.49,1.16-2.43,1.82-2.82,2-.57.26-1.18.4-1.83.4-1.01,0-1.84-.35-2.49-1.03-.65-.69-.98-1.6-.98-2.72,0-.71.16-1.33.48-1.84.44-.72,1.19-1.4,2.27-2.04s2.87-1.41,5.37-2.32v-.57c0-1.45-.23-2.45-.69-2.99s-1.13-.81-2.01-.81c-.67,0-1.2.18-1.59.54-.4.36-.6.77-.6,1.24l.03.92c0,.49-.12.86-.37,1.13s-.58.4-.98.4-.71-.14-.96-.41c-.25-.28-.37-.65-.37-1.13,0-.91.47-1.75,1.4-2.51s2.24-1.15,3.93-1.15c1.29,0,2.35.22,3.18.65.63.33,1.09.84,1.38,1.54.19.46.29,1.39.29,2.8v4.95c0,1.39.03,2.24.08,2.55s.14.52.26.63.26.16.42.16c.17,0,.32-.04.45-.11.22-.14.65-.52,1.29-1.16v.89c-1.19,1.59-2.32,2.39-3.4,2.39-.52,0-.93-.18-1.24-.54-.31-.36-.47-.98-.48-1.84l-.02-.02ZM129.91,74.59v-5.55c-1.6.64-2.64,1.09-3.1,1.35-.84.47-1.44.95-1.8,1.46s-.54,1.07-.54,1.67c0,.76.23,1.4.68,1.9.46.5.98.75,1.57.75.81,0,1.87-.53,3.18-1.59h.01Z"/>
      <path class="st4" d="M141.13,55.1v19.32c0,.91.07,1.52.2,1.81.13.3.34.52.61.68.28.15.79.23,1.54.23v.57h-7.14v-.57c.67,0,1.12-.07,1.37-.21s.44-.37.57-.68c.14-.32.21-.93.21-1.83v-13.23c0-1.64-.04-2.65-.11-3.03s-.19-.63-.36-.77-.37-.21-.63-.21c-.28,0-.63.09-1.05.25l-.27-.56,4.34-1.78h.72Z"/>
      <path class="st4" d="M144.12,64.6l4.49-1.81h.6v3.4c.75-1.28,1.51-2.18,2.27-2.7s1.56-.77,2.39-.77c1.46,0,2.68.57,3.66,1.72,1.2,1.4,1.8,3.22,1.8,5.47,0,2.51-.72,4.59-2.16,6.24-1.19,1.35-2.68,2.02-4.48,2.02-.78,0-1.46-.11-2.04-.33-.42-.16-.9-.48-1.43-.95v4.44c0,1,.06,1.63.18,1.9s.33.48.64.64c.3.16.85.24,1.65.24v.59h-7.63v-.59h.4c.58,0,1.08-.1,1.49-.33.2-.12.36-.3.47-.57.11-.26.17-.92.17-1.98v-13.77c0-.94-.04-1.54-.13-1.8-.09-.26-.22-.45-.41-.57-.19-.13-.44-.19-.76-.19-.25,0-.58.07-.97.22l-.19-.51h0ZM149.21,67.13v5.44c0,1.18.05,1.95.14,2.32.15.61.51,1.16,1.09,1.62.58.47,1.31.7,2.19.7,1.06,0,1.92-.41,2.58-1.24.86-1.08,1.29-2.6,1.29-4.57,0-2.23-.49-3.94-1.46-5.14-.68-.83-1.48-1.24-2.42-1.24-.51,0-1.01.13-1.51.38-.38.19-1.01.76-1.89,1.72h0Z"/>
      <path class="st4" d="M168.85,63.15h6.85v.59h-.45c-.41,0-.73.1-.95.3s-.33.47-.33.81c0,.37.11.81.33,1.32l3.39,8.05,3.4-8.35c.24-.59.37-1.04.37-1.35,0-.15-.04-.27-.13-.36-.12-.16-.26-.27-.44-.33-.18-.06-.55-.09-1.1-.09v-.59h4.76v.59c-.55.04-.93.15-1.15.33-.37.32-.71.85-1,1.59l-5.17,12.5h-.65l-5.2-12.29c-.23-.57-.46-.98-.67-1.23-.21-.25-.48-.46-.81-.63-.18-.1-.54-.19-1.07-.27v-.59h.02Z"/>
      <path class="st4" d="M188.33,68.64c-.01,2.16.51,3.86,1.57,5.09,1.06,1.23,2.31,1.84,3.74,1.84.95,0,1.78-.26,2.49-.79.7-.52,1.3-1.42,1.77-2.7l.49.32c-.22,1.45-.87,2.78-1.94,3.97-1.07,1.19-2.41,1.79-4.02,1.79-1.75,0-3.25-.68-4.49-2.04s-1.87-3.19-1.87-5.5c0-2.49.64-4.43,1.92-5.83,1.28-1.39,2.88-2.09,4.81-2.09,1.63,0,2.97.54,4.02,1.61s1.57,2.52,1.57,4.32h-10.07.01ZM188.33,67.72h6.74c-.05-.93-.16-1.59-.33-1.97-.26-.59-.66-1.06-1.18-1.4-.52-.34-1.07-.51-1.65-.51-.88,0-1.67.34-2.36,1.03-.7.68-1.1,1.64-1.22,2.86h0Z"/>
      <path class="st4" d="M208.02,77.72v-.59h.81c.91,0,1.56-.29,1.94-.87.23-.35.35-1.13.35-2.35v-13.93c0-1.35-.15-2.19-.45-2.53-.41-.47-1.03-.7-1.84-.7h-.81v-.59h8.78c3.22,0,5.68.37,7.36,1.1,1.68.73,3.03,1.95,4.06,3.66,1.02,1.71,1.54,3.68,1.54,5.92,0,3-.91,5.51-2.74,7.52-2.05,2.25-5.16,3.37-9.35,3.37h-9.65ZM214.18,76.16c1.35.3,2.48.45,3.39.45,2.46,0,4.5-.86,6.12-2.59,1.62-1.73,2.43-4.07,2.43-7.03s-.81-5.33-2.43-7.05-3.71-2.58-6.25-2.58c-.95,0-2.04.15-3.26.46v18.34Z"/>
      <path class="st4" d="M240.26,75.62c-1.49,1.16-2.43,1.82-2.82,2-.57.26-1.18.4-1.83.4-1.01,0-1.84-.35-2.49-1.03-.65-.69-.98-1.6-.98-2.72,0-.71.16-1.33.48-1.84.44-.72,1.19-1.4,2.27-2.04s2.87-1.41,5.37-2.32v-.57c0-1.45-.23-2.45-.69-2.99s-1.13-.81-2.01-.81c-.67,0-1.2.18-1.59.54-.4.36-.6.77-.6,1.24l.03.92c0,.49-.12.86-.37,1.13s-.58.4-.98.4-.71-.14-.96-.41c-.25-.28-.37-.65-.37-1.13,0-.91.47-1.75,1.4-2.51s2.24-1.15,3.93-1.15c1.29,0,2.35.22,3.18.65.63.33,1.09.84,1.38,1.54.19.46.29,1.39.29,2.8v4.95c0,1.39.03,2.24.08,2.55s.14.52.26.63.26.16.42.16c.17,0,.32-.04.45-.11.22-.14.65-.52,1.29-1.16v.89c-1.19,1.59-2.32,2.39-3.4,2.39-.52,0-.93-.18-1.24-.54s-.47-.98-.48-1.84l-.02-.02ZM240.26,74.59v-5.55c-1.6.64-2.64,1.09-3.1,1.35-.84.47-1.44.95-1.8,1.46s-.54,1.07-.54,1.67c0,.76.23,1.4.68,1.9.46.5.98.75,1.57.75.81,0,1.87-.53,3.18-1.59h.01Z"/>
      <path class="st4" d="M250.79,65.83c1.06-1.06,1.68-1.67,1.88-1.83.48-.4.99-.72,1.54-.94.55-.22,1.1-.33,1.64-.33.91,0,1.7.26,2.35.8.66.53,1.1,1.3,1.32,2.31,1.09-1.27,2.01-2.11,2.77-2.51.75-.4,1.53-.6,2.32-.6s1.46.2,2.06.6,1.07,1.05,1.42,1.95c.23.61.35,1.58.35,2.89v6.27c0,.91.07,1.54.21,1.88.11.23.3.43.59.6.29.16.75.25,1.4.25v.57h-7.19v-.57h.3c.62,0,1.11-.12,1.46-.36.24-.17.42-.44.52-.81.04-.18.06-.7.06-1.54v-6.27c0-1.19-.14-2.03-.43-2.51-.41-.68-1.08-1.02-1.99-1.02-.56,0-1.13.14-1.69.42-.57.28-1.25.8-2.06,1.57l-.03.17.03.68v6.95c0,1,.06,1.62.17,1.86.11.24.32.45.63.61s.83.25,1.58.25v.57h-7.36v-.57c.81,0,1.36-.09,1.66-.29.3-.19.51-.48.63-.86.05-.18.08-.7.08-1.57v-6.27c0-1.19-.17-2.04-.52-2.56-.47-.68-1.12-1.02-1.96-1.02-.57,0-1.14.15-1.7.46-.88.47-1.56.99-2.03,1.58v7.81c0,.95.07,1.57.2,1.86s.33.5.59.64.79.21,1.58.21v.57h-7.21v-.57c.67,0,1.13-.07,1.4-.21s.47-.37.61-.68c.14-.31.21-.92.21-1.82v-5.57c0-1.6-.05-2.63-.14-3.1-.07-.35-.19-.59-.35-.72-.16-.13-.38-.2-.65-.2-.3,0-.65.08-1.07.24l-.24-.57,4.39-1.78h.68v3.1-.02Z"/>
      <path class="st4" d="M280.06,75.62c-1.49,1.16-2.43,1.82-2.82,2-.57.26-1.18.4-1.83.4-1.01,0-1.84-.35-2.49-1.03-.65-.69-.98-1.6-.98-2.72,0-.71.16-1.33.48-1.84.44-.72,1.19-1.4,2.27-2.04s2.87-1.41,5.37-2.32v-.57c0-1.45-.23-2.45-.69-2.99s-1.13-.81-2.01-.81c-.67,0-1.2.18-1.59.54-.4.36-.6.77-.6,1.24l.03.92c0,.49-.12.86-.37,1.13s-.58.4-.98.4-.71-.14-.96-.41c-.25-.28-.37-.65-.37-1.13,0-.91.47-1.75,1.4-2.51s2.24-1.15,3.93-1.15c1.29,0,2.35.22,3.18.65.63.33,1.09.84,1.38,1.54.19.46.29,1.39.29,2.8v4.95c0,1.39.03,2.24.08,2.55s.14.52.26.63.26.16.42.16c.17,0,.32-.04.45-.11.22-.14.65-.52,1.29-1.16v.89c-1.19,1.59-2.32,2.39-3.4,2.39-.52,0-.93-.18-1.24-.54s-.47-.98-.48-1.84l-.02-.02ZM280.06,74.59v-5.55c-1.6.64-2.64,1.09-3.1,1.35-.84.47-1.44.95-1.8,1.46s-.54,1.07-.54,1.67c0,.76.23,1.4.68,1.9.46.5.98.75,1.57.75.81,0,1.87-.53,3.18-1.59h.01Z"/>
      <path class="st4" d="M290.52,62.72v3.28c1.22-2.18,2.47-3.28,3.75-3.28.58,0,1.07.18,1.45.53s.57.77.57,1.23c0,.41-.14.76-.41,1.05-.28.29-.61.43-.99.43s-.79-.18-1.25-.55-.8-.55-1.03-.55c-.19,0-.4.11-.62.32-.48.44-.97,1.15-1.48,2.15v6.98c0,.81.1,1.41.3,1.83.14.29.38.52.73.72s.85.29,1.51.29v.57h-7.46v-.57c.74,0,1.29-.12,1.65-.35.26-.17.45-.44.56-.81.05-.18.08-.7.08-1.54v-5.65c0-1.7-.03-2.71-.1-3.03s-.2-.56-.38-.71c-.19-.15-.42-.22-.69-.22-.33,0-.7.08-1.11.24l-.16-.57,4.41-1.78h.67,0Z"/>
      <path class="st4" d="M323.84,55.66l.49,7.33h-.49c-.66-2.2-1.6-3.77-2.82-4.74-1.22-.96-2.68-1.45-4.39-1.45-1.43,0-2.73.36-3.88,1.09-1.16.73-2.07,1.89-2.73,3.48s-.99,3.57-.99,5.93c0,1.95.31,3.64.94,5.07s1.57,2.53,2.82,3.29c1.26.76,2.69,1.15,4.3,1.15,1.4,0,2.64-.3,3.71-.9,1.07-.6,2.25-1.79,3.53-3.57l.49.32c-1.08,1.92-2.34,3.32-3.79,4.22-1.44.89-3.15,1.34-5.14,1.34-3.57,0-6.34-1.32-8.3-3.98-1.46-1.97-2.19-4.29-2.19-6.97,0-2.15.48-4.13,1.45-5.93s2.29-3.2,3.98-4.19c1.69-.99,3.54-1.49,5.54-1.49,1.56,0,3.1.38,4.61,1.15.45.23.76.35.96.35.29,0,.54-.1.75-.3.28-.29.47-.68.59-1.19h.56Z"/>
      <path class="st4" d="M329.43,68.64c-.01,2.16.51,3.86,1.57,5.09,1.06,1.23,2.31,1.84,3.74,1.84.95,0,1.78-.26,2.49-.79.7-.52,1.3-1.42,1.77-2.7l.49.32c-.22,1.45-.87,2.78-1.94,3.97-1.07,1.19-2.41,1.79-4.02,1.79-1.75,0-3.25-.68-4.49-2.04s-1.87-3.19-1.87-5.5c0-2.49.64-4.43,1.92-5.83,1.28-1.39,2.88-2.09,4.81-2.09,1.63,0,2.97.54,4.02,1.61s1.57,2.52,1.57,4.32h-10.07.01ZM329.43,67.72h6.74c-.05-.93-.16-1.59-.33-1.97-.26-.59-.66-1.06-1.18-1.4-.52-.34-1.07-.51-1.65-.51-.88,0-1.67.34-2.36,1.03-.7.68-1.1,1.64-1.22,2.86h0Z"/>
      <path class="st4" d="M345.7,62.72v3.28c1.22-2.18,2.47-3.28,3.75-3.28.58,0,1.07.18,1.45.53s.57.77.57,1.23c0,.41-.14.76-.41,1.05-.28.29-.61.43-.99.43s-.79-.18-1.25-.55-.8-.55-1.03-.55c-.19,0-.4.11-.62.32-.48.44-.97,1.15-1.48,2.15v6.98c0,.81.1,1.41.3,1.83.14.29.38.52.73.72s.85.29,1.51.29v.57h-7.46v-.57c.74,0,1.29-.12,1.65-.35.26-.17.45-.44.56-.81.05-.18.08-.7.08-1.54v-5.65c0-1.7-.03-2.71-.1-3.03s-.2-.56-.38-.71c-.19-.15-.42-.22-.69-.22-.33,0-.7.08-1.11.24l-.16-.57,4.41-1.78h.67,0Z"/>
      <path class="st4" d="M356.54,62.72v3.28c1.22-2.18,2.47-3.28,3.75-3.28.58,0,1.07.18,1.45.53s.57.77.57,1.23c0,.41-.14.76-.41,1.05-.28.29-.61.43-.99.43s-.79-.18-1.25-.55-.8-.55-1.03-.55c-.19,0-.4.11-.62.32-.48.44-.97,1.15-1.48,2.15v6.98c0,.81.1,1.41.3,1.83.14.29.38.52.73.72s.85.29,1.51.29v.57h-7.46v-.57c.74,0,1.29-.12,1.65-.35.26-.17.45-.44.56-.81.05-.18.08-.7.08-1.54v-5.65c0-1.7-.03-2.71-.1-3.03s-.2-.56-.38-.71c-.19-.15-.42-.22-.69-.22-.33,0-.7.08-1.11.24l-.16-.57,4.41-1.78h.67,0Z"/>
      <path class="st4" d="M371.38,75.62c-1.49,1.16-2.43,1.82-2.82,2-.57.26-1.18.4-1.83.4-1.01,0-1.84-.35-2.49-1.03-.65-.69-.98-1.6-.98-2.72,0-.71.16-1.33.48-1.84.44-.72,1.19-1.4,2.27-2.04s2.87-1.41,5.37-2.32v-.57c0-1.45-.23-2.45-.69-2.99s-1.13-.81-2.01-.81c-.67,0-1.2.18-1.59.54-.4.36-.6.77-.6,1.24l.03.92c0,.49-.12.86-.37,1.13s-.58.4-.98.4-.71-.14-.96-.41c-.25-.28-.37-.65-.37-1.13,0-.91.47-1.75,1.4-2.51s2.24-1.15,3.93-1.15c1.29,0,2.35.22,3.18.65.63.33,1.09.84,1.38,1.54.19.46.29,1.39.29,2.8v4.95c0,1.39.03,2.24.08,2.55s.14.52.26.63.26.16.42.16c.17,0,.32-.04.45-.11.22-.14.65-.52,1.29-1.16v.89c-1.19,1.59-2.32,2.39-3.4,2.39-.52,0-.93-.18-1.24-.54s-.47-.98-.48-1.84l-.02-.02ZM371.38,74.59v-5.55c-1.6.64-2.64,1.09-3.1,1.35-.84.47-1.44.95-1.8,1.46s-.54,1.07-.54,1.67c0,.76.23,1.4.68,1.9.46.5.98.75,1.57.75.81,0,1.87-.53,3.18-1.59h.01Z"/>
      <path class="st4" d="M381.87,55.1v10.66c1.18-1.29,2.11-2.12,2.8-2.49.69-.36,1.38-.55,2.07-.55.83,0,1.54.23,2.13.68s1.03,1.17,1.32,2.15c.2.68.3,1.92.3,3.72v5.15c0,.92.07,1.55.22,1.89.11.25.29.46.54.6s.72.22,1.4.22v.57h-7.16v-.57h.33c.68,0,1.15-.1,1.42-.31s.45-.51.56-.91c.03-.17.05-.67.05-1.49v-5.15c0-1.59-.08-2.64-.25-3.13s-.43-.87-.79-1.12c-.36-.25-.8-.37-1.3-.37s-1.06.14-1.62.41c-.56.28-1.23.83-2.02,1.67v7.7c0,1,.06,1.62.17,1.86s.32.45.62.61.82.25,1.57.25v.57h-7.22v-.57c.65,0,1.16-.1,1.53-.3.21-.11.38-.31.51-.6.13-.3.19-.9.19-1.81v-13.19c0-1.66-.04-2.69-.12-3.07s-.2-.64-.37-.78-.38-.21-.66-.21c-.22,0-.58.09-1.08.25l-.22-.56,4.36-1.78h.73-.01Z"/>
      <path class="st4" d="M398.9,62.72v11.71c0,.91.07,1.52.2,1.82s.33.53.59.68.73.22,1.42.22v.57h-7.08v-.57c.71,0,1.19-.07,1.43-.21s.44-.37.58-.68c.14-.32.21-.93.21-1.83v-5.61c0-1.58-.05-2.6-.14-3.07-.07-.34-.19-.58-.35-.71s-.38-.2-.65-.2c-.3,0-.66.08-1.08.24l-.22-.57,4.39-1.78h.7,0ZM397.58,55.1c.45,0,.82.16,1.14.47.31.31.47.69.47,1.14s-.16.83-.47,1.15-.69.48-1.14.48-.83-.16-1.15-.48-.48-.7-.48-1.15.16-.82.47-1.14c.31-.31.7-.47,1.15-.47h.01Z"/>
      <path class="st4" d="M412.34,62.72v4.96h-.52c-.4-1.56-.92-2.62-1.55-3.18s-1.43-.84-2.41-.84c-.74,0-1.34.2-1.8.59s-.68.83-.68,1.31c0,.59.17,1.1.51,1.53.33.44,1,.9,2,1.38l2.32,1.13c2.15,1.05,3.23,2.43,3.23,4.15,0,1.33-.5,2.39-1.5,3.21-1,.81-2.12,1.22-3.36,1.22-.89,0-1.91-.16-3.05-.48-.35-.11-.64-.16-.86-.16-.24,0-.44.14-.57.41h-.52v-5.2h.52c.3,1.48.86,2.6,1.7,3.36.84.75,1.78,1.13,2.82,1.13.73,0,1.33-.22,1.79-.64s.69-.95.69-1.55c0-.73-.26-1.35-.77-1.84s-1.54-1.13-3.08-1.89-2.54-1.45-3.02-2.07c-.48-.6-.72-1.37-.72-2.29,0-1.2.41-2.2,1.23-3.01s1.89-1.21,3.19-1.21c.57,0,1.27.12,2.08.37.54.16.9.24,1.08.24.17,0,.3-.04.4-.11.1-.07.21-.24.33-.49h.52v-.03Z"/>
      <path class="st4" d="M420.63,62.72v11.71c0,.91.07,1.52.2,1.82s.33.53.59.68.73.22,1.42.22v.57h-7.08v-.57c.71,0,1.19-.07,1.43-.21s.44-.37.58-.68c.14-.32.21-.93.21-1.83v-5.61c0-1.58-.05-2.6-.14-3.07-.07-.34-.19-.58-.35-.71s-.38-.2-.65-.2c-.3,0-.66.08-1.08.24l-.22-.57,4.39-1.78h.7,0ZM419.31,55.1c.45,0,.82.16,1.14.47.31.31.47.69.47,1.14s-.16.83-.47,1.15-.69.48-1.14.48-.83-.16-1.15-.48-.48-.7-.48-1.15.16-.82.47-1.14c.31-.31.7-.47,1.15-.47h.01Z"/>
      <path class="st4" d="M433.09,69.21h8.22v2.4h-8.22v-2.4Z"/>
      <path class="st4" d="M473.3,56.15v.59c-.76.14-1.34.38-1.73.73-.56.52-1.06,1.32-1.49,2.39l-7.52,18.35h-.59l-8.08-18.59c-.41-.95-.71-1.54-.87-1.75-.26-.33-.59-.59-.98-.77-.39-.19-.91-.3-1.57-.36v-.59h8.81v.59c-1,.1-1.64.27-1.94.51s-.45.56-.45.94c0,.53.24,1.36.73,2.48l5.49,12.64,5.09-12.49c.5-1.23.75-2.08.75-2.56,0-.31-.15-.6-.46-.88s-.83-.48-1.56-.6c-.05-.01-.14-.03-.27-.05v-.59h6.65,0Z"/>
      <path class="st4" d="M479.36,75.62c-1.49,1.16-2.43,1.82-2.82,2-.57.26-1.18.4-1.83.4-1.01,0-1.84-.35-2.49-1.03-.65-.69-.98-1.6-.98-2.72,0-.71.16-1.33.48-1.84.44-.72,1.19-1.4,2.27-2.04s2.87-1.41,5.37-2.32v-.57c0-1.45-.23-2.45-.69-2.99s-1.13-.81-2.01-.81c-.67,0-1.2.18-1.59.54-.4.36-.6.77-.6,1.24l.03.92c0,.49-.12.86-.37,1.13s-.58.4-.98.4-.71-.14-.96-.41c-.25-.28-.37-.65-.37-1.13,0-.91.47-1.75,1.4-2.51.93-.76,2.24-1.15,3.93-1.15,1.29,0,2.35.22,3.18.65.63.33,1.09.84,1.38,1.54.19.46.29,1.39.29,2.8v4.95c0,1.39.03,2.24.08,2.55s.14.52.26.63.26.16.42.16c.17,0,.32-.04.45-.11.22-.14.65-.52,1.29-1.16v.89c-1.19,1.59-2.32,2.39-3.4,2.39-.52,0-.93-.18-1.24-.54s-.47-.98-.48-1.84l-.02-.02ZM479.36,74.59v-5.55c-1.6.64-2.64,1.09-3.1,1.35-.84.47-1.44.95-1.8,1.46s-.54,1.07-.54,1.67c0,.76.23,1.4.68,1.9.46.5.98.75,1.57.75.81,0,1.87-.53,3.18-1.59h0Z"/>
      <path class="st4" d="M489.83,62.72v3.28c1.22-2.18,2.47-3.28,3.75-3.28.58,0,1.07.18,1.45.53s.57.77.57,1.23c0,.41-.14.76-.41,1.05-.28.29-.61.43-.99.43s-.79-.18-1.25-.55-.8-.55-1.03-.55c-.19,0-.4.11-.62.32-.48.44-.97,1.15-1.48,2.15v6.98c0,.81.1,1.41.3,1.83.14.29.38.52.73.72s.85.29,1.51.29v.57h-7.46v-.57c.74,0,1.29-.12,1.65-.35.26-.17.45-.44.56-.81.05-.18.08-.7.08-1.54v-5.65c0-1.7-.03-2.71-.1-3.03s-.2-.56-.38-.71c-.19-.15-.42-.22-.69-.22-.33,0-.7.08-1.11.24l-.16-.57,4.41-1.78h.67,0Z"/>
      <path class="st4" d="M501.44,62.72v11.71c0,.91.07,1.52.2,1.82s.33.53.59.68.73.22,1.42.22v.57h-7.08v-.57c.71,0,1.19-.07,1.43-.21s.44-.37.58-.68c.14-.32.21-.93.21-1.83v-5.61c0-1.58-.05-2.6-.14-3.07-.07-.34-.19-.58-.35-.71s-.38-.2-.65-.2c-.3,0-.66.08-1.08.24l-.22-.57,4.39-1.78h.7,0ZM500.12,55.1c.45,0,.82.16,1.14.47.31.31.47.69.47,1.14s-.16.83-.47,1.15-.69.48-1.14.48-.83-.16-1.15-.48-.48-.7-.48-1.15.16-.82.47-1.14c.31-.31.7-.47,1.15-.47h.01Z"/>
      <path class="st4" d="M514.88,62.72v4.96h-.52c-.4-1.56-.92-2.62-1.55-3.18s-1.43-.84-2.41-.84c-.74,0-1.34.2-1.8.59-.46.39-.68.83-.68,1.31,0,.59.17,1.1.51,1.53.33.44,1,.9,2,1.38l2.32,1.13c2.15,1.05,3.23,2.43,3.23,4.15,0,1.33-.5,2.39-1.5,3.21-1,.81-2.12,1.22-3.36,1.22-.89,0-1.91-.16-3.05-.48-.35-.11-.64-.16-.86-.16-.24,0-.44.14-.57.41h-.52v-5.2h.52c.3,1.48.86,2.6,1.7,3.36.84.75,1.78,1.13,2.82,1.13.73,0,1.33-.22,1.79-.64s.69-.95.69-1.55c0-.73-.26-1.35-.77-1.84s-1.54-1.13-3.08-1.89c-1.54-.76-2.54-1.45-3.02-2.07-.48-.6-.72-1.37-.72-2.29,0-1.2.41-2.2,1.23-3.01s1.89-1.21,3.19-1.21c.57,0,1.27.12,2.08.37.54.16.9.24,1.08.24.17,0,.3-.04.4-.11.1-.07.21-.24.33-.49h.52v-.03Z"/>
      <path class="st4" d="M543.52,56.15l.24,5.06h-.6c-.12-.89-.28-1.53-.48-1.91-.33-.61-.77-1.07-1.31-1.36-.55-.29-1.26-.44-2.15-.44h-3.04v16.48c0,1.33.14,2.15.43,2.48.4.45,1.02.67,1.86.67h.75v.59h-9.15v-.59h.76c.91,0,1.56-.28,1.94-.83.23-.34.35-1.11.35-2.32v-16.48h-2.59c-1.01,0-1.72.07-2.15.22-.55.2-1.02.59-1.42,1.16-.39.57-.63,1.35-.7,2.32h-.6l.25-5.06h17.61Z"/>
      <path class="st4" d="M545.77,68.64c-.01,2.16.51,3.86,1.57,5.09,1.06,1.23,2.31,1.84,3.74,1.84.95,0,1.78-.26,2.49-.79.7-.52,1.3-1.42,1.77-2.7l.49.32c-.22,1.45-.87,2.78-1.94,3.97-1.07,1.19-2.41,1.79-4.02,1.79-1.75,0-3.25-.68-4.49-2.04s-1.87-3.19-1.87-5.5c0-2.49.64-4.43,1.92-5.83,1.28-1.39,2.88-2.09,4.81-2.09,1.63,0,2.97.54,4.02,1.61s1.57,2.52,1.57,4.32h-10.07.01ZM545.77,67.72h6.74c-.05-.93-.16-1.59-.33-1.97-.26-.59-.66-1.06-1.18-1.4-.52-.34-1.07-.51-1.65-.51-.88,0-1.67.34-2.36,1.03-.7.68-1.1,1.64-1.22,2.86h0Z"/>
      <path class="st4" d="M568.07,76.08c-.71.74-1.41,1.28-2.08,1.6-.68.32-1.41.49-2.2.49-1.59,0-2.98-.67-4.17-2s-1.78-3.04-1.78-5.13.66-4,1.97-5.73c1.32-1.73,3.01-2.6,5.07-2.6,1.28,0,2.34.41,3.18,1.22v-2.69c0-1.66-.04-2.69-.12-3.07s-.2-.64-.37-.78-.38-.21-.64-.21c-.28,0-.64.09-1.1.25l-.21-.56,4.34-1.78h.72v16.84c0,1.71.04,2.75.12,3.13s.21.64.38.79.38.22.61.22c.29,0,.67-.09,1.15-.27l.17.56-4.33,1.8h-.73v-2.08h.02ZM568.07,74.97v-7.51c-.06-.72-.25-1.38-.57-1.97-.32-.59-.74-1.04-1.26-1.34-.52-.3-1.04-.45-1.54-.45-.93,0-1.77.42-2.5,1.26-.96,1.1-1.45,2.71-1.45,4.83s.47,3.78,1.4,4.92c.93,1.14,1.97,1.71,3.12,1.71.96,0,1.9-.48,2.8-1.45h0Z"/>
      <path class="st4" d="M582.32,75.62c-1.49,1.16-2.43,1.82-2.82,2-.57.26-1.18.4-1.83.4-1.01,0-1.84-.35-2.49-1.03-.65-.69-.98-1.6-.98-2.72,0-.71.16-1.33.48-1.84.44-.72,1.19-1.4,2.27-2.04s2.87-1.41,5.37-2.32v-.57c0-1.45-.23-2.45-.69-2.99s-1.13-.81-2.01-.81c-.67,0-1.2.18-1.59.54-.4.36-.6.77-.6,1.24l.03.92c0,.49-.12.86-.37,1.13s-.58.4-.98.4-.71-.14-.96-.41c-.25-.28-.37-.65-.37-1.13,0-.91.47-1.75,1.4-2.51.93-.76,2.24-1.15,3.93-1.15,1.29,0,2.35.22,3.18.65.63.33,1.09.84,1.38,1.54.19.46.29,1.39.29,2.8v4.95c0,1.39.03,2.24.08,2.55s.14.52.26.63.26.16.42.16c.17,0,.32-.04.45-.11.22-.14.65-.52,1.29-1.16v.89c-1.19,1.59-2.32,2.39-3.4,2.39-.52,0-.93-.18-1.24-.54s-.47-.98-.48-1.84l-.02-.02ZM582.32,74.59v-5.55c-1.6.64-2.64,1.09-3.1,1.35-.84.47-1.44.95-1.8,1.46s-.54,1.07-.54,1.67c0,.76.23,1.4.68,1.9.46.5.98.75,1.57.75.81,0,1.87-.53,3.18-1.59h0Z"/>
      <path class="st4" d="M587.77,63.15h6.85v.59h-.45c-.41,0-.73.1-.95.3s-.33.47-.33.81c0,.37.11.81.33,1.32l3.39,8.05,3.4-8.35c.24-.59.37-1.04.37-1.35,0-.15-.04-.27-.13-.36-.12-.16-.26-.27-.44-.33-.18-.06-.55-.09-1.1-.09v-.59h4.76v.59c-.55.04-.93.15-1.15.33-.37.32-.71.85-1,1.59l-5.17,12.5h-.65l-5.2-12.29c-.23-.57-.46-.98-.67-1.23-.21-.25-.48-.46-.81-.63-.18-.1-.54-.19-1.07-.27v-.59h.02Z"/>
      <path class="st4" d="M609.83,62.72v11.71c0,.91.07,1.52.2,1.82s.33.53.59.68.73.22,1.42.22v.57h-7.08v-.57c.71,0,1.19-.07,1.43-.21s.44-.37.58-.68c.14-.32.21-.93.21-1.83v-5.61c0-1.58-.05-2.6-.14-3.07-.07-.34-.19-.58-.35-.71s-.38-.2-.65-.2c-.3,0-.66.08-1.08.24l-.22-.57,4.39-1.78h.7,0ZM608.51,55.1c.45,0,.82.16,1.14.47.31.31.47.69.47,1.14s-.16.83-.47,1.15-.69.48-1.14.48-.83-.16-1.15-.48-.48-.7-.48-1.15.16-.82.47-1.14c.31-.31.7-.47,1.15-.47h.01Z"/>
      <path class="st4" d="M623.27,62.72v4.96h-.52c-.4-1.56-.92-2.62-1.55-3.18s-1.43-.84-2.41-.84c-.74,0-1.34.2-1.8.59-.46.39-.68.83-.68,1.31,0,.59.17,1.1.51,1.53.33.44,1,.9,2,1.38l2.32,1.13c2.15,1.05,3.23,2.43,3.23,4.15,0,1.33-.5,2.39-1.5,3.21-1,.81-2.12,1.22-3.36,1.22-.89,0-1.91-.16-3.05-.48-.35-.11-.64-.16-.86-.16-.24,0-.44.14-.57.41h-.52v-5.2h.52c.3,1.48.86,2.6,1.7,3.36.84.75,1.78,1.13,2.82,1.13.73,0,1.33-.22,1.79-.64s.69-.95.69-1.55c0-.73-.26-1.35-.77-1.84s-1.54-1.13-3.08-1.89c-1.54-.76-2.54-1.45-3.02-2.07-.48-.6-.72-1.37-.72-2.29,0-1.2.41-2.2,1.23-3.01s1.89-1.21,3.19-1.21c.57,0,1.27.12,2.08.37.54.16.9.24,1.08.24.17,0,.3-.04.4-.11.1-.07.21-.24.33-.49h.52v-.03Z"/>
      <path class="st4" d="M631.56,62.72v11.71c0,.91.07,1.52.2,1.82s.33.53.59.68.73.22,1.42.22v.57h-7.08v-.57c.71,0,1.19-.07,1.43-.21s.44-.37.58-.68c.14-.32.21-.93.21-1.83v-5.61c0-1.58-.05-2.6-.14-3.07-.07-.34-.19-.58-.35-.71s-.38-.2-.65-.2c-.3,0-.66.08-1.08.24l-.22-.57,4.39-1.78h.7,0ZM630.24,55.1c.45,0,.82.16,1.14.47.31.31.47.69.47,1.14s-.16.83-.47,1.15-.69.48-1.14.48-.83-.16-1.15-.48-.48-.7-.48-1.15.16-.82.47-1.14c.31-.31.7-.47,1.15-.47h.01Z"/>
    </g>
  </g>
</svg>