<?xml version="1.0" encoding="UTF-8"?>
<svg id="Layer_1" xmlns="http://www.w3.org/2000/svg" version="1.1" xmlns:xlink="http://www.w3.org/1999/xlink" viewBox="0 0 746.86 200">
  <!-- Generator: Adobe Illustrator 30.2.1, SVG Export Plug-In . SVG Version: 2.1.1 Build 1)  -->
  <defs>
    <style>
      .st0 {
        fill: #e7e5dc;
      }

      .st1 {
        fill: url(#Adsız_degrade_3);
      }

      .st2 {
        fill: #fff;
      }

      .st3 {
        fill: url(#Adsız_degrade_4);
      }

      .st4 {
        fill: #183a2a;
      }

      .st5 {
        fill: url(#Adsız_degrade);
      }

      .st6 {
        fill: #993c23;
      }

      .st7 {
        fill: url(#Adsız_degrade_5);
      }

      .st8 {
        fill: url(#Adsız_degrade_2);
      }

      .st9 {
        fill: #243e7e;
      }
    </style>
    <linearGradient id="Adsız_degrade" data-name="Adsız degrade" x1="107.24" y1="131.79" x2="142.95" y2="131.79" gradientTransform="translate(0 199.89) scale(1 -1)" gradientUnits="userSpaceOnUse">
      <stop offset="0" stop-color="#006743"/>
      <stop offset="1" stop-color="#005535"/>
    </linearGradient>
    <linearGradient id="Adsız_degrade_2" data-name="Adsız degrade 2" x1="56.49" y1="92.61" x2="95.1" y2="92.61" gradientTransform="translate(0 199.89) scale(1 -1)" gradientUnits="userSpaceOnUse">
      <stop offset="0" stop-color="#006743"/>
      <stop offset="1" stop-color="#005535"/>
    </linearGradient>
    <linearGradient id="Adsız_degrade_3" data-name="Adsız degrade 3" x1="96.72" y1="88.58" x2="120.84" y2="88.58" gradientTransform="translate(0 199.89) scale(1 -1)" gradientUnits="userSpaceOnUse">
      <stop offset="0" stop-color="#006743"/>
      <stop offset="1" stop-color="#005535"/>
    </linearGradient>
    <linearGradient id="Adsız_degrade_4" data-name="Adsız degrade 4" x1="108.27" y1="132.62" x2="133.13" y2="132.62" gradientTransform="translate(0 199.89) scale(1 -1)" gradientUnits="userSpaceOnUse">
      <stop offset="0" stop-color="#006743"/>
      <stop offset="1" stop-color="#005535"/>
    </linearGradient>
    <radialGradient id="Adsız_degrade_5" data-name="Adsız degrade 5" cx="99.63" cy="99.89" fx="99.63" fy="99.89" r="96.74" gradientTransform="translate(0 199.89) scale(1 -1)" gradientUnits="userSpaceOnUse">
      <stop offset="0" stop-color="#91918e"/>
      <stop offset="1" stop-color="#e7e5dc"/>
    </radialGradient>
  </defs>
  <rect class="st2" x="136.86" y="53.38" width="610" height="93.25" rx="13.54" ry="13.54"/>
  <circle class="st2" cx="99.63" cy="100" r="99.63"/>
  <g>
    <g>
      <path class="st9" d="M90.43,42.51s-11.26-16.34-32.74-5.31c0,0-16.57,9.09-8.32,29.39,0,0,2.74,11.63,15.86,14.8,0,0-6.98-5.73-6.43-15.1.55-9.35,7.46-13.32,7.46-13.32,0,0-11.65,1.91-11.9,11.74,0,0-4.75-12.93,5.71-21.72,0,0,12.05-12.21,30.37-.47h-.01Z"/>
      <path class="st6" d="M63.1,45.61s10.24-3.65,17.64,3.96c0,0,3.65,4.36,5.17,8.92,0,0,2.29,5.71,4.72,7.66,0,0,6.65-4.94.49-11.72l-4.9-3.96s-.19-5.25-7.79-7.53c0,0-9.15-3.35-15.34,2.66h.01Z"/>
      <path class="st9" d="M45.39,58.28s-.47,16.6,16.55,24.37c0,0,12.42,5.55,14.96-10.79,2.53-16.34-7.68-22.23-12.55-20.48,0,0-6.66,1.23-9.56,6.27,0,0-.6-2.22,2.86-6.39,0,0,6.9-7.42,17.6-1.98,0,0,9.95,5.12,7.97,21.21,0,0-1.75,17.68-17.45,17.04,0,0-23.5-1.77-20.38-29.26h0Z"/>
      <circle class="st9" cx="96.14" cy="37.94" r="3.07"/>
      <circle class="st9" cx="96.14" cy="47.77" r="5.24"/>
      <path class="st6" d="M110.64,48.21s-10.74,1.64-13.58,11.6l-1.7,3.37-3.21,3.09s-6.99,4.59-5.7,11.86c0,0,.76,4.51,3.85,6.98,0,0,1.74-.5,1.4-3.7,0,0-1.95-4.29-1.06-6.82l4.09-4.82,6.46-5.27s3.86-3.3,9.44-16.28h0Z"/>
      <path class="st9" d="M94.08,75.57v9.27s1.5.64,3.72-3.57l.39-9.6-4.13,3.88h.01Z"/>
      <path class="st6" d="M99.68,68.91s-.9,4.02.37,5.81c0,0,2.17,5.39-3.97,10.31,0,0-8.88,5.6-5.71,13.06,0,0,.85,2.69,3.49,3.92,0,0-.46-2.48-1.1-4.19,0,0-.76-3.8,2.53-6.78,0,0,7.5-4.79,9.12-10.5,0,0,1.19-4.2-.68-7.73,0,0-2.5-4.01-3.72-4.13l-.34.24h0Z"/>
      <path class="st9" d="M94.82,94.97l.52,15.59.37,2.17.8-2.12.8-18.56s-1.27.31-2.48,2.91h-.01Z"/>
      <path class="st0" d="M67.64,89.21s3.54.1,6.07-.9c0,0,12.21,10.31,13.58,12.05,0,0,7.56,6.29,8.19,18.34l-.42.05s-1.48-5.24-5.03-9.62c0,0-7.77-9.09-22.41-19.93h.01Z"/>
      <path class="st6" d="M98.75,40.81s4.09.99,4.28,5.39c0,0,6.62-8.45,15.19-8.45,0,0,12.38-2.04,20.1,7.95,0,0-2.27-11.42-22.52-12.58,0,0-9.73-.18-17.04,7.68h0Z"/>
      <g>
        <path class="st5" d="M140.78,51.7s-3.33-8.65-14.75-11.65c0,0-13.4-2.33-18.79,5.18,0,0,13.22-7.67,23.42,3.85,0,0,13.37,10.94-3.36,35.68,0,0-6.74,8.14-11.34,11.74h7.08s8.99-6.24,15.75-18.08c0,0,7.85-13.87,1.98-26.72h.01Z"/>
        <path class="st8" d="M75.47,99.25c-4.81-3.33-10.84-9.78-10.84-9.78-4.6-.1-8.14-2.91-8.14-2.91,2.12,4.55,12.53,13.79,12.53,13.79l10.63,8.95c10.9,8.09,15.42,18.68,15.42,18.68.28-4.05-1.71-7.3-1.71-7.3-2.46-10.46-17.89-21.43-17.89-21.43h0Z"/>
        <path class="st1" d="M101.16,111.41s-4.28,5.39-4.44,12.32c0,0,4.7-10.2,13.37-16.01l10.75-8.83h-7.5s-5.58,3.92-12.19,12.53h.01Z"/>
      </g>
      <path class="st6" d="M99.36,89.9s-1.58.74-.52,5.66c0,0,.85,2.27-.64,4.96l-.37,2.22s2.01-.37,3.75-4.13c0,0,1.42-2.91-.26-6.29,0,0-.9-1.91-1.96-2.43h0Z"/>
      <path class="st3" d="M108.51,54.8l4.05-6.27s11.18-2.53,17.76,7.54c0,0,5.94,8.49.55,18.16l-2.22,4.68-2.53,3.64s-2.53,3.72-7.69,3.72h-10.07s-.37-.5.39-.8c0,0,1.5.18,1.66-2.06l.52-26.03s1.8-2.53,5.13-2.74v27.06s-.59,1.42,2.69.42c0,0,4.6-1.16,7.08-6.07,0,0,2.12-5.34.95-13.48,0,0-.74-7.03-8.35-9.35,0,0-4.81-1.27-9.94,1.58h.01Z"/>
    </g>
    <g>
      <path class="st4" d="M56.68,143.25c.84-.02,1.66-.02,1.66-.65v-9.78c0-.63-.84-.63-1.66-.65v-.85h6.39c2.55,0,4.9.84,4.9,3.65,0,2.09-1.87,3.61-4.68,3.61-.65,0-1.17-.02-1.64-.09v4.11c0,.63.46.63,1.91.65v.85h-6.87v-.85h0ZM61.65,137.63c.2.05.42.09.71.09,1.33,0,2.22-.97,2.22-2.76,0-1.55-.51-2.8-2.15-2.8h-.17c-.39,0-.62.07-.62.46v5h.01Z"/>
      <path class="st4" d="M69.04,143.33c.65-.02,1.13-.06,1.13-.51v-6.07c0-.24-.13-.35-.39-.35-.22,0-.58.05-.74.11v-.96c.84,0,2.55-.2,2.89-.46h.51v1.93c0,.09.02.15.09.15s.15-.13.35-.44c.4-.63,1.5-1.63,2.41-1.63.82,0,1.26.84,1.26,1.66,0,.78-.31,1.44-1.11,1.44-.93,0-.74-1.37-1.46-1.37-.42,0-1.29.74-1.29,2.46v3.41c0,.42.35.65,2,.65h.15v.78h-5.8v-.78h0Z"/>
      <path class="st4" d="M81.89,135.06c2.84,0,4.48,2.13,4.48,4.63s-1.64,4.63-4.48,4.63-4.48-2.13-4.48-4.63,1.64-4.63,4.48-4.63ZM81.89,143.48c1.26,0,1.71-1.87,1.71-3.78s-.44-3.77-1.71-3.77-1.71,1.87-1.71,3.77.44,3.78,1.71,3.78Z"/>
      <path class="st4" d="M87.57,143.33c.63-.02,1.11-.06,1.11-.53v-6.41h-1.11v-.85h1.11v-1.18c0-2.13,1.61-3.46,3.65-3.46.95,0,1.76.33,1.76,1.41,0,.58-.42,1.22-1,1.22-1.02,0-1.02-1.55-1.87-1.55-.33,0-.6.29-.6.8,0,.53.58,1.31.58,2.77h2.63v.85h-2.63v6.41c0,.29.15.53,1.86.53h.15v.78h-5.63v-.78h-.01Z"/>
      <path class="st4" d="M96.81,141.22c.84,0,1.5.67,1.5,1.5s-.67,1.5-1.5,1.5-1.5-.67-1.5-1.5.67-1.5,1.5-1.5Z"/>
      <path class="st4" d="M110.54,131.02c3.61,0,6.02,2.93,6.02,6.54,0,4.08-2.55,6.83-6.02,6.83s-6.02-2.76-6.02-6.83c0-3.61,2.41-6.54,6.02-6.54ZM110.54,143.55c2.13,0,2.5-2.17,2.5-5.87s-.37-5.87-2.5-5.87-2.5,2.17-2.5,5.87.37,5.87,2.5,5.87Z"/>
      <path class="st4" d="M118.43,133.66c-.5-1.33-.98-1.48-1.66-1.48v-.85h6.78v.85c-.95,0-1.63.09-1.63.63,0,.42.2.98.39,1.53l2.35,6.76h.04l2.46-6.8c.17-.46.37-.95.37-1.46,0-.6-.58-.67-1.64-.67v-.85h4.19v.85c-.62,0-1.18.31-1.57,1.35l-4.17,10.88h-1.78l-4.12-10.75h-.01Z"/>
      <path class="st4" d="M131.12,143.25c.84-.02,1.66-.02,1.66-.65v-9.78c0-.63-.84-.63-1.66-.65v-.85h6.93c4.19,0,6.25,2.66,6.25,6.45,0,4.1-2.15,6.34-6.72,6.34h-6.45v-.87ZM136.09,142.6c0,.65.65.65,1.28.65,1.35,0,3.3-.28,3.3-5.76,0-3.43-.89-5.32-3.11-5.32-.82,0-1.46,0-1.46.65v9.78h-.01Z"/>
    </g>
    <g>
      <path class="st4" d="M60.99,152.37v1.14c0,.25.03.4.08.46.07.08.18.13.33.13h.15v.11h-1.69v-.11h.15c.16,0,.28-.05.35-.16.04-.06.06-.2.06-.42v-2.53c0-.25-.03-.4-.08-.46-.07-.08-.19-.13-.33-.13h-.15v-.11h1.44c.35,0,.63.04.83.11s.37.19.51.36.21.37.21.62c0,.32-.1.59-.31.79-.21.2-.51.3-.9.3-.09,0-.2,0-.3-.02-.11-.01-.23-.03-.35-.06h-.01ZM60.99,152.2c.1.02.19.03.27.04.08,0,.15.01.2.01.2,0,.37-.08.52-.23.14-.15.22-.35.22-.61,0-.17-.03-.32-.1-.47s-.17-.25-.29-.33c-.13-.07-.27-.11-.43-.11-.1,0-.22.02-.38.05v1.65Z"/>
      <path class="st4" d="M64.04,151.48v.6c.22-.39.45-.6.69-.6.11,0,.19.03.26.1.07.06.1.14.1.22,0,.07-.02.14-.07.19s-.11.08-.18.08-.14-.03-.23-.1c-.08-.07-.15-.1-.19-.1-.03,0-.07.02-.11.06-.09.08-.17.21-.27.39v1.27c0,.15.02.25.05.33.02.05.07.09.13.13.06.04.15.05.27.05v.1h-1.36v-.1c.13,0,.23-.02.3-.06.05-.03.08-.08.1-.15,0-.03.01-.12.01-.28v-1.03c0-.31,0-.49-.02-.55-.01-.06-.04-.1-.07-.13s-.08-.04-.12-.04c-.06,0-.13.01-.2.04l-.03-.1.81-.32h.14Z"/>
      <path class="st4" d="M66.54,151.48c.4,0,.73.15.97.45.21.26.31.55.31.9,0,.24-.06.47-.17.72s-.27.42-.47.55c-.2.12-.42.18-.67.18-.4,0-.72-.16-.95-.47-.2-.27-.3-.57-.3-.91,0-.24.06-.48.18-.73s.28-.41.47-.53c.2-.11.4-.17.63-.17h0ZM66.45,151.67c-.1,0-.2.03-.31.09-.1.06-.19.17-.25.32-.06.15-.09.35-.09.59,0,.38.08.72.23,1s.35.42.61.42c.19,0,.34-.08.46-.23s.18-.42.18-.8c0-.47-.1-.84-.3-1.11-.14-.18-.31-.28-.52-.28h0Z"/>
      <path class="st4" d="M69.25,151.76v1.75c0,.25.03.4.08.47.07.08.17.13.28.13h.24v.1h-1.58v-.1h.12c.08,0,.15-.02.21-.06s.11-.09.13-.15c.02-.07.04-.19.04-.38v-1.75h-.51v-.21h.51v-.17c0-.26.04-.48.13-.68.08-.18.21-.33.39-.44.17-.11.37-.17.59-.17s.39.06.55.2c.11.09.17.18.17.29,0,.06-.02.11-.07.16s-.1.08-.16.08c-.04,0-.09-.02-.14-.05s-.11-.1-.18-.2c-.07-.1-.14-.17-.2-.21-.06-.04-.13-.05-.2-.05-.09,0-.16.02-.22.07s-.11.12-.13.22-.04.35-.04.77v.19h.69v.21h-.69v-.02Z"/>
      <path class="st4" d="M70.74,153.65c.09,0,.17.03.23.09s.09.14.09.23-.03.16-.09.23c-.06.06-.14.09-.23.09s-.16-.03-.23-.09c-.06-.06-.09-.14-.09-.23s.03-.17.09-.23.14-.09.23-.09Z"/>
      <path class="st4" d="M73.06,154.21v-.11h.15c.16,0,.28-.05.35-.16.04-.06.06-.2.06-.42v-2.53c0-.24-.03-.4-.08-.46-.07-.08-.19-.13-.33-.13h-.15v-.11h1.59c.59,0,1.03.07,1.34.2.3.13.55.35.74.67.19.31.28.67.28,1.08,0,.54-.16,1-.49,1.37-.37.41-.94.62-1.71.62h-1.76ZM74.19,153.93c.24.05.45.08.62.08.44,0,.82-.16,1.12-.47.29-.31.44-.75.44-1.28s-.15-.97-.44-1.28-.68-.47-1.14-.47c-.17,0-.37.03-.6.08v3.34h0Z"/>
      <path class="st4" d="M78.21,151.48v.6c.22-.39.45-.6.69-.6.11,0,.19.03.26.1.07.06.1.14.1.22,0,.07-.02.14-.07.19s-.11.08-.18.08-.14-.03-.23-.1c-.08-.07-.15-.1-.19-.1-.03,0-.07.02-.11.06-.09.08-.17.21-.27.39v1.27c0,.15.02.25.05.33.02.05.07.09.13.13.06.04.15.05.27.05v.1h-1.36v-.1c.13,0,.23-.02.3-.06.05-.03.08-.08.1-.15,0-.03.01-.12.01-.28v-1.03c0-.31,0-.49-.02-.55-.01-.06-.04-.1-.07-.13s-.08-.04-.12-.04c-.06,0-.13.01-.2.04l-.03-.1.81-.32h.14Z"/>
      <path class="st4" d="M79.64,153.65c.09,0,.17.03.23.09s.09.14.09.23-.03.16-.09.23c-.06.06-.14.09-.23.09s-.16-.03-.23-.09c-.06-.06-.09-.14-.09-.23s.03-.17.09-.23.14-.09.23-.09Z"/>
      <path class="st4" d="M84.04,150.2c.51,0,.95.19,1.32.59.37.38.57.87.57,1.45s-.19,1.09-.57,1.48c-.37.39-.83.6-1.36.6s-1-.19-1.36-.58-.55-.88-.55-1.49.21-1.13.64-1.52c.37-.34.81-.51,1.32-.51h0ZM83.98,150.4c-.35,0-.64.13-.85.39-.26.32-.39.8-.39,1.42s.14,1.13.41,1.48c.21.26.48.39.84.39.37,0,.68-.14.92-.43s.36-.74.36-1.36c0-.68-.13-1.17-.39-1.5-.21-.26-.5-.39-.88-.39h-.02Z"/>
      <path class="st4" d="M90.16,154.21h-1.05l-1.33-1.84h-.41v1.14c0,.25.03.4.08.46.07.08.18.13.33.13h.15v.11h-1.69v-.11h.15c.16,0,.28-.05.35-.16.04-.06.06-.2.06-.42v-2.53c0-.25-.03-.4-.08-.46-.07-.08-.19-.13-.33-.13h-.15v-.11h1.43c.41,0,.73.03.92.09.2.06.36.17.5.33s.21.35.21.59-.08.45-.23.63c-.16.18-.4.3-.73.37l.81,1.13c.18.26.34.43.47.51.13.08.3.14.52.16v.11h0ZM87.37,152.19h.16c.37,0,.66-.08.85-.24.19-.16.28-.37.28-.62s-.08-.44-.23-.6-.35-.23-.61-.23c-.11,0-.26.02-.45.05,0,0,0,1.63,0,1.63Z"/>
      <path class="st4" d="M91.33,152.1h1.83v-1.12c0-.2-.01-.33-.04-.39-.02-.05-.06-.09-.12-.12-.08-.05-.17-.07-.26-.07h-.14v-.11h1.69v.11h-.14c-.09,0-.18.02-.26.07-.06.03-.1.08-.12.14s-.03.19-.03.38v2.53c0,.2.01.33.04.39.02.05.06.09.12.12.08.05.17.07.26.07h.14v.11h-1.69v-.11h.14c.16,0,.27-.05.35-.14.05-.06.07-.21.07-.44v-1.2h-1.83v1.2c0,.2.01.33.04.39.02.05.06.09.12.12.08.05.17.07.26.07h.14v.11h-1.69v-.11h.14c.16,0,.28-.05.35-.14.05-.06.07-.21.07-.44v-2.53c0-.2-.01-.33-.04-.39-.02-.05-.06-.09-.12-.12-.08-.05-.17-.07-.26-.07h-.14v-.11h1.69v.11h-.14c-.09,0-.18.02-.26.07-.06.03-.1.08-.12.14s-.03.19-.03.38v1.12l-.02-.02Z"/>
      <path class="st4" d="M97.11,152.89h-1.52l-.26.62c-.06.15-.1.26-.1.34,0,.06.03.11.08.16.06.04.18.07.37.09v.11h-1.24v-.11c.16-.03.27-.07.32-.11.1-.09.21-.28.32-.57l1.38-3.23h.1l1.37,3.27c.11.26.21.43.3.51.09.08.21.12.37.13v.11h-1.55v-.11c.16,0,.26-.03.31-.08s.08-.1.08-.16c0-.08-.04-.22-.12-.4l-.23-.57h.01ZM97.03,152.68l-.67-1.58-.69,1.58h1.35Z"/>
      <path class="st4" d="M98.6,150.28h1.07l2.4,2.95v-2.27c0-.24-.03-.39-.08-.45-.07-.08-.18-.12-.34-.12h-.13v-.11h1.37v.11h-.14c-.16,0-.28.05-.35.15-.04.06-.06.2-.06.42v3.31h-.1l-2.59-3.17v2.42c0,.24.03.39.08.45.07.08.18.12.34.12h.14v.11h-1.37v-.11h.13c.17,0,.28-.05.35-.15.04-.06.06-.2.06-.42v-2.73c-.11-.13-.2-.22-.26-.26-.06-.04-.14-.08-.26-.12-.06-.02-.14-.03-.25-.03v-.11.02Z"/>
      <path class="st4" d="M108.66,150.28v.11c-.14.02-.24.07-.31.13-.1.09-.19.24-.27.43l-1.37,3.34h-.11l-1.47-3.39c-.07-.17-.13-.28-.16-.32-.05-.06-.11-.11-.18-.14s-.17-.06-.28-.06v-.11h1.6v.11c-.18.02-.3.05-.35.09s-.08.1-.08.17c0,.1.04.25.13.45l1,2.3.93-2.27c.09-.22.14-.38.14-.46,0-.06-.03-.11-.08-.16s-.15-.09-.28-.11h-.05v-.11h1.21Z"/>
      <path class="st4" d="M109.97,150.5v1.55h.87c.22,0,.37-.03.44-.1.1-.09.16-.24.17-.47h.11v1.37h-.11c-.03-.19-.05-.31-.08-.36-.04-.07-.09-.12-.17-.16-.08-.04-.2-.06-.36-.06h-.87v1.29c0,.17,0,.28.02.31.02.04.04.07.08.09.04.02.11.03.22.03h.67c.22,0,.38-.01.48-.05.1-.03.2-.09.29-.18.12-.12.24-.3.37-.54h.11l-.34.99h-3.03v-.11h.14c.09,0,.18-.02.26-.07.06-.03.1-.08.12-.14.02-.06.03-.19.03-.38v-2.55c0-.25-.03-.4-.08-.46-.07-.08-.18-.11-.34-.11h-.14v-.11h3.03l.04.86h-.11c-.04-.21-.08-.35-.13-.42s-.12-.13-.22-.17c-.08-.03-.21-.04-.41-.04h-1.08l.02.02Z"/>
      <path class="st4" d="M115.76,153.12l.09.02-.33,1.07h-3.04v-.11h.15c.16,0,.28-.05.35-.16.04-.06.06-.2.06-.43v-2.53c0-.24-.03-.4-.08-.46-.08-.08-.19-.13-.33-.13h-.15v-.11h1.78v.11c-.21,0-.35.02-.44.06-.08.04-.14.09-.17.15s-.05.21-.05.44v2.47c0,.16.02.27.05.33.02.04.06.07.11.09.05.02.2.03.45.03h.28c.3,0,.51-.02.64-.07.12-.04.23-.12.33-.23s.2-.29.3-.53h0Z"/>
      <path class="st4" d="M117.81,154.1v.11h-1.69v-.11h.14c.16,0,.28-.05.35-.14.05-.06.07-.21.07-.44v-2.53c0-.2-.01-.33-.04-.39-.02-.05-.06-.09-.12-.12-.08-.05-.17-.07-.26-.07h-.14v-.11h1.69v.11h-.14c-.16,0-.27.05-.35.14-.05.06-.07.21-.07.44v2.53c0,.2.01.33.04.39.02.05.06.09.12.12.08.05.17.07.26.07h.14ZM116.98,149.26c.09,0,.16.03.22.09s.09.13.09.22-.03.16-.09.22-.13.09-.22.09-.16-.03-.22-.09-.09-.13-.09-.22.03-.16.09-.22.13-.09.22-.09Z"/>
      <path class="st4" d="M119.55,154.21v-.11h.15c.16,0,.28-.05.35-.16.04-.06.06-.2.06-.42v-2.53c0-.24-.03-.4-.08-.46-.07-.08-.19-.13-.33-.13h-.15v-.11h1.59c.59,0,1.03.07,1.34.2.3.13.55.35.74.67s.28.67.28,1.08c0,.54-.16,1-.49,1.37-.37.41-.94.62-1.71.62h-1.76ZM120.67,153.93c.24.05.45.08.62.08.44,0,.82-.16,1.12-.47.29-.31.44-.75.44-1.28s-.15-.97-.44-1.28-.68-.47-1.14-.47c-.17,0-.37.03-.6.08v3.34h0Z"/>
      <path class="st4" d="M125.9,150.2c.51,0,.95.19,1.32.59.37.38.57.87.57,1.45s-.19,1.09-.57,1.48-.84.6-1.37.6-1-.19-1.36-.58c-.37-.38-.55-.88-.55-1.49s.21-1.13.64-1.52c.37-.34.81-.51,1.32-.51h.01ZM125.84,150.4c-.35,0-.64.13-.85.39-.26.32-.39.8-.39,1.42s.14,1.13.41,1.48c.21.26.48.39.84.39.37,0,.68-.14.92-.43s.36-.74.36-1.36c0-.68-.13-1.17-.39-1.5-.21-.26-.5-.39-.88-.39h-.02Z"/>
      <path class="st4" d="M131.66,150.2l.1,1.24h-.1c-.1-.31-.23-.54-.39-.7-.23-.22-.53-.34-.9-.34-.5,0-.88.2-1.14.6-.22.33-.32.74-.32,1.19,0,.37.07.72.22,1.03.14.31.33.53.57.68s.47.21.73.21c.14,0,.28-.02.42-.05.13-.04.26-.09.39-.16v-1.14c0-.2-.01-.32-.04-.38s-.08-.11-.14-.14-.17-.05-.33-.05v-.11h1.52v.11h-.07c-.15,0-.25.05-.31.15-.04.07-.06.21-.06.42v1.2c-.22.12-.44.21-.66.26-.21.06-.45.08-.72.08-.76,0-1.33-.24-1.73-.73-.29-.36-.44-.79-.44-1.26,0-.34.08-.68.25-.99.2-.37.46-.67.81-.87.29-.17.63-.25,1.02-.25.14,0,.27.01.39.03s.28.07.49.15c.11.04.18.06.21.06s.07-.02.09-.05c.03-.03.04-.1.05-.2h.11-.03ZM129.53,149.13h.09c.06.12.14.2.22.25.14.08.31.12.52.12s.38-.04.52-.12c.1-.05.17-.14.2-.25h.09c-.02.24-.11.43-.26.59-.16.15-.34.22-.57.22s-.4-.07-.55-.22c-.16-.15-.25-.34-.27-.59Z"/>
      <path class="st4" d="M135.02,152.89h-1.52l-.26.62c-.07.15-.1.26-.1.34,0,.06.03.11.08.16.06.04.18.07.37.09v.11h-1.24v-.11c.16-.03.27-.07.32-.11.1-.09.21-.28.33-.57l1.38-3.23h.1l1.37,3.27c.11.26.21.43.3.51s.21.12.37.13v.11h-1.55v-.11c.16,0,.26-.03.31-.08s.08-.1.08-.16c0-.08-.04-.22-.12-.4l-.24-.57h.01ZM134.94,152.68l-.67-1.58-.69,1.58h1.35Z"/>
      <path class="st4" d="M136.51,150.28h1.07l2.4,2.95v-2.27c0-.24-.03-.39-.08-.45-.07-.08-.18-.12-.34-.12h-.13v-.11h1.37v.11h-.14c-.16,0-.28.05-.35.15-.04.06-.06.2-.06.42v3.31h-.1l-2.59-3.17v2.42c0,.24.03.39.08.45.07.08.18.12.34.12h.14v.11h-1.37v-.11h.13c.17,0,.28-.05.35-.15.04-.06.06-.2.06-.42v-2.73c-.11-.13-.2-.22-.26-.26s-.14-.08-.26-.12c-.06-.02-.14-.03-.25-.03v-.11.02Z"/>
      <path class="st4" d="M58.21,157.67l.1,1.49h-.1c-.13-.44-.32-.77-.58-.97-.25-.19-.54-.29-.89-.29-.29,0-.55.07-.79.22s-.42.38-.55.71c-.13.32-.2.73-.2,1.21,0,.39.06.74.19,1.03.13.29.32.51.58.67.25.15.54.23.88.23.28,0,.53-.06.76-.18s.45-.36.72-.73l.1.06c-.22.39-.47.68-.77.86s-.65.27-1.05.27c-.73,0-1.29-.27-1.69-.81-.29-.4-.44-.88-.44-1.41,0-.43.1-.84.29-1.21.19-.36.46-.66.81-.85.34-.2.72-.3,1.13-.3.31,0,.63.08.94.23.09.05.15.07.19.07.06,0,.11-.02.15-.06.06-.06.1-.14.12-.24h.11-.01Z"/>
      <path class="st4" d="M61.67,160.69h-1.7l-.29.7c-.07.17-.11.29-.11.38,0,.07.03.12.09.17s.2.08.41.1v.12h-1.38v-.12c.18-.03.3-.07.35-.12.11-.1.23-.31.36-.64l1.54-3.61h.11l1.52,3.65c.12.29.23.48.33.58.1.09.24.14.42.15v.12h-1.74v-.12c.17,0,.29-.04.35-.09s.09-.11.09-.18c0-.09-.04-.24-.13-.45l-.26-.63h.01ZM61.58,160.45l-.75-1.78-.77,1.78h1.51Z"/>
      <path class="st4" d="M67.89,162.16h-1.17l-1.48-2.05h-.46v1.27c0,.27.03.44.09.51.08.09.2.14.37.14h.17v.12h-1.88v-.12h.16c.18,0,.31-.06.39-.18.04-.07.07-.22.07-.47v-2.84c0-.27-.03-.44-.09-.51-.08-.09-.21-.14-.37-.14h-.16v-.12h1.59c.46,0,.81.03,1.03.1.22.07.41.19.57.37s.23.4.23.66c0,.27-.09.5-.26.71-.17.2-.44.33-.82.42l.91,1.26c.21.29.38.48.53.58.15.09.34.15.59.18v.12h-.01ZM64.78,159.9h.18c.41,0,.74-.09.95-.27.21-.18.32-.41.32-.7s-.08-.49-.25-.67-.4-.25-.68-.25c-.12,0-.29.02-.5.06v1.83h-.02Z"/>
      <path class="st4" d="M67.95,162.16v-.12h.16c.18,0,.31-.06.39-.18.05-.07.07-.23.07-.47v-2.84c0-.27-.03-.44-.09-.51-.08-.09-.21-.14-.37-.14h-.16v-.12h1.79c.66,0,1.15.07,1.49.22.34.15.62.39.83.75s.31.75.31,1.2c0,.62-.18,1.12-.55,1.53-.41.45-1.05.69-1.9.69h-1.97ZM69.21,161.84c.27.06.5.09.69.09.5,0,.92-.17,1.24-.52s.49-.83.49-1.43-.16-1.08-.49-1.43c-.33-.35-.76-.52-1.27-.52-.19,0-.41.03-.67.09v3.73h.01Z"/>
      <path class="st4" d="M74.67,162.04v.12h-1.88v-.12h.15c.18,0,.31-.05.39-.16.05-.07.08-.23.08-.49v-2.84c0-.22-.01-.37-.04-.44-.02-.05-.06-.1-.13-.14-.09-.05-.19-.08-.29-.08h-.15v-.12h1.88v.12h-.16c-.18,0-.31.05-.39.16-.05.07-.08.23-.08.49v2.84c0,.22.01.37.04.44.02.05.07.1.13.14.09.05.19.08.29.08h.16Z"/>
      <path class="st4" d="M77.25,157.67c.57,0,1.06.21,1.48.65s.63.97.63,1.61-.21,1.22-.63,1.65c-.42.44-.93.66-1.52.66s-1.11-.21-1.52-.65c-.41-.42-.62-.99-.62-1.66s.23-1.26.72-1.71c.41-.38.91-.58,1.48-.58l-.02.02ZM77.19,157.91c-.39,0-.71.14-.95.43-.29.36-.44.9-.44,1.59s.15,1.26.46,1.65c.23.29.54.44.93.44.41,0,.76-.16,1.02-.48.27-.32.4-.83.4-1.52,0-.75-.15-1.31-.44-1.68-.24-.29-.57-.44-.98-.44Z"/>
      <path class="st4" d="M84.31,157.77v.12c-.15.03-.27.08-.35.15-.11.1-.21.26-.3.48l-1.53,3.73h-.12l-1.64-3.78c-.08-.19-.14-.31-.18-.35-.05-.07-.12-.12-.2-.16-.08-.04-.18-.06-.32-.07v-.12h1.8v.12c-.2.02-.33.05-.39.1s-.09.11-.09.19c0,.11.05.27.15.5l1.12,2.57,1.04-2.54c.1-.25.15-.42.15-.52,0-.06-.03-.12-.09-.18s-.17-.1-.31-.12h-.05v-.12h1.35-.01Z"/>
      <path class="st4" d="M86.57,160.69h-1.7l-.29.7c-.07.17-.11.29-.11.38,0,.07.03.12.09.17s.2.08.41.1v.12h-1.38v-.12c.18-.03.3-.07.35-.12.11-.1.23-.31.36-.64l1.54-3.61h.11l1.52,3.65c.12.29.23.48.33.58.1.09.24.14.42.15v.12h-1.74v-.12c.17,0,.29-.04.35-.09s.09-.11.09-.18c0-.09-.04-.24-.13-.45l-.26-.63h.01ZM86.48,160.45l-.75-1.78-.77,1.78h1.51Z"/>
      <path class="st4" d="M91.37,157.67v1.51h-.12c-.04-.29-.11-.52-.21-.7s-.24-.31-.42-.41-.37-.15-.58-.15c-.22,0-.41.07-.55.2-.15.14-.22.29-.22.46,0,.13.05.25.14.36.13.16.45.37.96.65.41.22.69.38.84.5s.26.25.34.41.12.32.12.5c0,.33-.13.62-.38.86-.26.24-.59.36-1,.36-.13,0-.25,0-.36-.03-.07-.01-.2-.05-.41-.12s-.34-.1-.4-.1-.1.02-.13.05-.05.1-.07.2h-.12v-1.5h.12c.06.31.13.55.22.71.09.15.24.28.43.39.19.1.41.15.65.15.27,0,.48-.07.64-.21.16-.14.23-.31.23-.5,0-.11-.03-.21-.09-.32s-.15-.21-.27-.3c-.08-.06-.31-.2-.69-.41s-.65-.38-.8-.5-.28-.26-.36-.41-.12-.31-.12-.49c0-.31.12-.59.36-.82s.54-.34.92-.34c.23,0,.48.06.74.17.12.05.2.08.25.08.06,0,.1-.02.14-.05s.06-.1.08-.2h.14Z"/>
      <path class="st4" d="M96,157.67l.1,1.49h-.1c-.13-.44-.32-.77-.58-.97-.25-.19-.54-.29-.89-.29-.29,0-.55.07-.79.22s-.42.38-.55.71c-.13.32-.2.73-.2,1.21,0,.39.06.74.19,1.03.13.29.32.51.58.67.25.15.54.23.88.23.28,0,.53-.06.76-.18s.45-.36.72-.73l.1.06c-.22.39-.47.68-.77.86s-.65.27-1.05.27c-.73,0-1.29-.27-1.69-.81-.29-.4-.44-.88-.44-1.41,0-.43.1-.84.29-1.21.19-.36.46-.66.81-.85.34-.2.72-.3,1.13-.3.31,0,.63.08.94.23.09.05.15.07.19.07.06,0,.11-.02.15-.06.06-.06.1-.14.12-.24h.11-.01Z"/>
      <path class="st4" d="M99.59,157.9v-.12h1.55v.12h-.16c-.17,0-.3.07-.39.21-.04.07-.07.22-.07.46v1.78c0,.44-.04.78-.13,1.02s-.26.45-.51.63-.61.26-1.04.26c-.47,0-.84-.08-1.09-.25-.25-.16-.42-.39-.52-.67-.07-.19-.1-.55-.1-1.08v-1.72c0-.27-.04-.44-.11-.53-.07-.08-.19-.12-.36-.12h-.16v-.12h1.9v.12h-.17c-.18,0-.31.06-.38.17-.05.08-.08.24-.08.48v1.91c0,.17.02.36.05.59.03.22.09.39.17.51s.2.22.35.3.34.12.57.12c.28,0,.54-.06.77-.19s.38-.28.46-.48.12-.52.12-.99v-1.78c0-.27-.03-.44-.09-.51-.08-.09-.21-.14-.37-.14h-.16l-.02.02Z"/>
      <path class="st4" d="M105.02,160.94l.11.02-.37,1.19h-3.4v-.12h.16c.18,0,.32-.06.39-.18.04-.07.07-.23.07-.47v-2.84c0-.27-.03-.44-.09-.51-.08-.09-.21-.14-.37-.14h-.16v-.12h1.99v.12c-.23,0-.39.02-.49.06-.09.04-.16.1-.19.17s-.05.23-.05.49v2.75c0,.18.02.3.05.37.03.04.06.08.12.1s.22.03.5.03h.32c.33,0,.58-.02.71-.07s.26-.14.37-.26.22-.32.33-.6h0Z"/>
      <path class="st4" d="M108.3,160.69h-1.7l-.29.7c-.07.17-.11.29-.11.38,0,.07.03.12.09.17s.2.08.41.1v.12h-1.38v-.12c.18-.03.3-.07.35-.12.11-.1.23-.31.36-.64l1.54-3.61h.11l1.52,3.65c.12.29.23.48.33.58.1.09.24.14.42.15v.12h-1.73v-.12c.17,0,.29-.04.35-.09s.09-.11.09-.18c0-.09-.04-.24-.13-.45l-.26-.63h0ZM108.21,160.45l-.75-1.78-.77,1.78h1.51Z"/>
      <path class="st4" d="M114.52,162.16h-1.17l-1.48-2.05h-.46v1.27c0,.27.03.44.09.51.08.09.2.14.37.14h.17v.12h-1.88v-.12h.16c.18,0,.32-.06.39-.18.04-.07.07-.22.07-.47v-2.84c0-.27-.03-.44-.09-.51-.08-.09-.21-.14-.37-.14h-.16v-.12h1.59c.46,0,.81.03,1.03.1.22.07.41.19.57.37.15.18.23.4.23.66,0,.27-.09.5-.26.71-.17.2-.44.33-.82.42l.91,1.26c.21.29.38.48.53.58.15.09.34.15.59.18v.12h-.01ZM111.41,159.9h.18c.42,0,.74-.09.95-.27.21-.18.32-.41.32-.7s-.08-.49-.25-.67-.4-.25-.68-.25c-.12,0-.29.02-.5.06v1.83h-.02Z"/>
      <path class="st4" d="M119.16,157.67v1.51h-.12c-.04-.29-.11-.52-.21-.7s-.24-.31-.42-.41-.37-.15-.58-.15c-.22,0-.41.07-.55.2-.14.14-.22.29-.22.46,0,.13.05.25.14.36.13.16.45.37.96.65.41.22.69.38.84.5s.26.25.34.41.12.32.12.5c0,.33-.13.62-.38.86-.26.24-.59.36-1,.36-.13,0-.24,0-.36-.03-.07-.01-.2-.05-.41-.12s-.34-.1-.4-.1-.1.02-.13.05-.05.1-.07.2h-.12v-1.5h.12c.06.31.13.55.22.71.09.15.24.28.43.39s.41.15.65.15c.27,0,.48-.07.64-.21.15-.14.23-.31.23-.5,0-.11-.03-.21-.09-.32s-.15-.21-.27-.3c-.08-.06-.31-.2-.69-.41s-.65-.38-.8-.5-.28-.26-.36-.41-.12-.31-.12-.49c0-.31.12-.59.36-.82s.54-.34.92-.34c.23,0,.47.06.74.17.12.05.2.08.25.08.06,0,.1-.02.14-.05s.06-.1.08-.2h.14Z"/>
      <path class="st4" d="M122.97,157.9v-.12h1.55v.12h-.16c-.17,0-.3.07-.39.21-.04.07-.07.22-.07.46v1.78c0,.44-.04.78-.13,1.02s-.26.45-.51.63-.61.26-1.04.26c-.47,0-.84-.08-1.09-.25-.25-.16-.42-.39-.52-.67-.07-.19-.1-.55-.1-1.08v-1.72c0-.27-.04-.44-.11-.53-.07-.08-.19-.12-.36-.12h-.16v-.12h1.9v.12h-.17c-.18,0-.31.06-.38.17-.05.08-.08.24-.08.48v1.91c0,.17.02.36.05.59.03.22.09.39.17.51s.2.22.35.3.34.12.57.12c.28,0,.54-.06.77-.19s.38-.28.46-.48.12-.52.12-.99v-1.78c0-.27-.03-.44-.09-.51-.08-.09-.21-.14-.37-.14h-.16l-.02.02Z"/>
      <path class="st4" d="M129.07,162.16h-1.17l-1.48-2.05h-.46v1.27c0,.27.03.44.09.51.08.09.2.14.37.14h.17v.12h-1.88v-.12h.16c.18,0,.32-.06.39-.18.04-.07.07-.22.07-.47v-2.84c0-.27-.03-.44-.09-.51-.08-.09-.21-.14-.37-.14h-.16v-.12h1.59c.46,0,.81.03,1.03.1.22.07.41.19.57.37s.23.4.23.66c0,.27-.09.5-.26.71-.17.2-.44.33-.82.42l.91,1.26c.21.29.38.48.53.58.15.09.34.15.59.18v.12h-.01ZM125.96,159.9h.18c.42,0,.74-.09.95-.27.21-.18.32-.41.32-.7s-.08-.49-.25-.67-.4-.25-.68-.25c-.12,0-.29.02-.5.06v1.83h-.02Z"/>
      <path class="st4" d="M133.08,157.67l.11,1.38h-.11c-.11-.34-.26-.61-.44-.78-.26-.25-.6-.38-1.01-.38-.55,0-.98.22-1.27.67-.24.37-.36.82-.36,1.33,0,.42.08.8.24,1.14s.37.6.64.76.53.24.81.24c.16,0,.32-.02.46-.06.15-.04.29-.1.43-.18v-1.27c0-.22-.02-.36-.05-.43s-.08-.12-.15-.15c-.07-.04-.19-.05-.37-.05v-.12h1.7v.12h-.08c-.17,0-.28.06-.34.17-.04.08-.06.24-.06.47v1.34c-.25.13-.49.23-.74.29-.24.06-.51.09-.81.09-.85,0-1.49-.27-1.93-.82-.33-.4-.49-.88-.49-1.41,0-.38.09-.76.28-1.11.22-.42.52-.75.91-.97.32-.19.7-.28,1.14-.28.16,0,.3.01.43.04s.31.08.55.17c.12.04.2.07.24.07s.08-.02.1-.06c.03-.04.05-.11.05-.22h.12,0Z"/>
      <path class="st4" d="M135.18,158.02v1.74h.97c.25,0,.41-.04.5-.11.11-.1.17-.27.19-.52h.12v1.52h-.12c-.03-.21-.06-.35-.09-.41-.04-.08-.1-.13-.19-.18-.09-.04-.22-.06-.4-.06h-.97v1.44c0,.19,0,.31.03.35.02.04.05.07.09.1s.12.04.24.04h.75c.25,0,.42-.02.54-.05s.22-.1.32-.2c.13-.13.27-.33.41-.61h.13l-.38,1.1h-3.38v-.12h.15c.1,0,.2-.03.29-.07.07-.03.12-.08.14-.15.02-.07.04-.21.04-.42v-2.85c0-.28-.03-.45-.08-.51-.08-.08-.21-.13-.38-.13h-.15v-.12h3.38l.05.96h-.12c-.04-.23-.09-.39-.15-.47-.05-.09-.13-.15-.24-.2-.08-.03-.24-.05-.45-.05h-1.24Z"/>
      <path class="st4" d="M142.32,162.16h-1.17l-1.48-2.05h-.46v1.27c0,.27.03.44.09.51.08.09.2.14.37.14h.17v.12h-1.88v-.12h.16c.18,0,.32-.06.39-.18.04-.07.07-.22.07-.47v-2.84c0-.27-.03-.44-.09-.51-.08-.09-.21-.14-.37-.14h-.16v-.12h1.59c.46,0,.81.03,1.03.1s.41.19.57.37.23.4.23.66c0,.27-.09.5-.26.71s-.44.33-.82.42l.91,1.26c.21.29.38.48.53.58.15.09.34.15.59.18v.12h-.01ZM139.2,159.9h.18c.42,0,.74-.09.95-.27.21-.18.32-.41.32-.7s-.08-.49-.25-.67-.4-.25-.68-.25c-.12,0-.29.02-.5.06v1.83h-.02Z"/>
      <path class="st4" d="M145.06,157.77h1.53v.12h-.08c-.06,0-.14.02-.24.07-.11.05-.2.12-.29.21-.09.09-.2.24-.32.45l-1.06,1.66v1.1c0,.27.03.43.09.5.08.09.21.13.38.13h.14v.12h-1.87v-.12h.15c.18,0,.31-.06.39-.17.05-.07.07-.22.07-.47v-1.04l-1.2-1.84c-.14-.21-.24-.35-.29-.4s-.15-.12-.31-.19c-.04-.02-.1-.03-.19-.03v-.12h1.88v.12h-.1c-.1,0-.19.02-.28.07s-.13.12-.13.21c0,.08.07.22.2.42l.92,1.41.86-1.35c.13-.2.19-.35.19-.45,0-.06-.02-.11-.05-.16s-.08-.08-.13-.11-.14-.04-.26-.04v-.12h.01Z"/>
    </g>
    <path class="st7" d="M100.57,198.27c-12.73.05-23.84-2.34-34.64-6.42-8.71-3.29-16.72-7.84-24.03-13.59-6.59-5.19-12.3-11.23-17.31-17.95-5.62-7.54-10.2-15.66-13.63-24.42-2.17-5.55-3.74-11.27-4.81-17.13-2.94-15.96-2.08-31.73,2.45-47.31,1.72-5.88,3.98-11.54,6.71-17.02,3.88-7.8,8.89-14.79,14.7-21.26,4.09-4.54,8.56-8.66,13.4-12.34,8.82-6.7,18.52-11.78,29.12-15.03,11.27-3.46,22.8-4.72,34.56-3.71,9.73.84,19.07,3.22,28.06,7.04,6.81,2.9,13.21,6.53,19.2,10.89,5.31,3.85,10.08,8.27,14.56,13.06,5.11,5.46,9.41,11.48,13.12,17.96,4.5,7.87,7.73,16.24,9.87,25.05,2.28,9.4,3.22,18.92,2.83,28.57-.26,6.46-1.15,12.84-2.66,19.13-1.36,5.63-3.13,11.12-5.44,16.42-2.15,4.93-4.67,9.69-7.61,14.21-5.08,7.82-11.1,14.82-18.21,20.86-3.94,3.34-8.14,6.31-12.54,9-8.65,5.29-17.88,9.12-27.75,11.45-6.93,1.63-13.93,2.68-19.93,2.55h-.02ZM130.36,172.74c.33-.05.53-.05.72-.1,6.26-1.83,12.32-4.16,18.22-6.9.39-.18.77-.49,1.04-.83,5.09-6.06,9.42-12.61,12.98-19.71,3.67-7.34,6.54-14.95,8.3-22.97,1.65-7.54,2.49-15.17,2.41-22.9,0-.69-.26-.86-.91-.86-3.83.04-7.66.02-11.49.09-.9.02-1.5-.27-2-.98-.5-.73-1.04-1.44-1.68-2.31-.46.72-.88,1.28-1.22,1.88-.48.85-1.16,1.39-2.15,1.4-.77,0-.98.41-1.1,1.08-.65,3.57-1.31,7.14-1.99,10.72-.11.58-.06,1.43-.9,1.4-.85-.03-.82-.88-.9-1.5-.88-6.98-1.74-13.98-2.6-20.97-.19-1.52-.4-3.06-.61-4.58-.22.23-.28.46-.32.71-.55,3.5-1.12,7.01-1.66,10.51-.29,1.9-.55,3.79-.88,5.68-.06.32-.34.75-.63.86-.19.07-.61-.28-.84-.51-.21-.21-.34-.51-.48-.79-.9-1.65-1.79-3.32-2.69-4.97-.16-.3-.39-.57-.67-.95-.44.84-.84,1.52-1.18,2.23-.36.75-.91,1.06-1.75,1.07-7.62.04-15.23.11-22.84.15-3.16.01-6.31-.04-9.46-.06h-1.32c-.19-1.4.04-1.7,1.25-1.65h.34c4.97-.02,9.95-.04,14.92-.05,1.82,0,3.64,0,5.46.01h10.99c.59,0,.95-.24,1.2-.75.58-1.16,1.15-2.32,1.76-3.47.14-.27.43-.46.66-.7.22.24.5.44.66.72,1,1.8,1.96,3.61,2.95,5.42.08.15.23.27.43.5.1-.54.19-.96.26-1.37,1.04-6.68,2.07-13.36,3.14-20.03.06-.37.39-.93.68-.99.6-.12.74.46.81.96.24,1.82.48,3.63.71,5.45.72,5.76,1.43,11.51,2.15,17.27.17,1.35.34,2.69.51,4.05.25-.21.33-.41.37-.62.36-1.74.73-3.47,1.08-5.21.23-1.15.32-1.25,1.5-1.19.9.05,1.55-.2,2.02-1.05.46-.84,1.05-1.59,1.59-2.38.6-.87.83-.87,1.45.02.64.9,1.27,1.8,1.88,2.71.3.46.68.68,1.25.68,3.72-.02,7.44-.04,11.16,0,.87.01,1.09-.38,1.06-1.09-.04-1.04-.09-2.07-.17-3.1-.1-1.36-.11-2.74-.37-4.09-.68-3.52-1.42-7.03-2.2-10.53-1.89-8.5-5.11-16.49-9.39-24.06-.4-.72-.74-.88-1.5-.46-3.4,1.84-6.93,3.37-10.67,4.39-.42.11-.91-.04-1.37-.07.38-.27.73-.64,1.15-.82,3.35-1.47,6.71-2.9,10.06-4.36.42-.18.79-.49,1.22-.77-2.19-3.79-4.48-7.37-7.09-10.73-2.08-2.66-4.14-5.35-6.41-7.84-2.5-2.74-5.22-5.29-7.88-7.88-.46-.44-1.11-.85-1.73-.96-4.57-.79-9.16-1.49-13.75-2.23-.09-.01-.19.04-.37.08.68,1.08,1.35,2.08,1.96,3.12.85,1.45,1.68,2.94,2.46,4.43.14.26.02.66.02.98-.31-.16-.69-.26-.94-.49-.24-.22-.35-.57-.52-.86-1.34-2.18-2.68-4.36-4.03-6.54-.38-.63-.94-.92-1.66-.98-2.24-.2-4.48-.43-6.73-.65-.15-.01-.3.04-.42.06.7,1.97,1.4,3.86,2.03,5.78.11.35-.08.81-.14,1.21-.32-.29-.65-.58-.96-.88-.04-.03-.04-.1-.06-.16-.63-1.72-1.29-3.42-1.87-5.16-.24-.71-.65-.95-1.35-.98-3.48-.13-6.96-.32-10.44-.45-1.11-.04-2.23,0-3.4,0-.02.41-.04.72-.04,1.02,0,1.78,0,3.55-.01,5.33,0,.92-.25,1.07-1.35.7,0-2.01-.02-4.09.01-6.16.01-.69-.19-.95-.91-.92-2.11.09-4.22.1-6.32.2-2.3.11-4.6.3-6.91.42-.67.03-1.01.33-1.22.94-.67,1.91-1.36,3.79-2.05,5.69-.16.45-.29,1.05-.91.81-.18-.07-.25-.8-.15-1.17.31-1.14.72-2.25,1.11-3.37.29-.84.61-1.68.93-2.57-.26-.04-.42-.1-.58-.08-2.3.24-4.59.46-6.88.77-.32.04-.72.35-.9.66-1.34,2.24-2.64,4.51-3.97,6.76-.26.44-.49,1.18-1.12.89-.69-.31-.2-.98.01-1.39.73-1.43,1.51-2.83,2.31-4.23.45-.79.96-1.54,1.49-2.4-.34,0-.54-.03-.73,0-2.55.42-5.12.81-7.66,1.31-.68.13-1.38.5-1.9.97-7.15,6.44-13.38,13.68-18.51,21.85-1.18,1.88-2.31,3.78-3.5,5.74.37.21.64.37.91.5,1.58.73,3.19,1.42,4.76,2.17.29.14.49.49.74.76-.34.07-.7.15-1.05.2-.07.01-.16-.03-.24-.07-1.57-.69-3.17-1.31-4.71-2.08-.72-.35-1.09-.33-1.43.42-1.66,3.63-3.47,7.2-5,10.89-2.14,5.13-3.66,10.46-4.71,15.93-.93,4.82-1.57,9.68-1.81,14.58-.06,1.17-.09,1.17,1.07,1.17,5.63.02,11.27.05,16.9.07.36,0,.76-.07,1.09.05.29.1.51.42.77.65-.27.2-.52.42-.81.59-.13.07-.33.01-.5.01-5.89-.02-11.78-.02-17.67-.06-.78,0-1.03.22-1.02,1,.01,4.68.18,9.34.78,14,1.27,9.94,3.92,19.46,8.08,28.58,3.5,7.65,7.95,14.7,13.19,21.27.9,1.13,1.89,2.05,3.26,2.58,4.85,1.89,9.69,3.81,14.53,5.71.53.21,1.11.31,1.8.49-.13-.37-.25-.58-.26-.79-.02-.27.03-.55.06-.83.26.14.58.25.79.44.17.16.26.43.33.68.21.74.73,1.07,1.44,1.24,3.43.8,6.85,1.61,10.27,2.42.36.08.75.09,1.23.14-.17-.6-.34-1.04-.41-1.5-.03-.17.12-.53.22-.54.2-.02.53.08.62.23.21.38.37.82.47,1.26.13.63.47.87,1.1.94,1.29.14,2.56.44,3.84.54,3.7.3,7.41.53,11.12.81.63.05.89-.17.83-.81-.04-.44-.06-.91.02-1.34.04-.21.32-.38.49-.57.18.18.48.34.52.54.09.43.06.9.03,1.34-.04.6.14.88.81.84,4.47-.29,8.93-.59,13.4-.82,1.5-.08,2.57-.51,2.82-2.19.03-.23.47-.39.74-.6.05.3.17.61.13.9-.05.44-.21.88-.36,1.43.61-.09,1.03-.13,1.43-.22,2.84-.6,5.66-1.26,8.52-1.8,1.43-.27,2.57-.79,3.04-2.27.03-.1.09-.23.18-.27.18-.1.38-.16.58-.23.06.22.2.45.16.65-.07.32-.26.62-.46,1.05h.04ZM152.33,164.41c3.4-1.69,6.72-2.95,9.18-5.99,4.59-5.67,8.76-11.58,12.07-18.08,4.32-8.47,7.19-17.41,8.58-26.82.68-4.64.94-9.29.96-13.98,0-.85-.26-1.11-1.12-1.08-1.89.06-3.77.02-5.66,0q-1.09,0-1.08,1.06c.09,9.5-1.1,18.82-3.68,27.96-1.44,5.13-3.31,10.1-5.58,14.92-2.39,5.09-5.03,10.02-8.25,14.61-1.72,2.43-3.51,4.8-5.41,7.39h0ZM45.74,163.58c-2.52-3.68-5.18-7.33-7.58-11.12-4.55-7.17-7.91-14.9-10.31-23.05-2.87-9.71-4.16-19.65-4.03-29.77.01-1.16.02-1.16-1.17-1.16-1.89,0-3.77.02-5.66-.02-.69-.01-.97.19-.93.91.24,4.3.3,8.62.74,12.9.76,7.41,2.72,14.54,5.51,21.44,3.23,7.99,7.69,15.26,13.09,21.98,2.33,2.9,4.81,5.49,8.32,6.91.75.3,1.44.7,2.03.99h-.01ZM162.55,158.98s.07.07.1.11c.16-.09.34-.16.49-.26,2.87-2.04,5.81-3.97,8.56-6.16,3.43-2.73,6.57-5.72,8.65-9.78,4.01-7.83,6.96-15.98,8.54-24.63,1.13-6.21,1.48-12.46,1.53-18.75,0-.76-.21-1.06-1.01-1.03-1.43.05-2.88.05-4.31,0-.69-.02-.87.22-.85.88.21,5.06-.28,10.08-1.03,15.07-1.03,6.87-2.93,13.52-5.59,19.95-3.24,7.83-7.48,15.07-12.74,21.69-.78.98-1.56,1.95-2.34,2.92h0ZM167.91,49.27c.09.14.27.44.47.75,4.55,6.86,8.24,14.15,10.9,21.95,2.65,7.8,4.19,15.83,4.76,24.04.06.8.33.99,1.06.97,1.46-.05,2.93-.04,4.39,0,.67.01.84-.17.81-.87-.35-7.2-1.42-14.3-3.56-21.18-1.36-4.37-3.02-8.66-4.76-12.9-2.39-5.79-5.59-11.17-9.09-16.36-.27-.4-.61-.76-.82-1.02-1.38,1.54-2.71,3.02-4.16,4.63h0ZM35.49,158.02c.06-.07.13-.15.19-.22-.24-.3-.47-.62-.73-.92-5.19-6.16-9.43-12.89-12.68-20.25-3.04-6.89-5.22-14.04-6.37-21.48-.8-5.19-1.13-10.41-1.06-15.66,0-.72-.16-1.02-.94-.98-1.35.06-2.7.03-4.06.02-1.12,0-1.13-.01-1.12,1.09.07,5.19.4,10.35,1.21,15.49,1.52,9.66,4.42,18.85,9.12,27.44,1.07,1.95,2.02,4,3.71,5.51,2.16,1.93,4.32,3.86,6.59,5.66,1.96,1.54,4.08,2.89,6.11,4.32h.01ZM20.03,97.1v.03c1.01,0,2.03-.02,3.04,0,.63.02.86-.16.92-.85.42-4.23.74-8.48,1.41-12.66,1.7-10.51,5.33-20.38,10.36-29.76.3-.57.22-.83-.31-1.13-1.06-.6-2.12-1.18-3.1-1.89-.68-.48-1.04-.43-1.43.29-1.76,3.18-3.61,6.3-5.3,9.51-2.78,5.33-4.85,10.96-6.41,16.76-1.65,6.2-2.51,12.52-2.98,18.91-.04.54.08.79.67.77,1.04-.02,2.08,0,3.13,0v.02ZM183,96.88c-.12-1.31-.25-2.56-.36-3.82-.73-8.04-2.59-15.83-5.41-23.38-2.53-6.8-5.93-13.18-9.94-19.22-.26-.4-.49-.57-.94-.28-1.17.73-2.37,1.41-3.53,2.16-.15.1-.23.45-.19.67.04.26.23.5.37.75,3.02,5.27,5.52,10.78,7.37,16.56,2.68,8.41,4.33,17.01,4.72,25.84.03.62.22.84.84.83,2.09-.03,4.17-.01,6.26-.02.24,0,.49-.05.83-.08h-.01ZM26.01,45.64c-.1.12-.2.22-.28.33-4.2,6.21-7.66,12.79-10.39,19.77-2.36,6.02-4.13,12.22-5.15,18.6-.63,3.94-.89,7.94-1.31,11.91-.07.63.11.94.82.92,1.54-.04,3.1-.03,4.64-.02.52,0,.73-.19.79-.73.38-3.69.65-7.41,1.23-11.07,1.59-10.05,4.97-19.49,9.86-28.4,1.24-2.27,2.61-4.47,3.89-6.71.13-.23.16-.73.02-.86-1.32-1.25-2.7-2.45-4.13-3.72h.01ZM29.59,38.06c.05.05.1.1.16.15,2.54-2.55,5.08-5.12,7.62-7.67,3.76-3.79,7.87-7.16,12.38-10.03,5.98-3.8,12.27-6.99,18.91-9.5,4.57-1.72,9.28-2.92,14.07-3.89,3.84-.79,7.71-1.3,11.63-1.49,7.84-.39,15.59.28,23.27,1.83,6.14,1.24,12.1,3.07,17.87,5.54,4.18,1.8,8.2,3.86,12.06,6.25,6.29,3.87,11.85,8.69,17.13,13.81.19.18.39.35.59.52-.05-.22-.17-.37-.29-.51-4.52-4.98-9.54-9.41-15.09-13.22-3.29-2.26-6.7-4.33-10.26-6.17-3.97-2.04-8.01-3.85-12.21-5.35-8.32-2.95-16.94-4.43-25.75-4.65-9.27-.23-18.41.82-27.24,3.71-4.03,1.31-7.98,2.94-11.83,4.72-3.48,1.61-6.87,3.5-10.13,5.53-4.91,3.05-9.41,6.67-13.76,10.47-3.4,2.98-6.5,6.24-9.11,9.93h-.01ZM174.67,151.47c-.08,0-.12-.01-.13,0-3.91,4.03-8.47,7.12-13.39,9.76-.76.4-1.43.99-2.07,1.56-3.25,2.95-6.28,6.19-9.77,8.81-5.68,4.28-11.64,8.19-17.53,12.19-2.52,1.72-5.17,3.26-7.79,4.9,12.17-4.14,23.4-9.89,33.24-18.19,6.62-5.59,12.64-11.74,17.45-19.03h-.01ZM73.01,187.71c-.13-.14-.16-.19-.21-.22-7.84-4.99-15.57-10.13-22.95-15.78-3.69-2.83-7.13-5.94-10.24-9.41-.61-.69-1.32-1.3-2.08-1.81-2.83-1.91-5.7-3.71-8.51-5.64-1.25-.86-2.38-1.91-3.63-2.93,13.45,18.8,32.66,30.55,47.62,35.8h0ZM82.21,176.88c-.03.23-.06.3-.04.34,1.31,3.73,3.04,7.27,5.3,10.52.19.28.63.51.98.55,2.94.32,5.88.59,8.82.9.76.08,1.04-.15,1.03-.96-.04-2.93,0-5.86,0-8.79,0-1.09,0-1.04-1.13-1.13-4.4-.37-8.8-.78-13.2-1.18-.58-.05-1.15-.16-1.77-.26h.01ZM115.31,177.36h-.78c-4.82.33-9.65.68-14.47.99-.61.04-.67.33-.67.82,0,3.07.01,6.14-.02,9.2,0,.68.2.9.86.85,2.83-.24,5.66-.42,8.49-.72.45-.05,1-.42,1.25-.82.84-1.26,1.64-2.56,2.33-3.92,1.03-2.05,1.96-4.16,3.01-6.41h0ZM57.91,24.95c-2.59.64-5.08.96-7.19,2.91-6.45,5.9-12.19,12.39-17.2,19.55-.43.62-.82,1.25-1.28,1.98,1.26.8,2.46,1.52,3.62,2.31.65.43,1.01.31,1.39-.36,2.7-4.78,5.65-9.41,9.16-13.65,2.47-2.99,5.1-5.85,7.69-8.75,1.2-1.33,2.48-2.58,3.82-3.97h-.01ZM31.29,48.64c5.35-8.09,11.52-15.3,18.8-21.69-.23,0-.31-.02-.39,0-3.23,1.16-6.46,2.31-9.67,3.52-.7.26-1.43.6-1.97,1.1-1.79,1.7-3.56,3.42-5.22,5.26-1.94,2.15-3.75,4.42-5.61,6.64-.29.35-.55.7-.19,1.19,1.14,1.55,2.55,2.83,4.25,3.99ZM167.04,47.91c.18-.09.32-.14.42-.22,1.48-1.11,2.66-2.51,3.55-4.13.16-.29.02-.93-.2-1.25-2.32-3.34-5.11-6.29-8.05-9.07-.82-.78-1.74-1.55-2.75-1.99-2.87-1.22-5.81-2.27-8.74-3.36-.82-.3-1.66-.5-2.5-.76,6.95,6.21,13.05,13.09,18.27,20.77h0ZM121.09,185.62s.05.09.08.13c.39-.12.79-.23,1.18-.37,1.55-.58,3.17-1.04,4.66-1.76,3.17-1.51,6.45-2.88,9.36-4.8,3.77-2.49,6.9-5.83,9.91-9.23.54-.62,1.09-1.22,1.64-1.83-.21-.09-.31-.08-.41-.04-5.6,2.45-11.26,4.7-17.18,6.26-.38.1-.79.45-.99.8-1.96,3.23-4.16,6.29-6.66,9.11-.51.59-1.05,1.15-1.56,1.72l-.03.02ZM141.05,25.39c8.21,7.7,15.17,16.35,20.86,26.18,1.37-.91,2.66-1.75,3.92-2.64.13-.09.12-.63-.02-.82-1.66-2.26-3.32-4.54-5.08-6.73-3.95-4.89-8.38-9.32-13.02-13.56-1.97-1.8-4.34-1.9-6.66-2.43ZM81.64,20.3c.38.03.51.05.66.05,4.33-.19,8.67-.38,13-.55.69-.03.84-.32.84-.94-.01-3.58-.02-7.15.02-10.74,0-.77-.35-.86-.94-.74-2.01.39-3.85,1.16-5.52,2.36-1.99,1.42-3.65,3.19-4.99,5.21-1.11,1.68-2.01,3.49-3.07,5.35h.01ZM111.61,20.24c-.03-.24-.02-.3-.04-.34-.27-.52-.55-1.04-.83-1.56-1.72-3.27-3.78-6.26-6.7-8.59-1.66-1.33-3.49-2.29-5.64-2.56-.69-.09-.96.13-.96.86.03,3.63.03,7.27.01,10.9,0,.66.19.87.86.88,2.96.03,5.91.11,8.86.2,1.45.04,2.92.15,4.43.23h.01ZM50.47,167.11c6.58,8.71,14.74,14.9,25.35,17.84-.2-.25-.33-.42-.48-.59-2.97-3.14-5.79-6.37-7.8-10.25-.18-.34-.63-.63-1.02-.78-3.95-1.5-7.9-2.96-11.85-4.46-1.38-.52-2.72-1.14-4.21-1.77h.01ZM174.31,154.71c-.07-.04-.14-.08-.21-.12-.19.24-.38.47-.55.73-1.06,1.45-2.04,2.99-3.2,4.35-3.18,3.73-6.65,7.19-10.37,10.38-3.83,3.28-7.82,6.34-12.12,9-4.44,2.75-9.05,5.15-13.81,7.29-6.93,3.12-14.31,4.94-21.47,7.39-.75.25-1.52.43-2.28.65.02.09.04.17.06.26,1.86-.33,3.73-.61,5.57-1.02,3.27-.73,6.56-1.38,9.77-2.32,8.24-2.41,15.89-6.14,23.14-10.72,4.72-2.99,9.15-6.37,13.2-10.21,4.2-4,7.83-8.47,10.91-13.38.47-.75.91-1.51,1.36-2.28h.02ZM136.46,23.18c-8.33-6.96-17.58-12.1-28.21-14.54.97.67,2,1.21,2.98,1.84,4.07,2.61,7.62,5.78,10.46,9.71.5.69,1.09,1.01,1.96,1.11,2.8.32,5.58.72,8.37,1.12,1.48.21,2.97.5,4.45.77ZM68.84,173.95c0,.15-.03.21-.01.25.12.22.24.44.37.66,1.94,3.19,4.3,6.03,6.83,8.77,1.29,1.39,2.62,2.69,4.63,3.02.86.14,1.7.41,2.54.62.89.2,1.78.37,2.91.62-.32-.57-.5-.91-.71-1.22-1.91-2.92-3.24-6.09-4.48-9.33-.12-.33-.58-.67-.94-.75-3.25-.78-6.52-1.5-9.78-2.25-.45-.1-.91-.24-1.37-.36h0ZM118.55,9.35c.44.16.89.33,1.34.49,4.73,1.68,9.26,3.79,13.59,6.35,4.3,2.53,8.39,5.37,12.23,8.56.39.32.91.54,1.4.72,2.64.87,5.31,1.69,7.95,2.56,1.11.36,2.18.83,3.28,1.24-5.62-5.07-11.84-9.22-18.57-12.6-6.74-3.38-13.8-5.85-21.22-7.32h-.01ZM111.13,188.07c.23.01.37.05.49.02,2.14-.46,4.29-.93,6.42-1.42.28-.07.57-.26.79-.46,3.51-3.18,6.3-6.95,8.85-10.9.08-.12.08-.28.14-.5-.22.03-.36.05-.49.07-3.41.7-6.83,1.38-10.23,2.13-.32.07-.71.45-.83.78-1.26,3.32-2.74,6.53-4.7,9.51-.15.22-.26.47-.43.8h0ZM25.3,154.05c1.22,3.37,9.88,13.4,15.63,18.45,6.14,5.38,12.89,9.79,20.2,13.38,6.5,3.19,20.83,7.88,22.95,7.32-2.37-.94-4.76-1.86-7.17-2.67-11.54-3.92-22.35-9.28-32.07-16.68-6.7-5.1-12.77-10.86-17.84-17.63-.54-.73-1.13-1.43-1.7-2.14v-.02ZM78.38,9.7c-13.6,3.23-25.49,9.83-36.41,18.38.23,0,.44-.05.65-.11,2.85-.88,5.7-1.74,8.55-2.64.68-.22,1.36-.52,1.94-.95,2.7-1.97,5.32-4.06,8.07-5.96,4.11-2.84,8.45-5.26,13.12-7.05,1.37-.52,2.72-1.11,4.09-1.66ZM104.22,8.41c.78.68,1.47,1.23,2.11,1.84,2.78,2.63,4.7,5.87,6.33,9.3.26.55.59.79,1.21.83,2.08.15,4.15.36,6.23.55.2.02.41-.02.67-.03-2.92-4.71-11.31-11.4-16.53-12.5h-.01ZM88.48,9.16c-6.54,2.24-11.38,6.65-15.7,12.08,2.56-.27,4.91-.49,7.26-.8.26-.03.54-.42.7-.71.72-1.34,1.32-2.73,2.08-4.06,1.45-2.54,3.42-4.65,5.67-6.53h0ZM82.47,10.74c-.04-.06-.08-.13-.12-.19-7.2,2.96-13.88,6.8-19.79,12.1.19.05.28.09.35.08,2.55-.4,5.12-.8,7.67-1.25.37-.06.78-.34,1.02-.64,2.37-2.99,4.92-5.79,8.02-8.05.95-.69,1.91-1.36,2.86-2.04h-.01ZM55.23,24.1c.03.08.06.16.08.24,1.56-.37,3.14-.75,4.7-1.13.15-.04.27-.19.4-.3,1.17-.97,2.34-1.94,3.51-2.91,4.32-3.56,9.06-6.46,14.16-8.8.23-.1.45-.22.68-.34.19-.1.37-.22.57-.33-8.89,3.02-16.78,7.78-24.1,13.55v.02ZM143.38,24.6c.04-.08.08-.16.12-.25-7.44-5.77-15.43-10.53-24.42-13.49.16.16.36.26.57.34,6.82,2.92,12.9,6.98,18.52,11.79.31.27.66.59,1.04.69,1.38.35,2.78.62,4.19.92h-.01ZM88.61,189.37c2.68,2.97,5.56,5.12,9.67,5.34,0-1.22-.04-2.34.01-3.46.03-.72-.26-.89-.92-.96-2.68-.26-5.37-.59-8.05-.89-.16-.02-.32-.02-.72-.03h.01ZM108.26,190c-.05-.06-.11-.12-.16-.18-2.71.18-5.44.35-8.15.58-.2.02-.51.4-.52.64-.07.93-.04,1.86-.04,2.78,0,1,.05,1.07,1.05.94,2.03-.26,3.71-1.29,5.29-2.49.9-.69,1.71-1.5,2.55-2.26h-.01ZM42.04,163.02c1.4,2.21,12.54,11.52,14.39,12.15-1.93-2.01-3.91-4.09-5.88-6.16-1.35-1.4-2.34-3.15-4.31-3.93-1.39-.54-2.69-1.32-4.19-2.08h-.01ZM156.13,163.93c-1.46.64-2.94,1.24-4.37,1.93-.62.29-1.22.7-1.7,1.19-1.48,1.53-2.87,3.17-4.34,4.71-1.15,1.21-2.38,2.35-3.57,3.52,5.2-3.12,9.76-7.01,13.99-11.35h-.01ZM113.58,191.79c3.42-.61,13.93-5.9,16.33-8.08-3.12,1.09-6.71,2.34-10.31,3.6-.23.08-.47.2-.67.35-1.81,1.38-3.6,2.77-5.35,4.13h0ZM84.46,191.69c-1.93-1.36-3.66-2.59-5.41-3.8-.65-.44-1.28-.94-1.99-1.24-2.76-1.17-5.56-2.27-8.34-3.39-.22-.09-.45-.17-.68-.25,5.08,3.57,10.37,6.64,16.42,8.7h0ZM106.02,193.78c3.8-1.05,7.13-2.97,10.19-5.39-1.9.28-3.77.63-5.64.99-.2.04-.41.18-.55.33-1.32,1.33-2.62,2.67-3.99,4.07h-.01ZM90.84,193.36c-1.23-1.34-2.45-2.67-3.69-4.01-.11-.11-.28-.19-.44-.23-1.96-.44-3.93-.89-6.11-1.37,3.25,2.48,6.5,4.46,10.24,5.61h.01Z"/>
  </g>
  <g>
    <g>
      <path class="st4" d="M208.49,83.34v7.57c0,1.68.2,2.68.54,3.08.47.54,1.21.87,2.21.87h1.01v.74h-11.19v-.74h1.01c1.07,0,1.88-.34,2.35-1.07.27-.4.4-1.34.4-2.81v-16.82c0-1.68-.2-2.68-.54-3.08-.47-.54-1.27-.87-2.21-.87h-1.01v-.74h9.58c2.35,0,4.15.27,5.5.74,1.34.47,2.48,1.27,3.42,2.41.94,1.14,1.41,2.48,1.41,4.09,0,2.14-.67,3.89-2.08,5.23-1.41,1.34-3.42,2.01-5.96,2.01-.6,0-1.34,0-2.01-.13-.74-.07-1.54-.2-2.35-.4l-.07-.07ZM208.49,82.27c.67.13,1.27.2,1.81.27.54,0,1.01.07,1.34.07,1.34,0,2.48-.54,3.48-1.54.94-1.01,1.47-2.35,1.47-4.02,0-1.14-.2-2.14-.67-3.15-.47-1.01-1.14-1.68-1.94-2.21-.87-.47-1.81-.74-2.88-.74-.67,0-1.47.13-2.55.34v10.86l-.07.13Z"/>
      <path class="st4" d="M228.73,77.45v3.95c1.47-2.61,3.02-3.95,4.56-3.95.74,0,1.27.2,1.74.67.47.4.67.94.67,1.47,0,.47-.13.94-.47,1.27-.34.34-.74.54-1.21.54s-.94-.2-1.54-.67c-.54-.47-1.01-.67-1.27-.67-.2,0-.47.13-.74.4-.6.54-1.14,1.41-1.81,2.61v8.44c0,1.01.13,1.68.34,2.21.13.34.47.6.87.87.4.27,1.01.34,1.81.34v.67h-9.05v-.67c.87,0,1.54-.13,2.01-.4.34-.2.54-.54.67-1.01,0-.2.07-.8.07-1.88v-6.84c0-2.08,0-3.28-.13-3.69-.07-.4-.27-.67-.47-.87s-.54-.27-.8-.27c-.4,0-.87.07-1.34.27l-.2-.67,5.36-2.14h.94Z"/>
      <path class="st4" d="M245.35,77.45c2.68,0,4.82,1.01,6.43,3.02,1.41,1.74,2.08,3.69,2.08,5.96,0,1.61-.4,3.15-1.14,4.76-.74,1.61-1.81,2.81-3.15,3.69-1.34.8-2.81,1.21-4.42,1.21-2.68,0-4.76-1.07-6.3-3.15-1.34-1.81-2.01-3.75-2.01-6.03,0-1.61.4-3.22,1.21-4.82s1.88-2.75,3.15-3.55c1.34-.74,2.68-1.14,4.15-1.14v.07ZM244.74,78.72c-.67,0-1.34.2-2.08.6-.67.4-1.27,1.14-1.68,2.14-.4,1.01-.6,2.35-.6,3.89,0,2.55.54,4.76,1.54,6.63s2.35,2.81,4.02,2.81c1.27,0,2.28-.54,3.08-1.54s1.21-2.81,1.21-5.29c0-3.15-.67-5.56-2.01-7.37-.94-1.21-2.08-1.88-3.48-1.88h0Z"/>
      <path class="st4" d="M263.31,79.32v11.59c0,1.68.2,2.68.54,3.15.47.54,1.14.87,1.88.87h1.61v.67h-10.52v-.67h.8c.54,0,1.01-.13,1.41-.4s.74-.6.87-1.01c.13-.47.27-1.27.27-2.55v-11.59h-3.42v-1.41h3.42v-1.14c0-1.74.27-3.22.87-4.49.54-1.21,1.41-2.21,2.61-2.95,1.14-.74,2.48-1.14,3.89-1.14s2.61.4,3.69,1.34c.74.6,1.14,1.21,1.14,1.94,0,.4-.13.74-.47,1.07-.34.34-.67.54-1.07.54-.27,0-.6-.13-.94-.34s-.74-.67-1.21-1.34c-.47-.67-.94-1.14-1.34-1.41-.4-.27-.87-.34-1.34-.34-.6,0-1.07.13-1.47.47s-.74.8-.87,1.47-.27,2.35-.27,5.09v1.27h4.56v1.41h-4.56l-.07-.13Z"/>
      <path class="st4" d="M273.22,91.85c.6,0,1.14.2,1.54.6s.6.94.6,1.54-.2,1.07-.6,1.54c-.4.4-.94.6-1.54.6s-1.07-.2-1.54-.6c-.4-.4-.6-.94-.6-1.54s.2-1.14.6-1.54c.4-.4.94-.6,1.54-.6Z"/>
      <path class="st4" d="M288.64,95.61v-.74h1.01c1.07,0,1.88-.34,2.35-1.07.27-.4.4-1.34.4-2.81v-16.82c0-1.61-.2-2.68-.54-3.08-.47-.54-1.27-.87-2.21-.87h-1.01v-.74h10.59c3.89,0,6.84.47,8.91,1.34,2.01.87,3.69,2.35,4.89,4.42,1.27,2.08,1.88,4.42,1.88,7.17,0,3.62-1.07,6.63-3.28,9.11-2.48,2.75-6.23,4.09-11.33,4.09h-11.66ZM296.14,93.73c1.61.34,3.02.54,4.09.54,2.95,0,5.43-1.07,7.44-3.15,1.94-2.08,2.95-4.96,2.95-8.51s-1.01-6.43-2.95-8.51c-1.94-2.08-4.49-3.15-7.57-3.15-1.14,0-2.48.2-3.95.54v22.25Z"/>
      <path class="st4" d="M322.81,77.45v3.95c1.47-2.61,3.02-3.95,4.56-3.95.74,0,1.27.2,1.74.67.47.4.67.94.67,1.47,0,.47-.13.94-.47,1.27-.34.34-.74.54-1.21.54s-.94-.2-1.54-.67c-.54-.47-1.01-.67-1.27-.67-.2,0-.47.13-.74.4-.6.54-1.14,1.41-1.81,2.61v8.44c0,1.01.13,1.68.34,2.21.13.34.47.6.87.87.4.27,1.01.34,1.81.34v.67h-9.05v-.67c.87,0,1.54-.13,2.01-.4.34-.2.54-.54.67-1.01,0-.2.07-.8.07-1.88v-6.84c0-2.08,0-3.28-.13-3.69-.07-.4-.27-.67-.47-.87s-.54-.27-.8-.27c-.4,0-.87.07-1.34.27l-.2-.67,5.36-2.14h.94Z"/>
      <path class="st4" d="M332.33,91.85c.6,0,1.14.2,1.54.6s.6.94.6,1.54-.2,1.07-.6,1.54c-.4.4-.94.6-1.54.6s-1.07-.2-1.54-.6c-.4-.4-.6-.94-.6-1.54s.2-1.14.6-1.54c.4-.4.94-.6,1.54-.6Z"/>
      <path class="st4" d="M361.55,68.94c3.42,0,6.3,1.27,8.78,3.89,2.48,2.55,3.75,5.76,3.75,9.65s-1.27,7.24-3.75,9.85c-2.48,2.61-5.5,3.95-9.05,3.95s-6.63-1.27-9.05-3.82c-2.41-2.55-3.69-5.83-3.69-9.92s1.41-7.51,4.22-10.12c2.48-2.28,5.36-3.42,8.78-3.42v-.07ZM361.14,70.28c-2.35,0-4.22.87-5.63,2.61-1.74,2.14-2.61,5.29-2.61,9.45s.94,7.51,2.75,9.85c1.41,1.74,3.22,2.61,5.56,2.61,2.48,0,4.49-.94,6.1-2.88,1.61-1.94,2.41-4.89,2.41-9.05,0-4.49-.87-7.77-2.61-9.99-1.41-1.74-3.35-2.61-5.83-2.61h-.13Z"/>
      <path class="st4" d="M402.22,95.61h-6.97l-8.85-12.2h-2.75v7.57c0,1.68.2,2.68.54,3.08.47.54,1.21.87,2.21.87h1.01v.74h-11.19v-.74h1.01c1.07,0,1.88-.34,2.35-1.07.27-.4.4-1.34.4-2.81v-16.82c0-1.68-.2-2.68-.54-3.08-.47-.54-1.27-.87-2.21-.87h-1.01v-.74h9.52c2.75,0,4.82.2,6.1.6,1.34.4,2.41,1.14,3.35,2.21s1.41,2.35,1.41,3.89-.54,3.02-1.54,4.15c-1.07,1.21-2.68,2.01-4.82,2.48l5.36,7.51c1.21,1.74,2.28,2.88,3.15,3.42.87.54,2.01.94,3.48,1.07v.74h0ZM383.66,82.2h1.07c2.48,0,4.36-.54,5.63-1.61,1.27-1.07,1.88-2.48,1.88-4.09s-.54-2.95-1.54-3.95c-1.01-1.01-2.35-1.54-4.02-1.54-.74,0-1.74.13-3.02.34,0,0,0,10.86,0,10.86Z"/>
      <path class="st4" d="M409.93,81.6h12.13v-7.44c0-1.34-.07-2.21-.27-2.61-.13-.34-.4-.6-.8-.8-.54-.34-1.14-.47-1.74-.47h-.94v-.74h11.19v.74h-.94c-.6,0-1.21.13-1.74.47-.4.2-.67.54-.8.94s-.2,1.27-.2,2.55v16.82c0,1.34.07,2.21.27,2.61.13.34.4.6.8.8.54.34,1.14.47,1.74.47h.94v.74h-11.19v-.74h.94c1.07,0,1.81-.34,2.35-.94.34-.4.47-1.41.47-2.95v-7.97h-12.13v7.97c0,1.34.07,2.21.27,2.61.13.34.4.6.8.8.54.34,1.14.47,1.74.47h.94v.74h-11.19v-.74h.94c1.07,0,1.88-.34,2.35-.94.34-.4.47-1.41.47-2.95v-16.82c0-1.34-.07-2.21-.27-2.61-.13-.34-.4-.6-.8-.8-.54-.34-1.14-.47-1.74-.47h-.94v-.74h11.19v.74h-.94c-.6,0-1.21.13-1.74.47-.4.2-.67.54-.8.94s-.2,1.27-.2,2.55v7.44l-.13-.13Z"/>
      <path class="st4" d="M448.33,86.83h-10.12l-1.74,4.09c-.4,1.01-.67,1.74-.67,2.28,0,.4.2.74.54,1.07.4.27,1.21.47,2.48.6v.74h-8.24v-.74c1.07-.2,1.81-.47,2.14-.74.67-.6,1.41-1.88,2.14-3.75l9.18-21.44h.67l9.11,21.71c.74,1.74,1.41,2.88,2.01,3.42.6.54,1.41.8,2.48.87v.74h-10.32v-.74c1.07,0,1.74-.2,2.08-.54.34-.34.54-.67.54-1.07,0-.54-.27-1.47-.8-2.68l-1.54-3.75.07-.07ZM447.79,85.42l-4.42-10.52-4.56,10.52h8.98Z"/>
      <path class="st4" d="M458.25,69.47h7.1l15.95,19.57v-15.08c0-1.61-.2-2.61-.54-3.02-.47-.54-1.21-.8-2.28-.8h-.87v-.74h9.11v.74h-.94c-1.07,0-1.88.34-2.35,1.01-.27.4-.4,1.34-.4,2.81v21.98h-.67l-17.22-21.04v16.08c0,1.61.2,2.61.54,3.02.47.54,1.21.8,2.28.8h.94v.74h-9.11v-.74h.87c1.14,0,1.88-.34,2.35-1.01.27-.4.4-1.34.4-2.81v-18.16c-.74-.87-1.34-1.47-1.74-1.74-.4-.27-.94-.54-1.74-.8-.4-.13-.94-.2-1.68-.2v-.74.13Z"/>
      <path class="st4" d="M525.06,69.47v.74c-.94.13-1.61.47-2.08.87-.67.6-1.27,1.61-1.81,2.88l-9.11,22.18h-.74l-9.78-22.52c-.47-1.14-.87-1.88-1.07-2.14-.34-.4-.74-.74-1.21-.94s-1.14-.4-1.88-.4v-.74h10.66v.74c-1.21.13-2.01.34-2.35.6s-.54.67-.54,1.14c0,.67.27,1.68.87,3.02l6.63,15.28,6.17-15.08c.6-1.47.94-2.55.94-3.08,0-.4-.2-.74-.54-1.07-.34-.34-1.01-.6-1.88-.74h-.34v-.74h8.04Z"/>
      <path class="st4" d="M533.77,70.95v10.32h5.76c1.47,0,2.48-.2,2.95-.67.67-.6,1.07-1.61,1.14-3.15h.74v9.11h-.74c-.2-1.27-.34-2.08-.54-2.41-.27-.47-.6-.8-1.14-1.07-.54-.27-1.34-.4-2.41-.4h-5.76v8.58c0,1.14,0,1.88.13,2.08.13.27.27.47.54.6.27.13.74.2,1.47.2h4.42c1.47,0,2.55-.07,3.22-.34.67-.2,1.34-.6,1.94-1.21.8-.8,1.61-2.01,2.48-3.62h.74l-2.28,6.57h-20.1v-.74h.94c.6,0,1.21-.13,1.74-.47.4-.2.67-.54.8-.94.13-.4.2-1.27.2-2.55v-16.95c0-1.68-.2-2.68-.54-3.08-.47-.54-1.21-.74-2.28-.74h-.94v-.74h20.1l.27,5.7h-.74c-.27-1.41-.54-2.35-.87-2.81s-.8-.87-1.47-1.14c-.54-.2-1.41-.27-2.75-.27h-7.17l.13.13Z"/>
      <path class="st4" d="M572.24,88.37l.6.13-2.21,7.1h-20.17v-.74h1.01c1.07,0,1.88-.34,2.35-1.07.27-.4.4-1.34.4-2.88v-16.82c0-1.61-.2-2.68-.54-3.08-.54-.54-1.27-.87-2.21-.87h-1.01v-.74h11.79v.74c-1.41,0-2.35.13-2.95.4-.54.27-.94.6-1.14,1.01s-.34,1.41-.34,2.95v16.42c0,1.07.13,1.81.34,2.21.13.27.4.47.74.6.34.13,1.34.2,3.02.2h1.88c2.01,0,3.42-.13,4.22-.47.8-.27,1.54-.8,2.21-1.54s1.34-1.94,2.01-3.55h0Z"/>
      <path class="st4" d="M585.84,94.87v.74h-11.19v-.74h.94c1.07,0,1.88-.34,2.35-.94.34-.4.47-1.41.47-2.95v-16.82c0-1.34-.07-2.21-.27-2.61-.13-.34-.4-.6-.8-.8-.54-.34-1.14-.47-1.74-.47h-.94v-.74h11.19v.74h-.94c-1.07,0-1.81.34-2.35.94-.34.4-.47,1.41-.47,2.95v16.82c0,1.34.07,2.21.27,2.61.13.34.4.6.8.8.54.34,1.14.47,1.74.47h.94ZM580.28,62.7c.6,0,1.07.2,1.47.6.4.4.6.87.6,1.47s-.2,1.07-.6,1.47-.87.6-1.47.6-1.07-.2-1.47-.6c-.4-.4-.6-.87-.6-1.47s.2-1.07.6-1.47.87-.6,1.47-.6Z"/>
      <path class="st4" d="M597.37,95.61v-.74h1.01c1.07,0,1.88-.34,2.35-1.07.27-.4.4-1.34.4-2.81v-16.82c0-1.61-.2-2.68-.54-3.08-.47-.54-1.27-.87-2.21-.87h-1.01v-.74h10.59c3.89,0,6.84.47,8.91,1.34,2.01.87,3.69,2.35,4.89,4.42s1.88,4.42,1.88,7.17c0,3.62-1.07,6.63-3.28,9.11-2.48,2.75-6.23,4.09-11.33,4.09h-11.66ZM604.81,93.73c1.61.34,3.02.54,4.09.54,2.95,0,5.43-1.07,7.44-3.15,1.94-2.08,2.95-4.96,2.95-8.51s-1.01-6.43-2.95-8.51-4.49-3.15-7.57-3.15c-1.14,0-2.48.2-3.95.54v22.25Z"/>
      <path class="st4" d="M639.52,68.94c3.42,0,6.3,1.27,8.78,3.89,2.48,2.55,3.75,5.76,3.75,9.65s-1.27,7.24-3.75,9.85c-2.48,2.61-5.56,3.95-9.11,3.95s-6.63-1.27-9.05-3.82c-2.48-2.55-3.69-5.83-3.69-9.92s1.41-7.51,4.22-10.12c2.48-2.28,5.36-3.42,8.78-3.42l.07-.07ZM639.18,70.28c-2.35,0-4.22.87-5.63,2.61-1.74,2.14-2.61,5.29-2.61,9.45s.94,7.51,2.75,9.85c1.41,1.74,3.22,2.61,5.56,2.61,2.48,0,4.49-.94,6.1-2.88,1.61-1.94,2.41-4.89,2.41-9.05,0-4.49-.87-7.77-2.61-9.99-1.41-1.74-3.35-2.61-5.83-2.61h-.13Z"/>
      <path class="st4" d="M677.78,68.94l.67,8.24h-.67c-.67-2.08-1.54-3.62-2.61-4.62-1.54-1.47-3.55-2.28-5.96-2.28-3.35,0-5.83,1.34-7.57,3.95-1.47,2.21-2.14,4.89-2.14,7.91,0,2.48.47,4.76,1.47,6.84.94,2.08,2.21,3.55,3.75,4.49,1.54.94,3.15,1.41,4.82,1.41.94,0,1.88-.13,2.81-.34.87-.27,1.74-.6,2.61-1.07v-7.57c0-1.34-.07-2.14-.27-2.55s-.54-.74-.94-.94-1.14-.34-2.21-.34v-.74h10.12v.74h-.47c-1.01,0-1.68.34-2.08,1.01-.27.47-.4,1.41-.4,2.81v7.97c-1.47.8-2.95,1.41-4.36,1.74-1.41.4-3.02.54-4.76.54-5.03,0-8.85-1.61-11.46-4.82-1.94-2.41-2.95-5.23-2.95-8.38,0-2.28.54-4.49,1.68-6.57,1.34-2.48,3.08-4.42,5.36-5.76,1.94-1.14,4.15-1.68,6.77-1.68.94,0,1.81.07,2.61.2s1.88.47,3.28,1.01c.74.27,1.21.4,1.41.4s.47-.13.6-.34c.2-.2.27-.67.34-1.34h.74l-.2.07ZM663.64,61.83h.6c.4.8.94,1.34,1.47,1.68.94.54,2.08.8,3.48.8s2.55-.27,3.48-.8c.67-.34,1.14-.94,1.34-1.68h.6c-.13,1.61-.74,2.88-1.74,3.89-1.07,1.01-2.28,1.47-3.75,1.47s-2.68-.47-3.69-1.47c-1.07-1.01-1.68-2.28-1.81-3.89Z"/>
      <path class="st4" d="M700.1,86.83h-10.12l-1.74,4.09c-.47,1.01-.67,1.74-.67,2.28,0,.4.2.74.54,1.07.4.27,1.21.47,2.48.6v.74h-8.24v-.74c1.07-.2,1.81-.47,2.14-.74.67-.6,1.41-1.88,2.21-3.75l9.18-21.44h.67l9.11,21.71c.74,1.74,1.41,2.88,2.01,3.42s1.41.8,2.48.87v.74h-10.32v-.74c1.07,0,1.74-.2,2.08-.54.34-.34.54-.67.54-1.07,0-.54-.27-1.47-.8-2.68l-1.61-3.75.07-.07ZM699.56,85.42l-4.42-10.52-4.56,10.52h8.98Z"/>
      <path class="st4" d="M710.02,69.47h7.1l15.95,19.57v-15.08c0-1.61-.2-2.61-.54-3.02-.47-.54-1.21-.8-2.28-.8h-.87v-.74h9.11v.74h-.94c-1.07,0-1.88.34-2.35,1.01-.27.4-.4,1.34-.4,2.81v21.98h-.67l-17.22-21.04v16.08c0,1.61.2,2.61.54,3.02.47.54,1.21.8,2.28.8h.94v.74h-9.11v-.74h.87c1.14,0,1.88-.34,2.35-1.01.27-.4.4-1.34.4-2.81v-18.16c-.74-.87-1.34-1.47-1.74-1.74s-.94-.54-1.74-.8c-.4-.13-.94-.2-1.68-.2v-.74.13Z"/>
    </g>
    <g>
      <path class="st4" d="M210.91,119.24l7.95,7.91c1.3,1.3,2.42,2.19,3.34,2.66.92.47,1.84.74,2.77.8v.59h-10.26v-.59c.61,0,1.06-.1,1.33-.31.27-.21.41-.44.41-.69s-.05-.48-.15-.68c-.1-.2-.43-.58-.99-1.13l-7.44-7.36v6.95c0,1.09.07,1.81.21,2.16.11.26.33.49.67.68.46.25.94.38,1.45.38h.73v.59h-9.19v-.59h.76c.89,0,1.54-.26,1.94-.78.25-.34.38-1.16.38-2.45v-13.93c0-1.09-.07-1.82-.21-2.18-.11-.25-.32-.48-.65-.67-.47-.25-.96-.38-1.46-.38h-.76v-.59h9.19v.59h-.73c-.5,0-.98.12-1.45.37-.33.17-.56.42-.68.76-.13.34-.19,1.04-.19,2.1v6.6c.21-.2.94-.87,2.18-2.02,3.15-2.88,5.05-4.81,5.71-5.77.29-.42.43-.8.43-1.11,0-.24-.11-.46-.33-.64-.22-.19-.6-.28-1.13-.28h-.49v-.59h7.92v.59c-.47.01-.89.07-1.27.19-.38.12-.85.34-1.4.68-.55.33-1.23.87-2.04,1.61-.23.21-1.31,1.3-3.23,3.26l-3.29,3.28Z"/>
      <path class="st4" d="M233.97,129.1c-1.49,1.16-2.43,1.82-2.82,2-.57.26-1.18.4-1.83.4-1.01,0-1.84-.35-2.49-1.03-.65-.69-.98-1.6-.98-2.72,0-.71.16-1.33.48-1.84.44-.72,1.19-1.4,2.27-2.04s2.87-1.41,5.37-2.32v-.57c0-1.45-.23-2.45-.69-2.99-.46-.54-1.13-.81-2.01-.81-.67,0-1.2.18-1.59.54-.4.36-.6.77-.6,1.24l.03.92c0,.49-.12.86-.37,1.13-.25.27-.58.4-.98.4s-.71-.14-.96-.41c-.25-.28-.37-.65-.37-1.13,0-.91.47-1.75,1.4-2.51.93-.76,2.24-1.15,3.93-1.15,1.29,0,2.35.22,3.18.65.63.33,1.09.84,1.38,1.54.19.46.29,1.39.29,2.8v4.95c0,1.39.03,2.24.08,2.55.05.31.14.52.26.63.12.11.26.16.42.16.17,0,.32-.04.45-.11.22-.14.65-.52,1.29-1.16v.89c-1.19,1.59-2.32,2.39-3.4,2.39-.52,0-.93-.18-1.24-.54-.31-.36-.47-.98-.48-1.84ZM233.97,128.07v-5.55c-1.6.64-2.64,1.09-3.1,1.35-.84.47-1.44.95-1.8,1.46-.36.51-.54,1.07-.54,1.67,0,.76.23,1.4.68,1.9.46.5.98.75,1.57.75.81,0,1.87-.53,3.18-1.59Z"/>
      <path class="st4" d="M245.19,108.58v19.32c0,.91.07,1.52.2,1.81.13.3.34.52.61.68.28.15.79.23,1.54.23v.57h-7.14v-.57c.67,0,1.12-.07,1.37-.21s.44-.37.57-.68c.14-.32.21-.93.21-1.83v-13.23c0-1.64-.04-2.65-.11-3.03-.07-.38-.19-.63-.36-.77s-.37-.21-.63-.21c-.28,0-.63.09-1.05.25l-.27-.56,4.34-1.78h.72Z"/>
      <path class="st4" d="M248.18,118.08l4.49-1.81h.6v3.4c.75-1.28,1.51-2.18,2.27-2.7s1.56-.77,2.39-.77c1.46,0,2.68.57,3.66,1.72,1.2,1.4,1.8,3.22,1.8,5.47,0,2.51-.72,4.59-2.16,6.24-1.19,1.35-2.68,2.02-4.48,2.02-.78,0-1.46-.11-2.04-.33-.42-.16-.9-.48-1.43-.95v4.44c0,1,.06,1.63.18,1.9s.33.48.64.64c.3.16.85.24,1.65.24v.59h-7.63v-.59h.4c.58.01,1.08-.1,1.49-.33.2-.12.36-.3.47-.57.11-.26.17-.92.17-1.98v-13.77c0-.94-.04-1.54-.13-1.8-.09-.26-.22-.45-.41-.57-.19-.13-.44-.19-.76-.19-.25,0-.58.07-.97.22l-.19-.51ZM253.27,120.61v5.44c0,1.18.05,1.95.14,2.32.15.61.51,1.16,1.09,1.62.58.47,1.31.7,2.19.7,1.06,0,1.92-.41,2.58-1.24.86-1.08,1.29-2.6,1.29-4.57,0-2.23-.49-3.94-1.46-5.14-.68-.83-1.48-1.24-2.42-1.24-.51,0-1.01.13-1.51.38-.38.19-1.01.76-1.89,1.72Z"/>
      <path class="st4" d="M272.91,116.63h6.85v.59h-.45c-.41,0-.73.1-.95.3s-.33.47-.33.81c0,.37.11.81.33,1.32l3.39,8.05,3.4-8.35c.24-.59.37-1.04.37-1.35,0-.15-.04-.27-.13-.36-.12-.16-.26-.27-.44-.33-.18-.06-.55-.09-1.1-.09v-.59h4.76v.59c-.55.04-.93.15-1.15.33-.37.32-.71.85-1,1.59l-5.17,12.5h-.65l-5.2-12.29c-.23-.57-.46-.98-.67-1.23-.21-.25-.48-.46-.81-.63-.18-.1-.54-.19-1.07-.27v-.59Z"/>
      <path class="st4" d="M292.39,122.12c-.01,2.16.51,3.86,1.57,5.09s2.31,1.84,3.74,1.84c.95,0,1.78-.26,2.49-.79.7-.52,1.3-1.42,1.77-2.7l.49.32c-.22,1.45-.87,2.78-1.94,3.97-1.07,1.19-2.41,1.79-4.02,1.79-1.75,0-3.25-.68-4.49-2.04s-1.87-3.19-1.87-5.5c0-2.49.64-4.43,1.92-5.83,1.28-1.39,2.88-2.09,4.81-2.09,1.63,0,2.97.54,4.02,1.61s1.57,2.52,1.57,4.32h-10.07ZM292.39,121.2h6.74c-.05-.93-.16-1.59-.33-1.97-.26-.59-.66-1.06-1.18-1.4-.52-.34-1.07-.51-1.65-.51-.88,0-1.67.34-2.36,1.03-.7.68-1.1,1.64-1.22,2.86Z"/>
      <path class="st4" d="M312.08,131.2v-.59h.81c.91,0,1.56-.29,1.94-.87.23-.35.35-1.13.35-2.35v-13.93c0-1.35-.15-2.19-.45-2.53-.41-.47-1.03-.7-1.84-.7h-.81v-.59h8.78c3.22,0,5.68.37,7.36,1.1,1.68.73,3.03,1.95,4.06,3.66,1.02,1.71,1.54,3.68,1.54,5.92,0,3-.91,5.51-2.74,7.52-2.05,2.25-5.16,3.37-9.35,3.37h-9.64ZM318.24,129.64c1.35.3,2.48.45,3.39.45,2.46,0,4.5-.86,6.12-2.59,1.62-1.73,2.43-4.07,2.43-7.03s-.81-5.33-2.43-7.05c-1.62-1.72-3.71-2.58-6.25-2.58-.95,0-2.04.15-3.26.46v18.34Z"/>
      <path class="st4" d="M344.32,129.1c-1.49,1.16-2.43,1.82-2.82,2-.57.26-1.18.4-1.83.4-1.01,0-1.84-.35-2.49-1.03-.65-.69-.98-1.6-.98-2.72,0-.71.16-1.33.48-1.84.44-.72,1.19-1.4,2.27-2.04s2.87-1.41,5.37-2.32v-.57c0-1.45-.23-2.45-.69-2.99-.46-.54-1.13-.81-2.01-.81-.67,0-1.2.18-1.59.54-.4.36-.6.77-.6,1.24l.03.92c0,.49-.12.86-.37,1.13-.25.27-.58.4-.98.4s-.71-.14-.96-.41c-.25-.28-.37-.65-.37-1.13,0-.91.47-1.75,1.4-2.51.93-.76,2.24-1.15,3.93-1.15,1.29,0,2.35.22,3.18.65.63.33,1.09.84,1.38,1.54.19.46.29,1.39.29,2.8v4.95c0,1.39.03,2.24.08,2.55.05.31.14.52.26.63.12.11.26.16.42.16.17,0,.32-.04.45-.11.22-.14.65-.52,1.29-1.16v.89c-1.19,1.59-2.32,2.39-3.4,2.39-.52,0-.93-.18-1.24-.54-.31-.36-.47-.98-.48-1.84ZM344.32,128.07v-5.55c-1.6.64-2.64,1.09-3.1,1.35-.84.47-1.44.95-1.8,1.46-.36.51-.54,1.07-.54,1.67,0,.76.23,1.4.68,1.9.46.5.98.75,1.57.75.81,0,1.87-.53,3.18-1.59Z"/>
      <path class="st4" d="M354.85,119.31c1.06-1.06,1.68-1.67,1.88-1.83.48-.4.99-.72,1.54-.94.55-.22,1.1-.33,1.64-.33.91,0,1.7.26,2.35.8.66.53,1.1,1.3,1.32,2.31,1.09-1.27,2.01-2.11,2.77-2.51.75-.4,1.53-.6,2.32-.6s1.46.2,2.06.6c.6.4,1.07,1.05,1.42,1.95.23.61.35,1.58.35,2.89v6.27c0,.91.07,1.54.21,1.88.11.23.3.43.59.6.29.16.75.25,1.4.25v.57h-7.19v-.57h.3c.62,0,1.11-.12,1.46-.36.24-.17.42-.44.52-.81.04-.18.06-.7.06-1.54v-6.27c0-1.19-.14-2.03-.43-2.51-.41-.68-1.08-1.02-1.99-1.02-.56,0-1.13.14-1.69.42-.57.28-1.25.8-2.06,1.57l-.03.17.03.68v6.95c0,1,.06,1.62.17,1.86.11.24.32.45.63.61.31.16.83.25,1.58.25v.57h-7.36v-.57c.81,0,1.36-.09,1.66-.29.3-.19.51-.48.63-.86.05-.18.08-.7.08-1.57v-6.27c0-1.19-.17-2.04-.52-2.56-.47-.68-1.12-1.02-1.96-1.02-.57,0-1.14.15-1.7.46-.88.47-1.56.99-2.03,1.58v7.81c0,.95.07,1.57.2,1.86s.33.5.59.64c.26.14.79.21,1.58.21v.57h-7.21v-.57c.67,0,1.13-.07,1.4-.21.27-.14.47-.37.61-.68.14-.31.21-.92.21-1.82v-5.57c0-1.6-.05-2.63-.14-3.1-.07-.35-.19-.59-.35-.72-.16-.13-.38-.2-.65-.2-.3,0-.65.08-1.07.24l-.24-.57,4.39-1.78h.68v3.1Z"/>
      <path class="st4" d="M384.12,129.1c-1.49,1.16-2.43,1.82-2.82,2-.57.26-1.18.4-1.83.4-1.01,0-1.84-.35-2.49-1.03-.65-.69-.98-1.6-.98-2.72,0-.71.16-1.33.48-1.84.44-.72,1.19-1.4,2.27-2.04s2.87-1.41,5.37-2.32v-.57c0-1.45-.23-2.45-.69-2.99-.46-.54-1.13-.81-2.01-.81-.67,0-1.2.18-1.59.54-.4.36-.6.77-.6,1.24l.03.92c0,.49-.12.86-.37,1.13-.25.27-.58.4-.98.4s-.71-.14-.96-.41c-.25-.28-.37-.65-.37-1.13,0-.91.47-1.75,1.4-2.51.93-.76,2.24-1.15,3.93-1.15,1.29,0,2.35.22,3.18.65.63.33,1.09.84,1.38,1.54.19.46.29,1.39.29,2.8v4.95c0,1.39.03,2.24.08,2.55.05.31.14.52.26.63.12.11.26.16.42.16.17,0,.32-.04.45-.11.22-.14.65-.52,1.29-1.16v.89c-1.19,1.59-2.32,2.39-3.4,2.39-.52,0-.93-.18-1.24-.54-.31-.36-.47-.98-.48-1.84ZM384.12,128.07v-5.55c-1.6.64-2.64,1.09-3.1,1.35-.84.47-1.44.95-1.8,1.46-.36.51-.54,1.07-.54,1.67,0,.76.23,1.4.68,1.9.46.5.98.75,1.57.75.81,0,1.87-.53,3.18-1.59Z"/>
      <path class="st4" d="M394.58,116.2v3.28c1.22-2.18,2.47-3.28,3.75-3.28.58,0,1.07.18,1.45.53.38.35.57.77.57,1.23,0,.41-.14.76-.41,1.05-.28.29-.61.43-.99.43s-.79-.18-1.25-.55-.8-.55-1.03-.55c-.19,0-.4.11-.62.32-.48.44-.97,1.15-1.48,2.15v6.98c0,.81.1,1.41.3,1.83.14.29.38.52.73.72s.85.29,1.51.29v.57h-7.46v-.57c.74,0,1.29-.12,1.65-.35.26-.17.45-.44.56-.81.05-.18.08-.7.08-1.54v-5.65c0-1.7-.03-2.71-.1-3.03s-.2-.56-.38-.71c-.19-.15-.42-.22-.69-.22-.33,0-.7.08-1.11.24l-.16-.57,4.41-1.78h.67Z"/>
      <path class="st4" d="M427.9,109.14l.49,7.33h-.49c-.66-2.2-1.6-3.77-2.82-4.74-1.22-.96-2.68-1.45-4.39-1.45-1.43,0-2.73.36-3.88,1.09-1.16.73-2.07,1.89-2.73,3.48s-.99,3.57-.99,5.93c0,1.95.31,3.64.94,5.07.63,1.43,1.57,2.53,2.82,3.29,1.26.76,2.69,1.15,4.3,1.15,1.4,0,2.64-.3,3.71-.9,1.07-.6,2.25-1.79,3.53-3.57l.49.32c-1.08,1.92-2.34,3.32-3.79,4.22-1.44.89-3.15,1.34-5.14,1.34-3.57,0-6.34-1.32-8.3-3.98-1.46-1.97-2.19-4.29-2.19-6.97,0-2.15.48-4.13,1.45-5.93.97-1.8,2.29-3.2,3.98-4.19,1.69-.99,3.54-1.49,5.54-1.49,1.56,0,3.1.38,4.61,1.15.45.23.76.35.96.35.29,0,.54-.1.75-.3.28-.29.47-.68.59-1.19h.56Z"/>
      <path class="st4" d="M433.49,122.12c-.01,2.16.51,3.86,1.57,5.09s2.31,1.84,3.74,1.84c.95,0,1.78-.26,2.49-.79.7-.52,1.3-1.42,1.77-2.7l.49.32c-.22,1.45-.87,2.78-1.94,3.97-1.07,1.19-2.41,1.79-4.02,1.79-1.75,0-3.25-.68-4.49-2.04s-1.87-3.19-1.87-5.5c0-2.49.64-4.43,1.92-5.83,1.28-1.39,2.88-2.09,4.81-2.09,1.63,0,2.97.54,4.02,1.61s1.57,2.52,1.57,4.32h-10.07ZM433.49,121.2h6.74c-.05-.93-.16-1.59-.33-1.97-.26-.59-.66-1.06-1.18-1.4-.52-.34-1.07-.51-1.65-.51-.88,0-1.67.34-2.36,1.03-.7.68-1.1,1.64-1.22,2.86Z"/>
      <path class="st4" d="M449.76,116.2v3.28c1.22-2.18,2.47-3.28,3.75-3.28.58,0,1.07.18,1.45.53.38.35.57.77.57,1.23,0,.41-.14.76-.41,1.05-.28.29-.61.43-.99.43s-.79-.18-1.25-.55-.8-.55-1.03-.55c-.19,0-.4.11-.62.32-.48.44-.97,1.15-1.48,2.15v6.98c0,.81.1,1.41.3,1.83.14.29.38.52.73.72s.85.29,1.51.29v.57h-7.46v-.57c.74,0,1.29-.12,1.65-.35.26-.17.45-.44.56-.81.05-.18.08-.7.08-1.54v-5.65c0-1.7-.03-2.71-.1-3.03s-.2-.56-.38-.71c-.19-.15-.42-.22-.69-.22-.33,0-.7.08-1.11.24l-.16-.57,4.41-1.78h.67Z"/>
      <path class="st4" d="M460.6,116.2v3.28c1.22-2.18,2.47-3.28,3.75-3.28.58,0,1.07.18,1.45.53.38.35.57.77.57,1.23,0,.41-.14.76-.41,1.05-.28.29-.61.43-.99.43s-.79-.18-1.25-.55-.8-.55-1.03-.55c-.19,0-.4.11-.62.32-.48.44-.97,1.15-1.48,2.15v6.98c0,.81.1,1.41.3,1.83.14.29.38.52.73.72s.85.29,1.51.29v.57h-7.46v-.57c.74,0,1.29-.12,1.65-.35.26-.17.45-.44.56-.81.05-.18.08-.7.08-1.54v-5.65c0-1.7-.03-2.71-.1-3.03s-.2-.56-.38-.71c-.19-.15-.42-.22-.69-.22-.33,0-.7.08-1.11.24l-.16-.57,4.41-1.78h.67Z"/>
      <path class="st4" d="M475.44,129.1c-1.49,1.16-2.43,1.82-2.82,2-.57.26-1.18.4-1.83.4-1.01,0-1.84-.35-2.49-1.03-.65-.69-.98-1.6-.98-2.72,0-.71.16-1.33.48-1.84.44-.72,1.19-1.4,2.27-2.04s2.87-1.41,5.37-2.32v-.57c0-1.45-.23-2.45-.69-2.99-.46-.54-1.13-.81-2.01-.81-.67,0-1.2.18-1.59.54-.4.36-.6.77-.6,1.24l.03.92c0,.49-.12.86-.37,1.13-.25.27-.58.4-.98.4s-.71-.14-.96-.41c-.25-.28-.37-.65-.37-1.13,0-.91.47-1.75,1.4-2.51.93-.76,2.24-1.15,3.93-1.15,1.29,0,2.35.22,3.18.65.63.33,1.09.84,1.38,1.54.19.46.29,1.39.29,2.8v4.95c0,1.39.03,2.24.08,2.55.05.31.14.52.26.63.12.11.26.16.42.16.17,0,.32-.04.45-.11.22-.14.65-.52,1.29-1.16v.89c-1.19,1.59-2.32,2.39-3.4,2.39-.52,0-.93-.18-1.24-.54-.31-.36-.47-.98-.48-1.84ZM475.44,128.07v-5.55c-1.6.64-2.64,1.09-3.1,1.35-.84.47-1.44.95-1.8,1.46-.36.51-.54,1.07-.54,1.67,0,.76.23,1.4.68,1.9.46.5.98.75,1.57.75.81,0,1.87-.53,3.18-1.59Z"/>
      <path class="st4" d="M485.93,108.58v10.66c1.18-1.29,2.11-2.12,2.8-2.49.69-.36,1.38-.55,2.07-.55.83,0,1.54.23,2.13.68s1.03,1.17,1.32,2.15c.2.68.3,1.92.3,3.72v5.15c0,.92.07,1.55.22,1.89.11.25.29.46.54.6s.72.22,1.4.22v.57h-7.16v-.57h.33c.68,0,1.15-.1,1.42-.31s.45-.51.56-.91c.03-.17.05-.67.05-1.49v-5.15c0-1.59-.08-2.64-.25-3.13s-.43-.87-.79-1.12c-.36-.25-.8-.37-1.3-.37s-1.06.14-1.62.41c-.56.28-1.23.83-2.02,1.67v7.7c0,1,.06,1.62.17,1.86s.32.45.62.61c.3.16.82.25,1.57.25v.57h-7.22v-.57c.65,0,1.16-.1,1.53-.3.21-.11.38-.31.51-.6.13-.3.19-.9.19-1.81v-13.19c0-1.66-.04-2.69-.12-3.07s-.2-.64-.37-.78-.38-.21-.66-.21c-.22,0-.58.09-1.08.25l-.22-.56,4.36-1.78h.73Z"/>
      <path class="st4" d="M502.96,116.2v11.71c0,.91.07,1.52.2,1.82.13.3.33.53.59.68.26.15.73.22,1.42.22v.57h-7.08v-.57c.71,0,1.19-.07,1.43-.21s.44-.37.58-.68c.14-.32.21-.93.21-1.83v-5.61c0-1.58-.05-2.6-.14-3.07-.07-.34-.19-.58-.35-.71-.16-.13-.38-.2-.65-.2-.3,0-.66.08-1.08.24l-.22-.57,4.39-1.78h.7ZM501.64,108.58c.45,0,.82.16,1.14.47.31.31.47.69.47,1.14s-.16.83-.47,1.15c-.31.32-.69.48-1.14.48s-.83-.16-1.15-.48-.48-.7-.48-1.15.16-.82.47-1.14c.31-.31.7-.47,1.15-.47Z"/>
      <path class="st4" d="M516.4,116.2v4.96h-.52c-.4-1.56-.92-2.62-1.55-3.18-.63-.56-1.43-.84-2.41-.84-.74,0-1.34.2-1.8.59-.46.39-.68.83-.68,1.31,0,.59.17,1.1.51,1.53.33.44,1,.9,2,1.38l2.32,1.13c2.15,1.05,3.23,2.43,3.23,4.15,0,1.33-.5,2.39-1.5,3.21-1,.81-2.12,1.22-3.36,1.22-.89,0-1.91-.16-3.05-.48-.35-.11-.64-.16-.86-.16-.24,0-.44.14-.57.41h-.52v-5.2h.52c.3,1.48.86,2.6,1.7,3.36.84.75,1.78,1.13,2.82,1.13.73,0,1.33-.22,1.79-.64s.69-.95.69-1.55c0-.73-.26-1.35-.77-1.84s-1.54-1.13-3.08-1.89c-1.54-.76-2.54-1.45-3.02-2.07-.48-.6-.72-1.37-.72-2.29,0-1.2.41-2.2,1.23-3.01s1.89-1.21,3.19-1.21c.57,0,1.27.12,2.08.37.54.16.9.24,1.08.24.17,0,.3-.04.4-.11.1-.07.21-.24.33-.49h.52Z"/>
      <path class="st4" d="M524.69,116.2v11.71c0,.91.07,1.52.2,1.82.13.3.33.53.59.68.26.15.73.22,1.42.22v.57h-7.08v-.57c.71,0,1.19-.07,1.43-.21s.44-.37.58-.68c.14-.32.21-.93.21-1.83v-5.61c0-1.58-.05-2.6-.14-3.07-.07-.34-.19-.58-.35-.71-.16-.13-.38-.2-.65-.2-.3,0-.66.08-1.08.24l-.22-.57,4.39-1.78h.7ZM523.37,108.58c.45,0,.82.16,1.14.47.31.31.47.69.47,1.14s-.16.83-.47,1.15c-.31.32-.69.48-1.14.48s-.83-.16-1.15-.48-.48-.7-.48-1.15.16-.82.47-1.14c.31-.31.7-.47,1.15-.47Z"/>
      <path class="st4" d="M537.15,122.69h8.22v2.4h-8.22v-2.4Z"/>
      <path class="st4" d="M577.36,109.63v.59c-.76.14-1.34.38-1.73.73-.56.52-1.06,1.32-1.49,2.39l-7.52,18.35h-.59l-8.08-18.59c-.41-.95-.71-1.54-.87-1.75-.26-.33-.59-.59-.98-.77-.39-.19-.91-.3-1.57-.36v-.59h8.81v.59c-1,.1-1.64.27-1.94.51s-.45.56-.45.94c0,.53.24,1.36.73,2.48l5.49,12.64,5.09-12.49c.5-1.23.75-2.08.75-2.56,0-.31-.15-.6-.46-.88s-.83-.48-1.56-.6c-.05-.01-.14-.03-.27-.05v-.59h6.65Z"/>
      <path class="st4" d="M583.42,129.1c-1.49,1.16-2.43,1.82-2.82,2-.57.26-1.18.4-1.83.4-1.01,0-1.84-.35-2.49-1.03-.65-.69-.98-1.6-.98-2.72,0-.71.16-1.33.48-1.84.44-.72,1.19-1.4,2.27-2.04s2.87-1.41,5.37-2.32v-.57c0-1.45-.23-2.45-.69-2.99-.46-.54-1.13-.81-2.01-.81-.67,0-1.2.18-1.59.54-.4.36-.6.77-.6,1.24l.03.92c0,.49-.12.86-.37,1.13-.25.27-.58.4-.98.4s-.71-.14-.96-.41c-.25-.28-.37-.65-.37-1.13,0-.91.47-1.75,1.4-2.51.93-.76,2.24-1.15,3.93-1.15,1.29,0,2.35.22,3.18.65.63.33,1.09.84,1.38,1.54.19.46.29,1.39.29,2.8v4.95c0,1.39.03,2.24.08,2.55.05.31.14.52.26.63.12.11.26.16.42.16.17,0,.32-.04.45-.11.22-.14.65-.52,1.29-1.16v.89c-1.19,1.59-2.32,2.39-3.4,2.39-.52,0-.93-.18-1.24-.54-.31-.36-.47-.98-.48-1.84ZM583.42,128.07v-5.55c-1.6.64-2.64,1.09-3.1,1.35-.84.47-1.44.95-1.8,1.46-.36.51-.54,1.07-.54,1.67,0,.76.23,1.4.68,1.9.46.5.98.75,1.57.75.81,0,1.87-.53,3.18-1.59Z"/>
      <path class="st4" d="M593.89,116.2v3.28c1.22-2.18,2.47-3.28,3.75-3.28.58,0,1.07.18,1.45.53.38.35.57.77.57,1.23,0,.41-.14.76-.41,1.05-.28.29-.61.43-.99.43s-.79-.18-1.25-.55-.8-.55-1.03-.55c-.19,0-.4.11-.62.32-.48.44-.97,1.15-1.48,2.15v6.98c0,.81.1,1.41.3,1.83.14.29.38.52.73.72s.85.29,1.51.29v.57h-7.46v-.57c.74,0,1.29-.12,1.65-.35.26-.17.45-.44.56-.81.05-.18.08-.7.08-1.54v-5.65c0-1.7-.03-2.71-.1-3.03s-.2-.56-.38-.71c-.19-.15-.42-.22-.69-.22-.33,0-.7.08-1.11.24l-.16-.57,4.41-1.78h.67Z"/>
      <path class="st4" d="M605.5,116.2v11.71c0,.91.07,1.52.2,1.82.13.3.33.53.59.68.26.15.73.22,1.42.22v.57h-7.08v-.57c.71,0,1.19-.07,1.43-.21s.44-.37.58-.68c.14-.32.21-.93.21-1.83v-5.61c0-1.58-.05-2.6-.14-3.07-.07-.34-.19-.58-.35-.71-.16-.13-.38-.2-.65-.2-.3,0-.66.08-1.08.24l-.22-.57,4.39-1.78h.7ZM604.18,108.58c.45,0,.82.16,1.14.47.31.31.47.69.47,1.14s-.16.83-.47,1.15c-.31.32-.69.48-1.14.48s-.83-.16-1.15-.48-.48-.7-.48-1.15.16-.82.47-1.14c.31-.31.7-.47,1.15-.47Z"/>
      <path class="st4" d="M618.94,116.2v4.96h-.52c-.4-1.56-.92-2.62-1.55-3.18-.63-.56-1.43-.84-2.41-.84-.74,0-1.34.2-1.8.59-.46.39-.68.83-.68,1.31,0,.59.17,1.1.51,1.53.33.44,1,.9,2,1.38l2.32,1.13c2.15,1.05,3.23,2.43,3.23,4.15,0,1.33-.5,2.39-1.5,3.21-1,.81-2.12,1.22-3.36,1.22-.89,0-1.91-.16-3.05-.48-.35-.11-.64-.16-.86-.16-.24,0-.44.14-.57.41h-.52v-5.2h.52c.3,1.48.86,2.6,1.7,3.36.84.75,1.78,1.13,2.82,1.13.73,0,1.33-.22,1.79-.64s.69-.95.69-1.55c0-.73-.26-1.35-.77-1.84s-1.54-1.13-3.08-1.89c-1.54-.76-2.54-1.45-3.02-2.07-.48-.6-.72-1.37-.72-2.29,0-1.2.41-2.2,1.23-3.01s1.89-1.21,3.19-1.21c.57,0,1.27.12,2.08.37.54.16.9.24,1.08.24.17,0,.3-.04.4-.11.1-.07.21-.24.33-.49h.52Z"/>
      <path class="st4" d="M647.58,109.63l.24,5.06h-.6c-.12-.89-.28-1.53-.48-1.91-.33-.61-.77-1.07-1.31-1.36-.55-.29-1.26-.44-2.15-.44h-3.04v16.48c0,1.33.14,2.15.43,2.48.4.45,1.02.67,1.86.67h.75v.59h-9.15v-.59h.76c.91,0,1.56-.28,1.94-.83.23-.34.35-1.11.35-2.32v-16.48h-2.59c-1.01,0-1.72.07-2.15.22-.55.2-1.02.59-1.42,1.16-.39.57-.63,1.35-.7,2.32h-.6l.25-5.06h17.61Z"/>
      <path class="st4" d="M649.83,122.12c-.01,2.16.51,3.86,1.57,5.09s2.31,1.84,3.74,1.84c.95,0,1.78-.26,2.49-.79.7-.52,1.3-1.42,1.77-2.7l.49.32c-.22,1.45-.87,2.78-1.94,3.97-1.07,1.19-2.41,1.79-4.02,1.79-1.75,0-3.25-.68-4.49-2.04s-1.87-3.19-1.87-5.5c0-2.49.64-4.43,1.92-5.83,1.28-1.39,2.88-2.09,4.81-2.09,1.63,0,2.97.54,4.02,1.61s1.57,2.52,1.57,4.32h-10.07ZM649.83,121.2h6.74c-.05-.93-.16-1.59-.33-1.97-.26-.59-.66-1.06-1.18-1.4-.52-.34-1.07-.51-1.65-.51-.88,0-1.67.34-2.36,1.03-.7.68-1.1,1.64-1.22,2.86Z"/>
      <path class="st4" d="M672.13,129.56c-.71.74-1.41,1.28-2.08,1.6-.68.32-1.41.49-2.2.49-1.59,0-2.98-.67-4.17-2-1.19-1.33-1.78-3.04-1.78-5.13s.66-4,1.97-5.73c1.32-1.73,3.01-2.6,5.07-2.6,1.28,0,2.34.41,3.18,1.22v-2.69c0-1.66-.04-2.69-.12-3.07-.08-.38-.2-.64-.37-.78-.17-.14-.38-.21-.64-.21-.28,0-.64.09-1.1.25l-.21-.56,4.34-1.78h.72v16.84c0,1.71.04,2.75.12,3.13s.21.64.38.79.38.22.61.22c.29,0,.67-.09,1.15-.27l.17.56-4.33,1.8h-.73v-2.08ZM672.13,128.45v-7.51c-.06-.72-.25-1.38-.57-1.97-.32-.59-.74-1.04-1.26-1.34-.52-.3-1.04-.45-1.54-.45-.93,0-1.77.42-2.5,1.26-.96,1.1-1.45,2.71-1.45,4.83s.47,3.78,1.4,4.92c.93,1.14,1.97,1.71,3.12,1.71.96,0,1.9-.48,2.8-1.45Z"/>
      <path class="st4" d="M686.38,129.1c-1.49,1.16-2.43,1.82-2.82,2-.57.26-1.18.4-1.83.4-1.01,0-1.84-.35-2.49-1.03-.65-.69-.98-1.6-.98-2.72,0-.71.16-1.33.48-1.84.44-.72,1.19-1.4,2.27-2.04s2.87-1.41,5.37-2.32v-.57c0-1.45-.23-2.45-.69-2.99-.46-.54-1.13-.81-2.01-.81-.67,0-1.2.18-1.59.54-.4.36-.6.77-.6,1.24l.03.92c0,.49-.12.86-.37,1.13-.25.27-.58.4-.98.4s-.71-.14-.96-.41c-.25-.28-.37-.65-.37-1.13,0-.91.47-1.75,1.4-2.51.93-.76,2.24-1.15,3.93-1.15,1.29,0,2.35.22,3.18.65.63.33,1.09.84,1.38,1.54.19.46.29,1.39.29,2.8v4.95c0,1.39.03,2.24.08,2.55.05.31.14.52.26.63.12.11.26.16.42.16.17,0,.32-.04.45-.11.22-.14.65-.52,1.29-1.16v.89c-1.19,1.59-2.32,2.39-3.4,2.39-.52,0-.93-.18-1.24-.54-.31-.36-.47-.98-.48-1.84ZM686.38,128.07v-5.55c-1.6.64-2.64,1.09-3.1,1.35-.84.47-1.44.95-1.8,1.46-.36.51-.54,1.07-.54,1.67,0,.76.23,1.4.68,1.9.46.5.98.75,1.57.75.81,0,1.87-.53,3.18-1.59Z"/>
      <path class="st4" d="M691.83,116.63h6.85v.59h-.45c-.41,0-.73.1-.95.3s-.33.47-.33.81c0,.37.11.81.33,1.32l3.39,8.05,3.4-8.35c.24-.59.37-1.04.37-1.35,0-.15-.04-.27-.13-.36-.12-.16-.26-.27-.44-.33-.18-.06-.55-.09-1.1-.09v-.59h4.76v.59c-.55.04-.93.15-1.15.33-.37.32-.71.85-1,1.59l-5.17,12.5h-.65l-5.2-12.29c-.23-.57-.46-.98-.67-1.23-.21-.25-.48-.46-.81-.63-.18-.1-.54-.19-1.07-.27v-.59Z"/>
      <path class="st4" d="M713.89,116.2v11.71c0,.91.07,1.52.2,1.82.13.3.33.53.59.68.26.15.73.22,1.42.22v.57h-7.08v-.57c.71,0,1.19-.07,1.43-.21s.44-.37.58-.68c.14-.32.21-.93.21-1.83v-5.61c0-1.58-.05-2.6-.14-3.07-.07-.34-.19-.58-.35-.71-.16-.13-.38-.2-.65-.2-.3,0-.66.08-1.08.24l-.22-.57,4.39-1.78h.7ZM712.57,108.58c.45,0,.82.16,1.14.47.31.31.47.69.47,1.14s-.16.83-.47,1.15c-.31.32-.69.48-1.14.48s-.83-.16-1.15-.48-.48-.7-.48-1.15.16-.82.47-1.14c.31-.31.7-.47,1.15-.47Z"/>
      <path class="st4" d="M727.33,116.2v4.96h-.52c-.4-1.56-.92-2.62-1.55-3.18-.63-.56-1.43-.84-2.41-.84-.74,0-1.34.2-1.8.59-.46.39-.68.83-.68,1.31,0,.59.17,1.1.51,1.53.33.44,1,.9,2,1.38l2.32,1.13c2.15,1.05,3.23,2.43,3.23,4.15,0,1.33-.5,2.39-1.5,3.21-1,.81-2.12,1.22-3.36,1.22-.89,0-1.91-.16-3.05-.48-.35-.11-.64-.16-.86-.16-.24,0-.44.14-.57.41h-.52v-5.2h.52c.3,1.48.86,2.6,1.7,3.36.84.75,1.78,1.13,2.82,1.13.73,0,1.33-.22,1.79-.64s.69-.95.69-1.55c0-.73-.26-1.35-.77-1.84s-1.54-1.13-3.08-1.89c-1.54-.76-2.54-1.45-3.02-2.07-.48-.6-.72-1.37-.72-2.29,0-1.2.41-2.2,1.23-3.01s1.89-1.21,3.19-1.21c.57,0,1.27.12,2.08.37.54.16.9.24,1.08.24.17,0,.3-.04.4-.11.1-.07.21-.24.33-.49h.52Z"/>
      <path class="st4" d="M735.62,116.2v11.71c0,.91.07,1.52.2,1.82.13.3.33.53.59.68.26.15.73.22,1.42.22v.57h-7.08v-.57c.71,0,1.19-.07,1.43-.21s.44-.37.58-.68c.14-.32.21-.93.21-1.83v-5.61c0-1.58-.05-2.6-.14-3.07-.07-.34-.19-.58-.35-.71-.16-.13-.38-.2-.65-.2-.3,0-.66.08-1.08.24l-.22-.57,4.39-1.78h.7ZM734.3,108.58c.45,0,.82.16,1.14.47.31.31.47.69.47,1.14s-.16.83-.47,1.15c-.31.32-.69.48-1.14.48s-.83-.16-1.15-.48-.48-.7-.48-1.15.16-.82.47-1.14c.31-.31.7-.47,1.15-.47Z"/>
    </g>
  </g>
</svg>